SplineFontDB: 3.2
FontName: Unageo-Black
FullName: Unageo Black
FamilyName: Unageo
Weight: Black
Copyright: 
UComments: "2023-12-24: Created with FontForge (http://fontforge.org)"
Version: 1.6
ItalicAngle: 0
UnderlinePosition: -100
UnderlineWidth: 50
Ascent: 800
Descent: 200
InvalidEm: 0
LayerCount: 2
Layer: 0 0 "Back" 1
Layer: 1 0 "Fore" 0
XUID: [1021 442 -170519175 30473]
FSType: 0
OS2Version: 0
OS2_WeightWidthSlopeOnly: 0
OS2_UseTypoMetrics: 0
CreationTime: 1703449507
ModificationTime: 1703537340
PfmFamily: 33
TTFWeight: 900
TTFWidth: 5
LineGap: 0
VLineGap: 0
OS2TypoAscent: 800
OS2TypoAOffset: 0
OS2TypoDescent: -200
OS2TypoDOffset: 0
OS2TypoLinegap: 90
OS2WinAscent: 910
OS2WinAOffset: 0
OS2WinDescent: 220
OS2WinDOffset: 0
HheadAscent: 950
HheadAOffset: 0
HheadDescent: -250
HheadDOffset: 0
OS2CapHeight: 700
OS2XHeight: 500
OS2Vendor: 'PfEd'
MarkAttachClasses: 1
DEI: 91125

StartChar: A
Encoding: 65 65 0
GlifName: A_
Width: 689
Flags: W
HStem: 0 21G<7 193.829 494.714 682> 93 170<276.796 406.193> 680 20G<240.143 433.314>
LayerCount: 2
Fore
SplineSet
276.795714286 263 m 1
 406.192857143 263 l 1
 339.398785425 446.356275304 l 1
 276.795714286 263 l 1
218.752857143 93 m 1
 187 0 l 1
 7 0 l 1
 247 700 l 1
 426 700 l 1
 682 0 l 1
 502 0 l 1
 468.121428571 93 l 1
 218.752857143 93 l 1
EndSplineSet
Validated: 1
EndChar

StartChar: B
Encoding: 66 66 1
GlifName: B_
Width: 612
Flags: W
HStem: 0 170.108<230 398.909> 278 170<230 354.529> 530 170<230 354.529>
VStem: 60 170<170.108 278 448 530> 370 170<457.371 519.803> 417.267 169.733<183.959 264.111>
LayerCount: 2
Fore
SplineSet
230 278 m 1xf4
 230 170.108398438 l 1
 354.321289062 170.108398438 l 2
 372.553009821 170.108398438 387.601825428 175.052774509 399.467735882 184.941526652 c 0
 411.333646335 194.830278795 417.266601562 207.867673557 417.266601562 224.053710938 c 0
 417.266601562 240.240187645 411.333660052 253.277854998 399.467777033 263.166712999 c 0
 387.601894014 273.055571 372.55306469 278 354.321289062 278 c 2
 230 278 l 1xf4
230 530 m 1
 230 448 l 1
 315 448 l 2
 331.666666667 448 345 451.666666667 355 459 c 0
 365 466.333333333 370 476.333333333 370 489 c 0xf8
 370 501.666666667 365 511.666666667 355 519 c 0
 345 526.333333333 331.666666667 530 315 530 c 2
 230 530 l 1
60 700 m 1
 335 700 l 2
 391.666666667 700 440 680 480 640 c 0
 520 600 540 551.666666667 540 495 c 0xf8
 539.867465333 455.540543377 529.228142417 419.152522544 508.08203125 385.8359375 c 1
 533.071359817 365.131777316 552.470466051 340.095973088 566.279349952 310.728524817 c 0
 580.088233852 281.361076546 586.995117201 250.451568274 587 218 c 0xf4
 587 158 565.666666667 106.666666667 523 64 c 0
 480.333333333 21.3333333333 429 0 369 0 c 2
 60 0 l 1
 60 700 l 1
EndSplineSet
Validated: 1
EndChar

StartChar: C
Encoding: 67 67 2
GlifName: C_
Width: 658
Flags: W
HStem: -12.5 170<297.969 476.24> 541.5 170<298.059 475.597>
VStem: 24.7832 170<260.449 438.644>
LayerCount: 2
Fore
SplineSet
386.783203125 711.5 m 0
 435.921875 711.5 482.556640625 702.155273437 526.6875 683.465820312 c 0
 570.818359375 664.777018229 609.589192708 638.694010417 643 605.216796875 c 1
 522.71875 484.935546875 l 1
 485.235677083 522.600911458 439.923828125 541.455729167 386.783203125 541.5 c 0
 333.799479167 541.5 288.553385417 522.74609375 251.044921875 485.23828125 c 0
 213.537109375 447.729817709 194.783203125 402.483723959 194.783203125 349.5 c 0
 194.783203125 296.516276041 213.537109375 251.270182291 251.044921875 213.76171875 c 0
 288.553385417 176.25390625 333.799479167 157.5 386.783203125 157.5 c 0
 439.658854167 157.514973959 484.821614584 176.185546875 522.271484375 213.51171875 c 1
 641.853515625 93.9296875 l 1
 608.591145834 60.5618489583 569.99609375 34.5257161458 526.068359375 15.8212890625 c 0
 482.139973958 -2.88313802083 435.711588542 -12.3235677083 386.783203125 -12.5 c 0
 283.955729167 -12.5 197.122395834 24.1370442708 126.283203125 97.4111328125 c 0
 58.6165364583 167.403971354 24.783203125 251.43359375 24.783203125 349.5 c 0
 24.783203125 447.794270833 58.7493489583 531.9609375 126.681640625 602 c 0
 197.485677083 675 284.186197916 711.5 386.783203125 711.5 c 0
EndSplineSet
Validated: 1
EndChar

StartChar: D
Encoding: 68 68 3
GlifName: D_
Width: 707
Flags: HW
HStem: 0 170<230 418.475> 530 170<230 418.475>
VStem: 60 170<170 530> 512 170<263.333 436.667>
LayerCount: 2
Fore
SplineSet
332 530 m 2
 230 530 l 1
 230 170 l 1
 332 170 l 2
 382 170 424.5 187.5 459.5 222.5 c 0
 494.5 257.5 512 300 512 350 c 0
 512 400 494.5 442.5 459.5 477.5 c 0
 424.5 512.5 382 530 332 530 c 2
332 700 m 2
 428.666666667 700 511.166666667 665.833333333 579.5 597.5 c 0
 647.833333333 529.166666667 682 446.666666667 682 350 c 0
 682 253.333333333 647.833333333 170.833333333 579.5 102.5 c 0
 511.166666667 34.1666666667 428.666666667 0 332 0 c 2
 60 0 l 1
 60 700 l 1
 332 700 l 2
EndSplineSet
Validated: 1
EndChar

StartChar: E
Encoding: 69 69 4
GlifName: E_
Width: 586
Flags: W
HStem: 0 170<230 536> 266 169<230 465> 530 170<230 535>
VStem: 60 170<170 266 435 530>
LayerCount: 2
Fore
SplineSet
60 0 m 1
 60 700 l 1
 535 700 l 1
 535 530 l 1
 230 530 l 1
 230 435 l 1
 465 435 l 1
 465 266 l 1
 230 266 l 1
 230 170 l 1
 536 170 l 1
 536 0 l 1
 60 0 l 1
EndSplineSet
Validated: 1
EndChar

StartChar: F
Encoding: 70 70 5
GlifName: F_
Width: 564
Flags: W
HStem: 0 21G<60 230> 258 170<230 470> 530 170<230 539>
VStem: 60 170<0 258 428 530>
LayerCount: 2
Fore
SplineSet
60 0 m 1
 60 700 l 1
 539 700 l 1
 539 530 l 1
 230 530 l 1
 230 428 l 1
 470 428 l 1
 470 258 l 1
 230 258 l 1
 230 0 l 1
 60 0 l 1
EndSplineSet
Validated: 1
EndChar

StartChar: G
Encoding: 71 71 6
GlifName: G_
Width: 764
Flags: W
HStem: -12.5 170<296.676 476.922> 264.5 170<384 558.881> 541.5 170<297.196 476.271>
VStem: 25 170<259.696 439.824>
CounterMasks: 1 e0
LayerCount: 2
Fore
SplineSet
387 711.5 m 0
 435.065104167 711.5 481.295898437 702.291015625 525.692382812 683.873046875 c 0
 570.088867187 665.456380208 609.263671875 639.237630208 643.216796875 605.216796875 c 1
 522.935546875 484.935546875 l 1
 485.451822917 522.6015625 440.139973959 541.456380208 387 541.5 c 0
 333.981119792 541.5 288.726236979 522.754882813 251.235351562 485.264648438 c 0
 213.745117187 447.773763021 195 402.518880208 195 349.5 c 0
 195 296.481119792 213.745117187 251.226236979 251.235351562 213.735351562 c 0
 288.726236979 176.245117187 333.981119792 157.5 387 157.5 c 0
 439.875651041 157.514322917 485.038411458 176.184895833 522.48828125 213.51171875 c 0
 537.1796875 228.037760417 549.310546875 245.033854167 558.880859375 264.5 c 1
 384 264.5 l 1
 384 434.5 l 1
 749 434.5 l 1
 749 349.5 l 2
 748.9921875 250.25 713.348958333 165.059895833 642.0703125 93.9296875 c 0
 608.270182292 60.0221354167 569.277669271 33.8502604167 525.092773438 15.4140625 c 0
 480.907877605 -3.02213541667 434.876953125 -12.3268229167 387 -12.5 c 0
 285.857421875 -12.5 200.024088541 23.0823567708 129.5 94.2470703125 c 0
 59.8333333333 164.545898438 25 249.630208333 25 349.5 c 0
 25 450.642578125 60.5823567707 536.475911459 131.747070312 607 c 0
 202.045898437 676.666666667 287.130208333 711.5 387 711.5 c 0
EndSplineSet
Validated: 1
EndChar

StartChar: H
Encoding: 72 72 7
GlifName: H_
Width: 728
Flags: W
HStem: 0 21G<60 230 498 668> 271 170<230 498> 681 20G<60 230 498 668>
VStem: 60 170<0 271 441 701> 498 170<0 271 441 700>
LayerCount: 2
Fore
SplineSet
60 0 m 1
 60 701 l 1
 230 701 l 1
 230 441 l 1
 498 441 l 1
 498 700 l 1
 668 700 l 1
 668 0 l 1
 498 0 l 1
 498 271 l 1
 230 271 l 1
 230 0 l 1
 60 0 l 1
EndSplineSet
Validated: 1
EndChar

StartChar: I
Encoding: 73 73 8
GlifName: I_
Width: 290
Flags: W
HStem: 0 21G<60 230> 680 20G<60 230>
VStem: 60 170<0 700>
LayerCount: 2
Fore
SplineSet
60 0 m 1
 60 700 l 1
 230 700 l 1
 230 0 l 1
 60 0 l 1
EndSplineSet
Validated: 1
EndChar

StartChar: J
Encoding: 74 74 9
GlifName: J_
Width: 461
Flags: W
HStem: -16 170<131.053 221.237> 680 20G<241 411>
VStem: 241 170<173.654 700>
LayerCount: 2
Fore
SplineSet
241 700 m 1
 411 700 l 1
 411 219 l 2
 411 154.106770833 388.056640625 98.716796875 342.169921875 52.830078125 c 0
 296.283203125 6.943359375 240.893229167 -16 176 -16 c 0
 111.203125 -15.7662760417 55.9544270833 7.318359375 10.25390625 53.25390625 c 1
 130.461914062 173.461914062 l 1
 143.020507813 160.587565104 158.199869792 154.100260417 176 154 c 0
 193.783854167 153.899739583 209.063151042 160.250325521 221.837890625 173.051757812 c 0
 234.612630208 185.853841145 241 201.169921875 241 219 c 2
 241 700 l 1
EndSplineSet
Validated: 33
EndChar

StartChar: K
Encoding: 75 75 10
GlifName: K_
Width: 678
Flags: W
HStem: 0 21G<60 230 448.18 668> 680 20G<60 230 408.481 646>
VStem: 60 170<0 198.556 463.908 700>
LayerCount: 2
Fore
SplineSet
60 0 m 1
 60 700 l 1
 230 700 l 1
 230 463.908045977 l 1
 425 700 l 1
 646 700 l 1
 394.554963465 396.909613637 l 1
 668 0 l 1
 462 0 l 1
 281.717739525 260.896279386 l 1
 230 198.556016598 l 1
 230 0 l 1
 60 0 l 1
EndSplineSet
Validated: 1
EndChar

StartChar: L
Encoding: 76 76 11
GlifName: L_
Width: 553
Flags: W
HStem: 0 170<230 533> 680 20G<60 230>
VStem: 60 170<170 700>
LayerCount: 2
Fore
SplineSet
60 0 m 1
 60 700 l 1
 230 700 l 1
 230 170 l 1
 533 170 l 1
 533 0 l 1
 60 0 l 1
EndSplineSet
Validated: 1
EndChar

StartChar: M
Encoding: 77 77 12
GlifName: M_
Width: 827
Flags: W
HStem: 0 21G<10.2617 184.439 642.821 817> 38.2207 281.037<183.925 643.337> 680 20G<101.022 299.179 528.082 726.24>
VStem: 10.2617 171.508<0 171.508> 645.49 171.51<0 171.51>
LayerCount: 2
Fore
SplineSet
103.69140625 700 m 1
 292.833984375 700 l 1
 413.630859375 319.2578125 l 1
 534.427734375 700 l 1
 723.5703125 700 l 1
 817 0 l 1
 645.490234375 0 l 1
 599.65234375 343.43359375 l 1
 502.818359375 38.220703125 l 1
 324.443359375 38.220703125 l 1
 227.609375 343.435546875 l 1
 181.76953125 0 l 1
 10.26171875 0 l 1
 103.69140625 700 l 1
EndSplineSet
Validated: 1
EndChar

StartChar: N
Encoding: 78 78 13
GlifName: N_
Width: 713
Flags: W
HStem: 0 21G<60 230 469.992 653> 680 20G<60 243.008 483 653>
VStem: 60 170<0 389> 483 170<311 700>
LayerCount: 2
Fore
SplineSet
60 700 m 1
 230 700 l 1
 483 311 l 1
 483 700 l 1
 653 700 l 1
 653 0 l 1
 483 0 l 1
 230 389 l 1
 230 0 l 1
 60 0 l 1
 60 700 l 1
EndSplineSet
Validated: 1
EndChar

StartChar: O
Encoding: 79 79 14
GlifName: O_
Width: 774
Flags: W
HStem: -12.5 170<298.634 475.917> 541.5 170<298.713 476.519>
VStem: 25 170<259.981 439.101> 579 170<260.557 437.866>
LayerCount: 2
Fore
SplineSet
387 541.5 m 0
 334.016276041 541.5 288.770182291 522.74609375 251.26171875 485.23828125 c 0
 213.75390625 447.729817709 195 402.483723959 195 349.5 c 0
 195 296.516276041 213.75390625 251.270182291 251.26171875 213.76171875 c 0
 288.770182291 176.25390625 334.016276041 157.5 387 157.5 c 0
 439.983723959 157.5 485.229817709 176.25390625 522.73828125 213.76171875 c 0
 560.24609375 251.270182291 579 296.516276041 579 349.5 c 0
 579 402.483723959 560.24609375 447.729817709 522.73828125 485.23828125 c 0
 485.229817709 522.74609375 439.983723959 541.5 387 541.5 c 0
387 711.5 m 4
 486.207682292 711.5 570.921223959 677 641.140625 608 c 0
 713.046875 537.342447917 749 451.17578125 749 349.5 c 0
 749 246.343098959 712.166666667 159.320638021 638.5 88.4326171875 c 0
 568.574869792 21.1442057292 484.741536459 -12.5 387 -12.5 c 0
 285.32421875 -12.5 199.157552083 23.453125 128.5 95.359375 c 0
 59.5 165.578776041 25 250.292317708 25 349.5 c 0
 25 448.909505208 59.6178385417 533.742838541 128.853515625 604 c 0
 199.477864583 675.666666667 285.526692708 711.5 387 711.5 c 4
EndSplineSet
Validated: 1
EndChar

StartChar: P
Encoding: 80 80 15
GlifName: P_
Width: 598
Flags: W
HStem: 0 21G<60 230> 210 170<230 399.61> 530 170<230 399.61>
VStem: 60 170<0 210 380 530> 423 170<403.297 506.703>
LayerCount: 2
Fore
SplineSet
230 530 m 1
 230 380 l 1
 348 380 l 2
 368 380 385.5 387.5 400.5 402.5 c 0
 415.5 417.5 423 435 423 455 c 0
 423 475 415.5 492.5 400.5 507.5 c 0
 385.5 522.5 368 530 348 530 c 2
 230 530 l 1
60 700 m 1
 348 700 l 2
 415.333333333 700 473 676 521 628 c 0
 569 580 593 522.333333333 593 455 c 0
 593 387.666666667 569 330 521 282 c 0
 473 234 415.333333333 210 348 210 c 2
 230 210 l 1
 230 0 l 1
 60 0 l 1
 60 700 l 1
EndSplineSet
Validated: 1
EndChar

StartChar: Q
Encoding: 81 81 16
GlifName: Q_
Width: 774
Flags: W
HStem: -12.5 170<298.186 447.963> -12.5 21G<608.792 648.792> 541.5 170<298.713 476.051>
VStem: 25 170<260.449 439.101> 579 170<288.381 438.314>
LayerCount: 2
Fore
SplineSet
387 541.5 m 0xb8
 334.016276041 541.5 288.770182291 522.74609375 251.26171875 485.23828125 c 0
 213.75390625 447.729817709 195 402.483723959 195 349.5 c 0
 195 296.516276041 213.75390625 251.270182291 251.26171875 213.76171875 c 0
 288.770182291 176.25390625 334.016276041 157.5 387 157.5 c 0
 409.026737461 157.5 429.716191803 160.741209721 449.068363026 167.223629162 c 1
 395.446289062 220.845703125 l 1
 515.654296875 341.053710938 l 1
 569.276370838 287.431636974 l 1
 575.758790279 306.783808197 579 327.473262539 579 349.5 c 0
 579 402.483723959 560.24609375 447.729817709 522.73828125 485.23828125 c 0
 485.229817709 522.74609375 439.983723959 541.5 387 541.5 c 0xb8
387 711.5 m 0
 485.06640625 711.5 569.096028646 677.666666667 639.088867188 610 c 0
 712.362955729 539.160807292 749 452.327473959 749 349.5 c 0
 749 278.663111649 731.631456494 215.434324426 696.894369481 159.813638332 c 1
 749 107.708007812 l 1
 628.791992188 -12.5 l 1x78
 576.477416055 39.8145761333 l 1
 520.527064495 4.93819204443 457.36792581 -12.5 387 -12.5 c 0
 284.172526041 -12.5 197.339192708 24.1370442708 126.5 97.4111328125 c 0
 58.8333333333 167.403971354 25 251.43359375 25 349.5 c 0
 25 448.909505208 59.6178385417 533.742838541 128.853515625 604 c 0
 199.477864583 675.666666667 285.526692708 711.5 387 711.5 c 0
EndSplineSet
Validated: 1
EndChar

StartChar: R
Encoding: 82 82 17
GlifName: R_
Width: 608
Flags: W
HStem: 0 21G<60 230 404.677 592.914> 210 170<230 335.521> 530 170<230 399.61>
VStem: 60 170<0 210 380 530> 423 170<403.537 506.703>
LayerCount: 2
Fore
SplineSet
230 530 m 1
 230 380 l 1
 348 380 l 2
 368 380 385.5 387.5 400.5 402.5 c 0
 415.5 417.5 423 435 423 455 c 0
 423 475 415.5 492.5 400.5 507.5 c 0
 385.5 522.5 368 530 348 530 c 2
 230 530 l 1
60 700 m 1
 348 700 l 2
 415.333333333 700 473 676 521 628 c 0
 569 580 593 522.333333333 593 455 c 0
 593 416.270182292 584.516276042 380.004557292 567.548828125 346.203125 c 0
 550.58203125 312.401692708 527.344401041 284.075520833 497.8359375 261.224609375 c 1
 592.9140625 0 l 1
 411.95703125 0 l 1
 335.521484375 210 l 1
 230 210 l 1
 230 0 l 1
 60 0 l 1
 60 700 l 1
EndSplineSet
Validated: 1
EndChar

StartChar: S
Encoding: 83 83 18
GlifName: S_
Width: 554
Flags: W
HStem: -12 169.998<209.957 332.442> 507.826 21G<333.975 409.787> 542 170<221.985 329.146>
VStem: 37.0029 170<466.044 529.534> 354.005 169.998<176.578 256.421>
LayerCount: 2
Fore
SplineSet
273.002929688 712 m 0
 326.944335937 712 375.036132812 697.102213542 417.278320312 667.306640625 c 0
 459.520507812 637.51171875 486.956705729 599.039713541 499.586914062 551.890625 c 1
 335.153320312 507.826171875 l 1
 332.797200521 518.063151042 325.806640625 526.318033854 314.181640625 532.590820312 c 0
 302.556640625 538.863606771 288.830403646 542 273.002929688 542 c 0
 254.336263021 542 238.669596355 538 226.002929688 530 c 0
 213.336263021 522 207.002929688 510.666666667 207.002929688 496 c 0
 207.002929688 486.154296875 212.034179688 477.56640625 222.096679688 470.236328125 c 0
 235.200195313 460.69140625 256.835611979 453.279296875 287.002929688 448 c 0
 357.002929688 436 414.002929688 411 458.002929688 373 c 0
 502.002929688 335 524.002929688 283.666666667 524.002929688 219 c 0
 524.002929688 153.666666667 499.502929688 98.8333333333 450.502929688 54.5 c 0
 401.502929688 10.1666666667 342.336263021 -12 273.002929688 -12 c 0
 215.586914063 -12 164.127929687 3.97623697917 118.625976562 35.9287109375 c 0
 73.124674479 67.8811848958 43.6461588542 109.00390625 30.1904296875 159.296875 c 1
 194.081054688 203.212890625 l 1
 197.615559896 190.01953125 206.8984375 179.185221354 221.9296875 170.709960938 c 0
 236.961588541 162.235351563 253.986002604 157.998046875 273.002929688 157.998046875 c 0
 295.789388021 157.998046875 314.986328125 163.492513021 330.59375 174.481445312 c 0
 346.201171875 185.470377604 354.004882812 200.309895833 354.004882812 219 c 0
 354.004882812 233.723958333 347.368815104 246.248046875 334.096679688 256.572265625 c 0
 318.375976563 268.801432292 293.344726563 277.944010417 259.002929688 284 c 0
 194.336263021 295.333333333 141.169596354 318.5 99.5029296875 353.5 c 0
 57.8362630208 388.5 37.0029296875 436 37.0029296875 496 c 0
 37.0029296875 557.333333333 60.0029296877 608.666666667 106.002929688 650 c 0
 152.002929688 691.333333333 207.669596355 712 273.002929688 712 c 0
EndSplineSet
Validated: 1
EndChar

StartChar: T
Encoding: 84 84 19
GlifName: T_
Width: 615
Flags: W
HStem: 0 21G<222.5 392.5> 530 170<17 222.5 392.5 598>
VStem: 222.5 170<0 530>
LayerCount: 2
Fore
SplineSet
17 700 m 1
 598 700 l 1
 598 530 l 1
 392.5 530 l 1
 392.5 0 l 1
 222.5 0 l 1
 222.5 530 l 1
 17 530 l 1
 17 700 l 1
EndSplineSet
Validated: 1
EndChar

StartChar: U
Encoding: 85 85 20
GlifName: U_
Width: 700
Flags: W
HStem: -12 170<281.759 418.241> 680 20G<50 220 480 650>
VStem: 50 170<225.026 700> 480 170<225.026 700>
LayerCount: 2
Fore
SplineSet
50 700 m 1
 220 700 l 1
 220 318 l 2
 220 269.333333333 232.5 230.5 257.5 201.5 c 0
 282.5 172.5 313.333333333 158 350 158 c 0
 386.666666667 158 417.5 172.5 442.5 201.5 c 0
 467.5 230.5 480 269.333333333 480 318 c 2
 480 700 l 1
 650 700 l 1
 650 318 l 2
 650 222 621 143 563 81 c 0
 505 19 434 -12 350 -12 c 0
 266 -12 195 19 137 81 c 0
 79 143 50 222 50 318 c 2
 50 700 l 1
EndSplineSet
Validated: 1
EndChar

StartChar: V
Encoding: 86 86 21
GlifName: V_
Width: 689
Flags: W
HStem: 0 21G<248.886 442.057> 680 20G<7 194.086 494.971 682>
LayerCount: 2
Fore
SplineSet
7 700 m 1
 187 700 l 1
 345.137651822 253.643724696 l 1
 502 700 l 1
 682 700 l 1
 435 0 l 1
 256 0 l 1
 7 700 l 1
EndSplineSet
Validated: 1
EndChar

StartChar: W
Encoding: 87 87 22
GlifName: W_
Width: 960
Flags: W
HStem: 0 21G<194.486 384.457 577.486 767.457> 680 20G<7 192.486 384.571 575.486 767.571 953>
VStem: 7 180<520 700> 773 180<520 700>
LayerCount: 2
Fore
SplineSet
773 700 m 1
 953 700 l 1
 762 0 l 1
 583 0 l 1
 480.46875 371.875 l 1
 379 0 l 1
 200 0 l 1
 7 700 l 1
 187 700 l 1
 289.031413613 328.010471204 l 1
 390 700 l 1
 570 700 l 1
 672.031413613 328.010471204 l 1
 773 700 l 1
EndSplineSet
Validated: 1
EndChar

StartChar: X
Encoding: 88 88 23
GlifName: X_
Width: 655
Flags: W
HStem: 0 21G<9.5 221.286 433.214 645> 680 20G<15.5 227.286 427.214 639>
VStem: 227.5 199.5<255.134 454.634>
LayerCount: 2
Fore
SplineSet
439.5 700 m 1
 639 700 l 1
 427 354.88372093 l 1
 645 0 l 1
 445.5 0 l 1
 327.25 192.5 l 1
 209 0 l 1
 9.5 0 l 1
 227.5 354.88372093 l 1
 15.5 700 l 1
 215 700 l 1
 327.25 517.26744186 l 1
 439.5 700 l 1
EndSplineSet
Validated: 1
EndChar

StartChar: Y
Encoding: 89 89 24
GlifName: Y_
Width: 635
Flags: W
HStem: 0 21G<232.5 402.492> 680 20G<6 216.466 418.534 629>
VStem: 232.5 169.992<0 308.268>
LayerCount: 2
Fore
SplineSet
6 700 m 1
 205 700 l 1
 317.500007191 503.75916009 l 1
 430 700 l 1
 629 700 l 1
 402.4921875 308.267578125 l 5
 402.4921875 0 l 1
 232.5 0 l 1
 232.5 308.281089401 l 1
 6 700 l 1
EndSplineSet
Validated: 1
EndChar

StartChar: Z
Encoding: 90 90 25
GlifName: Z_
Width: 605
Flags: W
HStem: 0 170<258 572> 530 170<33 347>
LayerCount: 2
Fore
SplineSet
30 0 m 1
 30 170 l 1
 347 530 l 1
 33 530 l 1
 33 700 l 1
 575 700 l 1
 575 530 l 1
 258 170 l 1
 572 170 l 1
 572 0 l 1
 30 0 l 1
EndSplineSet
Validated: 1
EndChar

StartChar: a
Encoding: 97 97 26
GlifName: a
Width: 596
Flags: W
HStem: -12 168<227.325 346.803> 0 21G<403 551> 344 168<227.325 346.731> 480 20G<403 551>
VStem: 20 173<190.234 309.766> 381 170<189.653 310.347> 403 148<0 32.9897 462.037 500>
LayerCount: 2
Fore
SplineSet
403 500 m 1x1a
 551 500 l 1
 551 0 l 1
 403 0 l 1x5a
 403 32.9896963343 l 1
 399.436481337 29.9011682652 395.76981467 26.9716600342 392 24.2011716412 c 4
 359.160613688 0.0670572137333 318.493947021 -12 270 -12 c 0
 198.666666667 -12 139.166666667 13.3333333333 91.5 64 c 0
 43.8333333333 114.666666667 20 176.666666667 20 250 c 0
 20 323.333333333 43.8333333333 385.333333333 91.5 436 c 0
 139.166666667 486.666666667 198.666666667 512 270 512 c 0xaa
 317.84166122 512 358.84166122 498.22545541 393 470.67636623 c 0
 396.401163535 467.93328911 399.734496869 465.053647183 403 462.03744045 c 1
 403 500 l 1x1a
287 344 m 0xac
 261 344 238.833333333 334.833333333 220.5 316.5 c 0
 202.166666667 298.166666667 193 276 193 250 c 0
 193 224 202.166666667 201.833333333 220.5 183.5 c 0
 238.833333333 165.166666667 261 156 287 156 c 0
 313 156 335.166666667 165.166666667 353.5 183.5 c 0
 371.833333333 201.833333333 381 224 381 250 c 0
 381 276 371.833333333 298.166666667 353.5 316.5 c 0
 335.166666667 334.833333333 313 344 287 344 c 0xac
EndSplineSet
Validated: 1
EndChar

StartChar: b
Encoding: 98 98 27
GlifName: b
Width: 596
Flags: W
HStem: -12 168<248.983 368.675> 0 21G<45 193> 344 168<249.155 368.675> 680 20G<45 215>
VStem: 45 170<189.653 310.347 479.596 700> 403 173<190.234 309.766>
LayerCount: 2
Fore
SplineSet
309 344 m 0xbc
 283 344 260.833333333 334.833333333 242.5 316.5 c 0
 224.166666667 298.166666667 215 276 215 250 c 0
 215 224 224.166666667 201.833333333 242.5 183.5 c 0
 260.833333333 165.166666667 283 156 309 156 c 0
 335 156 357.166666667 165.166666667 375.5 183.5 c 0
 393.833333333 201.833333333 403 224 403 250 c 0
 403 276 393.833333333 298.166666667 375.5 316.5 c 0
 357.166666667 334.833333333 335 344 309 344 c 0xbc
326 512 m 0
 397.333333333 512 456.833333333 486.666666667 504.5 436 c 0
 552.166666667 385.333333333 576 323.333333333 576 250 c 0
 576 176.666666667 552.166666667 114.666666667 504.5 64 c 0
 456.833333333 13.3333333333 397.333333333 -12 326 -12 c 0xbc
 278.485802155 -12 238.485802155 -0.415611656633 206 22.7531650301 c 4
 201.524016463 25.9454230673 197.190683129 29.3576001687 193 32.9896963343 c 1
 193 0 l 1
 45 0 l 1x7c
 45 700 l 1
 215 700 l 1
 215 479.596023729 l 1
 221.131777388 483.783228205 227.465110721 487.564633378 234 490.940239247 c 0
 261.17995131 504.980079749 291.846617977 512 326 512 c 0
EndSplineSet
Validated: 1
EndChar

StartChar: c
Encoding: 99 99 28
GlifName: c
Width: 476
Flags: W
HStem: -12 170<222.886 364.419> 342 170<222.886 364.419>
VStem: 19.7383 170<191.148 308.852>
LayerCount: 2
Fore
SplineSet
281.73828125 512 m 0
 354.087239583 512 415.841145833 486.420572917 467 435.26171875 c 1
 346.79296875 315.0546875 l 1
 328.829427083 333.018229167 307.14453125 342 281.73828125 342 c 0
 256.404947917 342 234.73828125 333 216.73828125 315 c 0
 198.73828125 297 189.73828125 275.333333333 189.73828125 250 c 0
 189.73828125 224.666666667 198.73828125 203 216.73828125 185 c 0
 234.73828125 167 256.404947917 158 281.73828125 158 c 0
 307.14453125 158 328.829427083 166.981770833 346.79296875 184.9453125 c 1
 467 64.73828125 l 1
 415.841145833 13.5794270833 354.087239583 -12 281.73828125 -12 c 0
 209.071614583 -12 147.23828125 13.5 96.23828125 64.5 c 0
 45.23828125 115.5 19.73828125 177.333333333 19.73828125 250 c 0
 19.73828125 322.666666667 45.23828125 384.5 96.23828125 435.5 c 0
 147.23828125 486.5 209.071614583 512 281.73828125 512 c 0
EndSplineSet
Validated: 1
EndChar

StartChar: d
Encoding: 100 100 29
GlifName: d
Width: 596
Flags: W
HStem: -12 168<227.325 347.199> 344 168<227.325 347.408>
VStem: 20 173<190.234 309.766> 381 170<189.653 310.347>
LayerCount: 2
Fore
SplineSet
287 344 m 0
 313 344 335.166666667 334.833333333 353.5 316.5 c 0
 371.833333333 298.166666667 381 276 381 250 c 0
 381 224 371.833333333 201.833333333 353.5 183.5 c 0
 335.166666667 165.166666667 313 156 287 156 c 0
 261 156 238.833333333 165.166666667 220.5 183.5 c 0
 202.166666667 201.833333333 193 224 193 250 c 0
 193 276 202.166666667 298.166666667 220.5 316.5 c 0
 238.833333333 334.833333333 261 344 287 344 c 0
270 512 m 0
 198.666666667 512 139.166666667 486.666666667 91.5 436 c 0
 43.8333333333 385.333333333 20 323.333333333 20 250 c 0
 20 176.666666667 43.8333333333 114.666666667 91.5 64 c 0
 139.166666667 13.3333333333 198.666666667 -12 270 -12 c 0
 313.216280308 -12 350.216280308 -2.4165678584 381 16.7502964248 c 4
 388.724768003 21.5599679461 396.058101336 26.9731012493 403 32.9896963343 c 1
 403 0 l 1
 551 0 l 1
 551 700 l 1
 381 700 l 1
 381 479.596023729 l 1
 373.008982522 485.052846773 364.675649189 489.820473895 356 493.898905095 c 0
 330.330203351 505.966301698 301.663536684 512 270 512 c 0
EndSplineSet
Validated: 9
EndChar

StartChar: e
Encoding: 101 101 30
GlifName: e
Width: 544
Flags: W
HStem: -12 170<228.832 383.523> 190.354 129.646<216.332 342.518> 352 160<222.566 332.71>
VStem: 20 514<191.702 318.032>
LayerCount: 2
Fore
SplineSet
534 190.353515625 m 1
 216.33203125 190.353515625 l 1
 224.347042178 182.265786253 232.903031761 175.69438436 242 170.639309947 c 0
 257.163561963 162.213103316 273.83022863 158 292 158 c 0
 324.072916667 158 349.091145833 166.981770833 367.0546875 184.9453125 c 1
 487.26171875 64.73828125 l 1
 436.102864583 13.5794270833 371.015624999 -12 292 -12 c 0
 219.333333333 -12 155.833333333 13.6666666667 101.5 65 c 0
 47.1666666667 116.333333333 20 178 20 250 c 0
 20 322.666666667 45.5 384.5 96.5 435.5 c 0
 147.5 486.5 209.333333333 512 282 512 c 0
 350.348958333 512 410.102864583 486.420572917 461.26171875 435.26171875 c 0
 509.75390625 386.76953125 534 325.015625 534 250 c 2
 534 190.353515625 l 1
278 352 m 0
 261.333333333 352 246.666666667 347.884765625 234 339.654296875 c 0
 226 334.551432292 218.735677083 328 212.20703125 320 c 1
 342.517578125 320 l 1
 335.505859375 329.333333333 327.333333333 336.680989583 318 342.04296875 c 0
 306.666666667 348.680989583 293.333333333 352 278 352 c 0
EndSplineSet
Validated: 1
EndChar

StartChar: f
Encoding: 102 102 31
GlifName: f
Width: 393
Flags: W
HStem: 0 21G<95 265> 330 170<20 95 265 388> 554 170<272.005 388>
VStem: 95 170<0 330 500 546.995>
LayerCount: 2
Fore
SplineSet
306.5 724 m 2
 388 724 l 1
 388 554 l 1
 306.5 554 l 2
 295.5 554 285.833333333 549.833333333 277.5 541.5 c 0
 269.166666667 533.166666667 265 523.5 265 512.5 c 2
 265 500 l 1
 388 500 l 1
 388 330 l 1
 265 330 l 1
 265 0 l 1
 95 0 l 1
 95 330 l 1
 20 330 l 1
 20 500 l 1
 95 500 l 1
 95 512.5 l 2
 95 570.833333333 115.666666667 620.666666667 157 662 c 0
 198.333333333 703.333333333 248.166666667 724 306.5 724 c 2
EndSplineSet
Validated: 1
EndChar

StartChar: g
Encoding: 103 103 32
GlifName: g
Width: 596
Flags: W
HStem: -215.316 158<182.075 350.022> -32.9668 20G<128.157 165.416> -32.9668 20G<128.157 165.416> -13.3164 168<227.27 347.192> 342.684 168<227.27 347.003>
VStem: 19.9912 173<188.993 308.374> 380.991 170<188.375 308.992>
LayerCount: 2
Fore
SplineSet
269.991210938 510.68359375 m 0x9e
 314.645373271 510.68359375 353.314969626 498.771490039 386 474.947282616 c 0
 391.855830098 470.678952151 397.519567078 466.028265945 402.991210938 460.995223998 c 1
 402.991210938 498.68359375 l 1
 550.991210938 498.68359375 l 1
 550.991210938 58.68359375 l 2
 551.514648438 -27.0078125 528.917317708 -94.1142578125 483.19921875 -142.635742188 c 0
 437.481119792 -191.157226562 375.745117188 -215.384114583 297.991210938 -215.31640625 c 0
 145.139204795 -215.183338267 94.955192967 -182.974744143 59.0908203125 -150.666015625 c 1
 139.892578125 -12.966796875 l 1xce
 190.938637548 -46.1407377256 225.901720527 -57.0946622398 288.991210938 -57.31640625 c 4
 320.501627604 -57.4270833333 343.654622396 -47.5286458333 358.450195312 -27.62109375 c 0
 366.244597808 -17.1332064223 372.01809368 -4.92617517229 375.770682927 9 c 0
 376.104069244 10.2372247409 376.421504862 11.4880184155 376.722989825 12.7523809473 c 1
 374.837869844 11.6568250414 372.930206554 10.595800165 371 9.56930624168 c 0
 342.31065559 -5.68783541944 308.641059235 -13.31640625 269.991210938 -13.31640625 c 0
 198.405273438 -13.31640625 138.842122396 12.0592447917 91.3017578125 62.810546875 c 0
 43.7613932292 113.5625 19.9912109375 175.520182292 19.9912109375 248.68359375 c 0
 19.9912109375 321.84765625 43.7613932292 383.805338542 91.3017578125 434.556640625 c 0
 138.842122396 485.307942708 198.405273438 510.68359375 269.991210938 510.68359375 c 0x9e
286.991210938 342.68359375 m 0
 261.034179688 342.68359375 238.878255208 333.506184896 220.5234375 315.151367188 c 0
 202.168619792 296.797200521 192.991210938 274.641276042 192.991210938 248.68359375 c 0
 192.991210938 222.725911458 202.168619792 200.569986979 220.5234375 182.215820312 c 0
 238.878255208 163.861002604 261.034179688 154.68359375 286.991210938 154.68359375 c 0x9e
 312.948893229 154.68359375 335.105143229 163.861002604 353.459960938 182.215820312 c 0
 371.814127604 200.569986979 380.991210938 222.725911458 380.991210938 248.68359375 c 0
 380.991210938 274.641276042 371.814127604 296.797200521 353.459960938 315.151367188 c 0
 335.105143229 333.506184896 312.948893229 342.68359375 286.991210938 342.68359375 c 0
EndSplineSet
Validated: 33
EndChar

StartChar: h
Encoding: 104 104 33
GlifName: h
Width: 580
Flags: W
HStem: 0 21G<47 217 370 540> 342 170<239.824 347.529> 680 20G<47 217>
VStem: 47 170<0 319.654 474.902 700> 370 170<0 319.436>
LayerCount: 2
Fore
SplineSet
540 0 m 1
 370 0 l 1
 370 263.7109375 l 2
 370 287.016141571 362.659414193 305.890619673 347.978242579 320.334371804 c 0
 333.297070965 334.778123935 315.137656772 342 293.5 342 c 0
 271.862343228 342 253.702929035 334.778123935 239.021757421 320.334371804 c 0
 224.340585807 305.890619673 217 287.016141571 217 263.7109375 c 2
 217 0 l 5
 47 0 l 5
 47 700 l 1
 217 700 l 1
 217 474.901870268 l 1
 221.454105367 478.742266391 226.120772034 482.284494336 231 485.528554101 c 0
 257.542918129 503.1761847 290.376251463 512 329.5 512 c 0
 395.833333333 512 447.5 488.166666667 484.5 440.5 c 0
 521.5 392.833333333 540 331.333333333 540 256 c 2
 540 0 l 1
EndSplineSet
Validated: 1
EndChar

StartChar: i
Encoding: 105 105 34
GlifName: i
Width: 290
Flags: W
HStem: 0 21G<60 230> 480 20G<60 230> 548 200<83.0243 206.976>
VStem: 45 200<586.024 709.976> 60 170<0 500>
LayerCount: 2
Fore
SplineSet
60 0 m 1xe8
 60 500 l 1
 230 500 l 1
 230 0 l 1
 60 0 l 1xe8
245 648 m 0xf0
 245 620.666666667 235.166666667 597.166666667 215.5 577.5 c 0
 195.833333333 557.833333333 172.333333333 548 145 548 c 0
 117.666666667 548 94.1666666667 557.833333333 74.5 577.5 c 0
 54.8333333333 597.166666667 45 620.666666667 45 648 c 0
 45 675.333333333 54.8333333333 698.833333333 74.5 718.5 c 0
 94.1666666667 738.166666667 117.666666667 748 145 748 c 0
 172.333333333 748 195.833333333 738.166666667 215.5 718.5 c 0
 235.166666667 698.833333333 245 675.333333333 245 648 c 0xf0
EndSplineSet
Validated: 1
EndChar

StartChar: j
Encoding: 106 106 35
GlifName: j
Width: 272
Flags: W
HStem: 480 20G<39 209> 542 206<60.6924 187.308>
VStem: 21 206<581.692 708.308> 39 170<-5.90625 500>
LayerCount: 2
Fore
SplineSet
39 500 m 1xd0
 209 500 l 1
 209 54 l 2
 209 -20 182.666666667 -83.3333333333 130 -136 c 0
 77.3333333333 -188.666666667 14 -215 -60 -215 c 1
 -60 -45 l 1
 -32.6666666667 -45 -9.33333333333 -35.3333333333 10 -16 c 0
 29.3333333333 3.33333333333 39 26.6666666667 39 54 c 2
 39 500 l 1xd0
227 645 m 0xe0
 227 616.333333333 217 592 197 572 c 0
 177 552 152.666666667 542 124 542 c 0
 95.3333333333 542 71 552 51 572 c 0
 31 592 21 616.333333333 21 645 c 0
 21 673.666666667 31 698 51 718 c 0
 71 738 95.3333333333 748 124 748 c 0
 152.666666667 748 177 738 197 718 c 0
 217 698 227 673.666666667 227 645 c 0xe0
EndSplineSet
Validated: 1
EndChar

StartChar: k
Encoding: 107 107 36
GlifName: k
Width: 588
Flags: W
HStem: 0 21G<45 215 352.377 578> 480 20G<332.097 578> 680 20G<45 215>
VStem: 45 170<0 95.3443 349.184 700>
LayerCount: 2
Fore
SplineSet
45 0 m 5
 45 700 l 1
 215 700 l 1
 215 349.184100418 l 1
 350 500 l 1
 578 500 l 1
 376.105642709 274.937437774 l 1
 578 0 l 1
 367 0 l 1
 260.338445808 145.885480573 l 1
 215 95.3442622951 l 1
 215 0 l 5
 45 0 l 5
EndSplineSet
Validated: 1
EndChar

StartChar: l
Encoding: 108 108 37
GlifName: l
Width: 260
Flags: W
HStem: 0 21G<45 215> 680 20G<45 215>
VStem: 45 170<0 700>
LayerCount: 2
Fore
SplineSet
45 700 m 1
 215 700 l 1
 215 0 l 1
 45 0 l 1
 45 700 l 1
EndSplineSet
Validated: 1
EndChar

StartChar: m
Encoding: 109 109 38
GlifName: m
Width: 901
Flags: W
HStem: 0 21G<45 215 368 538 691 861> 342 170<237.431 345.529 560.999 668.529> 480 20G<45 203>
VStem: 45 170<0 319.654> 368 170<0 319.654> 691 170<0 319.436>
CounterMasks: 1 1c
LayerCount: 2
Fore
SplineSet
861 0 m 1xdc
 691 0 l 1
 691 263.7109375 l 2
 691 287.016276041 683.659505208 305.890625 668.978515625 320.333984375 c 0
 654.296875 334.777994792 636.137369792 342 614.5 342 c 0
 592.862630208 342 574.703125 334.777994792 560.021484375 320.333984375 c 0
 545.340494792 305.890625 538 287.016276041 538 263.7109375 c 5
 538 0 l 5
 368 0 l 1
 368 263.7109375 l 2
 368 287.016276041 360.659505208 305.890625 345.978515625 320.333984375 c 0
 331.296875 334.777994792 313.137369792 342 291.5 342 c 0xdc
 269.862630208 342 251.703125 334.777994792 237.021484375 320.333984375 c 0
 222.340494792 305.890625 215 287.016276041 215 263.7109375 c 2
 215 0 l 1
 45 0 l 1
 45 500 l 1
 203 500 l 1xbc
 203 463.278312644 l 1
 205.891859193 466.417475744 208.891859193 469.404945437 212 472.240721724 c 0
 241.05199442 498.746907241 279.55199442 512 327.5 512 c 0
 393.833333333 512 445.5 488.166666667 482.5 440.5 c 0
 485.576735531 436.536277649 488.525548071 432.476901166 491.346437619 428.321870551 c 1
 494.099789396 432.656380387 496.98431019 436.882423537 500 441 c 0
 534.666666667 488.333333333 584.833333333 512 650.5 512 c 0
 716.833333333 512 768.5 488.166666667 805.5 440.5 c 0
 842.5 392.833333333 861 331.333333333 861 256 c 2
 861 0 l 1xdc
EndSplineSet
Validated: 1
EndChar

StartChar: n
Encoding: 110 110 39
GlifName: n
Width: 578
Flags: W
HStem: 0 21G<45 215 368 538> 342 170<237.592 345.529> 480 20G<45 203>
VStem: 45 170<0 319.654> 368 170<0 319.436>
LayerCount: 2
Fore
SplineSet
538 0 m 1xd8
 368 0 l 1
 368 263.7109375 l 2
 368 287.016276041 360.659505208 305.890625 345.978515625 320.333984375 c 0
 331.296875 334.777994792 313.137369792 342 291.5 342 c 0xd8
 269.862630208 342 251.703125 334.777994792 237.021484375 320.333984375 c 0
 222.340494792 305.890625 215 287.016276041 215 263.7109375 c 2
 215 0 l 1
 45 0 l 1
 45 500 l 1
 203 500 l 1xb8
 203 463.278046652 l 1
 208.595175365 469.351752135 214.595175365 474.85759402 221 479.795572307 c 4
 248.847255138 501.265190769 284.347255138 512 327.5 512 c 0
 393.833333333 512 445.5 488.166666667 482.5 440.5 c 0
 519.5 392.833333333 538 331.333333333 538 256 c 2
 538 0 l 1xd8
EndSplineSet
Validated: 1
EndChar

StartChar: o
Encoding: 111 111 40
GlifName: o
Width: 564
Flags: W
HStem: -12 170<223.222 340.778> 342 170<223.222 340.778>
VStem: 20 170<191.222 308.778> 374 170<191.222 308.778>
LayerCount: 2
Fore
SplineSet
282 342 m 0
 256.595052083 342 234.910481771 333.017903646 216.946289062 315.053710938 c 0
 198.982096354 297.089518229 190 275.404947917 190 250 c 0
 190 224.595052083 198.982096354 202.910481771 216.946289062 184.946289062 c 0
 234.910481771 166.982096354 256.595052083 158 282 158 c 0
 307.404947917 158 329.089518229 166.982096354 347.053710938 184.946289062 c 0
 365.017903646 202.910481771 374 224.595052083 374 250 c 0
 374 275.404947917 365.017903646 297.089518229 347.053710938 315.053710938 c 0
 329.089518229 333.017903646 307.404947917 342 282 342 c 0
282 512 m 0
 354.348958333 512 416.102864583 486.420572917 467.26171875 435.26171875 c 0
 518.420572917 384.102864583 544 322.348958333 544 250 c 0
 544 177.651041667 518.420572917 115.897135417 467.26171875 64.73828125 c 0
 416.102864583 13.5794270833 354.348958333 -12 282 -12 c 0
 209.651041667 -12 147.897135417 13.5794270833 96.73828125 64.73828125 c 0
 45.5794270833 115.897135417 20 177.651041667 20 250 c 0
 20 322.348958333 45.5794270833 384.102864583 96.73828125 435.26171875 c 0
 147.897135417 486.420572917 209.651041667 512 282 512 c 0
EndSplineSet
Validated: 1
EndChar

StartChar: p
Encoding: 112 112 41
GlifName: p
Width: 601
Flags: W
HStem: -12 168<253.943 373.675> 344 168<254.009 373.675>
VStem: 50 170<189.653 310.347> 408 173<190.234 309.766>
LayerCount: 2
Fore
SplineSet
198 500 m 1
 50 500 l 1
 50 -200 l 1
 220 -200 l 1
 220 20.4039762709 l 1
 222.629598447 18.6083033866 225.296265114 16.8872611837 228 15.2408496623 c 4
 257.823258886 -2.91971677923 292.156592219 -12 331 -12 c 0
 402.333333333 -12 461.833333333 13.3333333333 509.5 64 c 0
 557.166666667 114.666666667 581 176.666666667 581 250 c 0
 581 323.333333333 557.166666667 385.333333333 509.5 436 c 0
 461.833333333 486.666666667 402.333333333 512 331 512 c 0
 285.895231192 512 247.561897859 501.560703644 216 480.682110931 c 0
 209.733025099 476.536428149 203.733025099 471.979159061 198 467.010303666 c 1
 198 500 l 1
314 156 m 0
 288 156 265.833333333 165.166666667 247.5 183.5 c 0
 229.166666667 201.833333333 220 224 220 250 c 0
 220 276 229.166666667 298.166666667 247.5 316.5 c 0
 265.833333333 334.833333333 288 344 314 344 c 0
 340 344 362.166666667 334.833333333 380.5 316.5 c 0
 398.833333333 298.166666667 408 276 408 250 c 0
 408 224 398.833333333 201.833333333 380.5 183.5 c 0
 362.166666667 165.166666667 340 156 314 156 c 0
EndSplineSet
Validated: 9
EndChar

StartChar: q
Encoding: 113 113 42
GlifName: q
Width: 596
Flags: W
HStem: -12 168<227.325 346.86> 344 168<227.325 346.825> 480 20G<403 551>
VStem: 20 173<190.234 309.766> 381 170<-200 20.404 189.653 310.347>
LayerCount: 2
Fore
SplineSet
403 500 m 1xb8
 551 500 l 1xb8
 551 -200 l 1
 381 -200 l 1
 381 20.4039762709 l 1
 373.934296012 15.5790216958 366.600962679 11.292894203 359 7.54559379247 c 4
 332.569358795 -5.48480206918 302.902692129 -12 270 -12 c 0
 198.666666667 -12 139.166666667 13.3333333333 91.5 64 c 0
 43.8333333333 114.666666667 20 176.666666667 20 250 c 0
 20 323.333333333 43.8333333333 385.333333333 91.5 436 c 0
 139.166666667 486.666666667 198.666666667 512 270 512 c 0xd8
 312.749343071 512 349.416009737 502.622540544 380 483.867621631 c 0
 388.092535267 478.905063068 395.759201934 473.28595708 403 467.010303666 c 1
 403 500 l 1xb8
287 156 m 0
 313 156 335.166666667 165.166666667 353.5 183.5 c 0
 371.833333333 201.833333333 381 224 381 250 c 0
 381 276 371.833333333 298.166666667 353.5 316.5 c 0
 335.166666667 334.833333333 313 344 287 344 c 0xd8
 261 344 238.833333333 334.833333333 220.5 316.5 c 0
 202.166666667 298.166666667 193 276 193 250 c 0
 193 224 202.166666667 201.833333333 220.5 183.5 c 0
 238.833333333 165.166666667 261 156 287 156 c 0
EndSplineSet
Validated: 1
EndChar

StartChar: r
Encoding: 114 114 43
GlifName: r
Width: 407
Flags: W
HStem: 0 21G<45 215> 342 170<298.72 392> 480 20G<45 203>
VStem: 45 170<0 261.542>
LayerCount: 2
Fore
SplineSet
45 500 m 1xb0
 203 500 l 1xb0
 203 434.62877134 l 1
 207.422528485 439.504712551 212.089195151 444.188459875 217 448.68001331 c 0
 231.529525471 461.969105843 248.196192138 473.575768073 267 483.5 c 0
 303 502.5 344.666666667 512 392 512 c 1
 392 342 l 1xd0
 348 342 310.333333333 331 279 309 c 0
 247.666666667 287 226.333333333 252.333333333 215 205 c 5
 215 0 l 1
 45 0 l 1
 45 500 l 1xb0
EndSplineSet
Validated: 1
EndChar

StartChar: s
Encoding: 115 115 44
GlifName: s
Width: 449
Flags: W
HStem: -12 151<153.21 245.868>
LayerCount: 2
Fore
SplineSet
418.999023438 397 m 1
 259.999023438 342 l 1
 256.905924479 349.561197917 252.572591146 355.173177083 246.999023438 358.8359375 c 0
 241.760742187 362.278645833 235.427408854 364 227.999023438 364 c 0
 219.332356771 364 212.332356771 362 206.999023438 358 c 0
 201.665690105 354 199.332356771 349 199.999023438 343 c 0
 201.427408854 331.794270833 216.496419271 325.213867187 245.206054688 323.258789062 c 0
 259.850585937 322.261393229 268.614908854 321.508463541 271.499023438 321 c 0
 306.803710938 314.774739583 336.403645834 301.984049479 360.298828125 282.627929688 c 0
 402.93359375 248.090820313 424.166992187 203.548177083 423.999023438 149 c 0
 423.038736979 93.2858072917 400.705403646 50.3844401042 356.999023438 20.2958984375 c 0
 325.724283854 -1.23470052083 282.724283854 -12 227.999023438 -12 c 0
 181.999023438 -11.3333333333 139.999023438 -1.5 101.999023438 17.5 c 0
 63.9990234377 36.5 38.3323567708 65 24.9990234375 103 c 1
 185.999023438 161 l 1
 192.665690105 146.333333333 203.999023438 139 219.999023438 139 c 0
 231.028320313 139 239.028320313 140.692708333 243.999023438 144.078125 c 0
 248.642903646 147.241536459 250.642903646 151.882161459 249.999023438 158 c 0
 248.726236979 168.097005208 228.068033854 175.049479166 188.024414062 178.857421875 c 0
 180.245768229 179.597005208 174.403971354 180.311197917 170.499023438 181 c 0
 124.118815105 189.178385417 89.1523437503 208.395182292 65.599609375 238.650390625 c 0
 42.0475260417 268.905598958 29.8473307292 304.35546875 28.9990234375 345 c 0
 28.9990234375 399 48.6656901042 440.166666667 87.9990234375 468.5 c 0
 127.332356771 496.833333333 172.999023438 511.333333333 224.999023438 512 c 0
 274.838867187 512.34375 316.172200521 502.3203125 348.999023438 481.9296875 c 0
 379.841471354 462.771484375 403.174804687 434.461588541 418.999023438 397 c 1
EndSplineSet
Validated: 33
EndChar

StartChar: t
Encoding: 116 116 45
GlifName: t
Width: 393
Flags: W
HStem: 0 170<274.596 368> 330 170<10 85 255 368>
VStem: 85 170<189.596 330 500 656>
LayerCount: 2
Fore
SplineSet
85 656 m 1
 255 656 l 1
 255 500 l 1
 368 500 l 1
 368 330 l 1
 255 330 l 1
 255 235 l 2
 255 217 261.333333333 201.666666667 274 189 c 0
 286.666666667 176.333333333 302 170 320 170 c 2
 368 170 l 1
 368 0 l 1
 320 0 l 2
 255.333333333 0 200 23 154 69 c 0
 108 115 85 170.333333333 85 235 c 2
 85 330 l 1
 10 330 l 1
 10 500 l 1
 85 500 l 1
 85 656 l 1
EndSplineSet
Validated: 1
EndChar

StartChar: u
Encoding: 117 117 46
GlifName: u
Width: 573
Flags: W
HStem: -12 170<233.456 339.544> 480 20G<40 210 363 533>
VStem: 40 170<180.346 500> 363 170<180.346 500>
LayerCount: 2
Fore
SplineSet
40 500 m 1
 210 500 l 1
 210 236.2890625 l 2
 210 212.983858429 217.340585807 194.109380327 232.021757421 179.665628196 c 0
 246.702929035 165.221876065 264.862343228 158 286.5 158 c 0
 308.137656772 158 326.297070965 165.221876065 340.978242579 179.665628196 c 0
 355.659414193 194.109380327 363 212.983858429 363 236.2890625 c 2
 363 500 l 1
 533 500 l 1
 533 244 l 2
 533 172 509 111.333333333 461 62 c 0
 413 12.6666666667 354.833333333 -12 286.5 -12 c 0
 218.166666667 -12 160 12.6666666667 112 62 c 0
 64 111.333333333 40 172 40 244 c 2
 40 500 l 1
EndSplineSet
Validated: 1
EndChar

StartChar: v
Encoding: 118 118 47
GlifName: v
Width: 584
Flags: W
HStem: 0 21G<192.68 390.84> 480 20G<5 194.84 389.14 579>
LayerCount: 2
Fore
SplineSet
5 500 m 1
 187 500 l 1
 291.866242038 232.484076433 l 1
 397 500 l 1
 579 500 l 1
 383 0 l 1
 200.5 0 l 1
 5 500 l 1
EndSplineSet
Validated: 1
EndChar

StartChar: w
Encoding: 119 119 48
GlifName: w
Width: 846
Flags: W
HStem: 0 21G<165.04 356.48 489.04 680.48> 480 20G<10 194.48 327.5 518.48 651.5 836>
VStem: 10 178<322 500> 658 178<322 500>
LayerCount: 2
Fore
SplineSet
658 500 m 1
 836 500 l 1
 674 0 l 1
 495.5 0 l 1
 422.86244204 224.884080371 l 1
 350 0 l 1
 171.5 0 l 1
 10 500 l 1
 188 500 l 1
 260.88751926 275.038520801 l 1
 334 500 l 1
 512 500 l 1
 584.88751926 275.038520801 l 1
 658 500 l 1
EndSplineSet
Validated: 1
EndChar

StartChar: x
Encoding: 120 120 49
GlifName: x
Width: 559
Flags: W
HStem: 0 21G<10 229.32 330.64 549> 480 20G<10 227.4 331.6 549>
LayerCount: 2
Fore
SplineSet
279.904047976 95.952023988 m 1
 216 0 l 1
 10 0 l 1
 177.249626308 249.626307922 l 1
 10 500 l 1
 214 500 l 1
 279.5 402.23880597 l 1
 345 500 l 1
 549 500 l 1
 382.001497006 249.251497006 l 1
 549 0 l 1
 344 0 l 1
 279.904047976 95.952023988 l 1
EndSplineSet
Validated: 1
EndChar

StartChar: y
Encoding: 121 121 50
GlifName: y
Width: 616
Flags: W
HStem: -212 170<90 209.758> 480 20G<2 196.946 421.605 614>
LayerCount: 2
Fore
SplineSet
2 500 m 1
 188 500 l 1
 312.845703125 220.900390625 l 1
 430 500 l 1
 614 500 l 1
 372.115234375 -77.76953125 l 2
 353.690104166 -118.618489583 325.105143229 -151.182942708 286.360351562 -175.462890625 c 0
 247.614908854 -199.742838542 205.494791667 -211.921875 160 -212 c 2
 90 -212 l 1
 90 -42 l 1
 160 -42 l 2
 174.051432292 -41.9505208333 185.718098959 -39.3346354167 195 -34.15234375 c 0
 204.466145833 -28.8678385417 211.451497396 -20.9140625 215.956054688 -10.291015625 c 2
 222.751953125 5.736328125 l 1
 2 500 l 1
EndSplineSet
Validated: 1
EndChar

StartChar: z
Encoding: 122 122 51
GlifName: z
Width: 448
Flags: W
HStem: 0 170<263.5 428> 330 170<20 184.5>
VStem: 20 408<0 170 330 500>
LayerCount: 2
Fore
SplineSet
20 0 m 1
 20 170 l 1
 184.5 330 l 1
 20 330 l 1
 20 500 l 1
 428 500 l 1
 428 330 l 1
 263.5 170 l 1
 428 170 l 1
 428 0 l 1
 20 0 l 1
EndSplineSet
Validated: 1
EndChar

StartChar: bracketleft
Encoding: 91 91 52
GlifName: bracketleft
Width: 362
Flags: W
VStem: 60 262<-28.2004 51 648 727.2>
LayerCount: 2
Fore
SplineSet
211 799 m 6
 169 799 133.333333333 784.333333333 104 755 c 4
 74.6666666667 725.666666667 60 690 60 648 c 6
 60 51 l 6
 60 9 74.6666666667 -26.6666666667 104 -56 c 4
 133.333333333 -85.3333333333 169 -100 211 -100 c 6
 322 -100 l 5
 322 70 l 5
 231 70 l 6
 230.333333333 70 230 70.3333333333 230 71 c 6
 230 628 l 6
 230 628.666666667 230.333333333 629 231 629 c 6
 322 629 l 5
 322 799 l 5
 211 799 l 6
EndSplineSet
Validated: 9
EndChar

StartChar: backslash
Encoding: 92 92 53
GlifName: backslash
Width: 449
Flags: W
LayerCount: 2
Fore
SplineSet
176.2578125 747 m 5
 14.80859375 693.76171875 l 5
 272.552734375 -87.861328125 l 5
 434 -34.62109375 l 5
 176.2578125 747 l 5
EndSplineSet
Validated: 9
EndChar

StartChar: bracketright
Encoding: 93 93 54
GlifName: bracketright
Width: 362
Flags: W
HStem: -100 170<40 132> 629 170<40 132>
VStem: 40 262<-28.2004 70 629 727.2> 132 170<70 629>
LayerCount: 2
Fore
SplineSet
151 799 m 6xe0
 193 799 228.666666667 784.333333333 258 755 c 4
 287.333333333 725.666666667 302 690 302 648 c 6
 302 51 l 6
 302 9 287.333333333 -26.6666666667 258 -56 c 4
 228.666666667 -85.3333333333 193 -100 151 -100 c 6
 40 -100 l 5
 40 70 l 5xe0
 131 70 l 6
 131.666666667 70 132 70.3333333333 132 71 c 6
 132 628 l 6xd0
 132 628.666666667 131.666666667 629 131 629 c 6
 40 629 l 5
 40 799 l 5
 151 799 l 6xe0
EndSplineSet
Validated: 1
EndChar

StartChar: asciicircum
Encoding: 94 94 55
GlifName: asciicircum
Width: 611
Flags: W
HStem: 373 327<399 400>
LayerCount: 2
Fore
SplineSet
354 373 m 1
 217 700 l 1
 400 700 l 1
 541 373 l 1
 354 373 l 1
70 373 m 1
 217 700 l 1
 399 700 l 1
 257 373 l 1
 70 373 l 1
EndSplineSet
Validated: 5
EndChar

StartChar: underscore
Encoding: 95 95 56
GlifName: underscore
Width: 460
Flags: W
HStem: -170 170<20 440>
LayerCount: 2
Fore
SplineSet
20 -170 m 1
 20 0 l 1
 440 0 l 1
 440 -170 l 1
 20 -170 l 1
EndSplineSet
Validated: 1
EndChar

StartChar: grave
Encoding: 96 96 57
GlifName: grave
Width: 302
Flags: W
HStem: 554 147<129 199>
VStem: 3 302
LayerCount: 2
Fore
SplineSet
129 554 m 5
 3 701 l 5
 199 701 l 5
 305 554 l 5
 129 554 l 5
EndSplineSet
Validated: 1
EndChar

StartChar: zero
Encoding: 48 48 58
GlifName: zero
Width: 638
Flags: W
HStem: -12 169.516<250.666 387.334> 542.484 169.516<250.666 387.335>
VStem: 25 169.516<225.506 474.494> 443.484 169.516<225.506 474.494>
LayerCount: 2
Fore
SplineSet
319 542.484375 m 0
 295.5546875 542.484375 275.415364583 537.185221354 258.58203125 526.586914062 c 0
 241.748046875 515.988606771 228.84765625 501.270833333 219.880859375 482.43359375 c 0
 210.9140625 463.595703125 204.444986979 443.360677083 200.473632812 421.728515625 c 0
 196.501627604 400.096354167 194.515625 376.186848959 194.515625 350 c 0
 194.515625 323.813151041 196.501627604 299.903645833 200.473632812 278.271484375 c 0
 204.444986979 256.639322917 210.9140625 236.404296875 219.880859375 217.56640625 c 0
 228.84765625 198.729166667 241.748046875 184.011393229 258.58203125 173.413085938 c 0
 275.415364583 162.814778646 295.5546875 157.515625 319 157.515625 c 0
 342.4453125 157.515625 362.584635417 162.814778646 379.41796875 173.413085938 c 0
 396.251953125 184.011393229 409.15234375 198.729166667 418.119140625 217.56640625 c 0
 427.0859375 236.404296875 433.555013021 256.639322917 437.526367188 278.271484375 c 0
 441.498372396 299.903645833 443.484375 323.813151041 443.484375 350 c 0
 443.484375 376.186848959 441.498697917 400.096354167 437.52734375 421.728515625 c 0
 433.555338542 443.360677083 427.0859375 463.595703125 418.119140625 482.43359375 c 0
 409.152994792 501.271484375 396.252929687 515.989257813 379.418945312 526.586914062 c 0
 362.584960937 537.185221354 342.4453125 542.484375 319 542.484375 c 0
319 712 m 0
 365.04296875 712 406.944010417 702.088867187 444.703125 682.266601562 c 0
 515.752604167 644.968424479 565.321940104 579.815755209 593.411132812 486.80859375 c 0
 606.470377604 443.568359375 613 397.965494792 613 350 c 0
 613 302.034505208 606.470377604 256.431640625 593.411132812 213.19140625 c 0
 565.321940104 120.184244792 515.752604167 55.0315755208 444.703125 17.7333984375 c 0
 406.944010417 -2.0888671875 365.04296875 -12 319 -12 c 0
 272.95703125 -12 231.055989583 -2.0888671875 193.296875 17.7333984375 c 0
 122.247395833 55.0315755208 72.6780598958 120.184244792 44.5888671875 213.19140625 c 0
 31.5296223958 256.431640625 25 302.034505208 25 350 c 0
 25 397.965494792 31.5296223958 443.568359375 44.5888671875 486.80859375 c 0
 72.6780598958 579.815755209 122.247395833 644.968424479 193.296875 682.266601562 c 0
 231.055989583 702.088867187 272.95703125 712 319 712 c 0
EndSplineSet
Validated: 1
EndChar

StartChar: one
Encoding: 49 49 59
GlifName: one
Width: 484
Flags: W
HStem: 0 21G<234 404> 680 20G<210.165 404>
VStem: 234 170<0 478.081>
LayerCount: 2
Fore
SplineSet
234 700 m 1
 404 700 l 1
 404 0 l 1
 234 0 l 1
 234 478.080735965 l 1
 144.102539062 402.647460938 l 1
 34.828125 532.875 l 1
 234 700 l 1
EndSplineSet
Validated: 1
EndChar

StartChar: two
Encoding: 50 50 60
GlifName: two
Width: 524
Flags: W
HStem: 0 170<270.644 492.2> 543 170<212.837 303.289>
VStem: 323.993 170.007<431.127 526.613>
LayerCount: 2
Fore
SplineSet
251.700195312 713 m 0
 316.313476563 713 372.850260417 690.236979167 421.310546875 644.7109375 c 0
 469.770182292 599.185546875 494 544.781901041 494 481.5 c 0
 493.770182292 412.108723959 471.777669271 356.406901042 428.022460938 314.39453125 c 2
 270.643554688 170 l 1
 492.200195312 170 l 1
 492.200195312 0 l 1
 20.2001953125 0 l 1
 20.2001953125 170 l 1
 298.909179688 426.28125 l 2
 315.631835937 443.00390625 323.993164062 461.41015625 323.993164062 481.5 c 0
 323.993164062 500.373046875 317.301432291 515.357421875 303.91796875 526.453125 c 0
 290.53515625 537.548177083 275.129231771 543.063802083 257.700195312 543 c 0
 240.521809896 542.936848959 225.361653646 537.802408855 212.219726562 527.596679688 c 0
 199.077148437 517.390299479 191.749674479 503.425455729 190.237304688 485.702148438 c 1
 23.3603515625 518.140625 l 1
 32.3512369792 574.233072917 58.453450521 620.717773437 101.666992188 657.594726562 c 0
 144.879882813 694.471679687 194.890950521 712.940104167 251.700195312 713 c 0
EndSplineSet
Validated: 33
EndChar

StartChar: three
Encoding: 51 51 61
GlifName: three
Width: 517
Flags: W
HStem: -9.875 169.975<196.608 302.442> 502.371 21G<107.594 189.197> 542 170<201.572 300.111>
VStem: 317 170<173.644 254.35 452.917 528.205>
LayerCount: 2
Fore
SplineSet
253.5 712 m 0
 316.833333333 712 371.166666667 690.833333333 416.5 648.5 c 0
 461.833333333 606.166666667 484.5 555 484.5 495 c 0
 484.479817708 470.2265625 476.946940104 443.893229167 461.901367188 416 c 0
 451.225585937 396.20703125 436.766927083 375.62890625 418.525390625 354.265625 c 1
 436.052734375 334.280598959 450.215169271 314.858723959 461.012695312 296 c 0
 478.326497396 265.760416667 486.988932292 236.96875 487 209.625 c 0
 487 149.17578125 464.030273437 97.4554036458 418.090820312 54.4638671875 c 0
 372.152018229 11.4729817708 317.288411459 -9.97330729167 253.5 -9.875 c 0
 198.96484375 -9.791015625 149.342773437 6.2666015625 104.633789062 38.2978515625 c 0
 59.9241536457 70.3284505208 31.865234375 110.848307292 20.45703125 159.857421875 c 1
 185.837890625 199.215820312 l 1
 189.399088542 185.926106771 197.800455729 176.084309896 211.041992188 169.690429688 c 0
 224.284179688 163.296549479 239.103515625 160.099609375 255.5 160.099609375 c 0
 271.009765625 160.099609375 285.137369792 165.150716146 297.8828125 175.252929688 c 0
 310.627604167 185.355794271 317 198.146484375 317 213.625 c 0
 317 230.033203125 311.243489583 243.288736979 299.73046875 253.391601562 c 0
 288.217447917 263.494466146 272.807291667 268.545898438 253.5 268.545898438 c 2
 219.5 268.545898438 l 1
 219.5 438.545898438 l 1
 253.5 438.545898438 l 2
 271.666666667 438.545898438 286.375 443.579427084 297.625 453.646484375 c 0
 308.875 463.713541666 314.5 476.831380208 314.5 493 c 0
 314.5 508.333333333 308.333333333 520.333333333 296 529 c 0
 283.666666667 537.666666667 269.5 542 253.5 542 c 0
 232.80078125 542 216.80078125 537.825846354 205.5 529.477539062 c 0
 196.697916667 522.974283854 190.747070313 513.938802083 187.647460938 502.37109375 c 1
 22.716796875 543.576171875 l 1
 33.8841145833 592.197265625 61.626953125 632.423177083 105.9453125 664.25390625 c 0
 150.263020833 696.084635417 199.447916667 712 253.5 712 c 0
EndSplineSet
Validated: 33
EndChar

StartChar: four
Encoding: 52 52 62
GlifName: four
Width: 605
Flags: W
HStem: 0 21G<318 488> 108 170<197.23 318 488 575> 680.439 20G<203.436 255.939>
VStem: 318 170<0 108 278 465>
LayerCount: 2
Fore
SplineSet
213.048828125 700.439453125 m 1
 367.12109375 628.59375 l 1
 197.23046875 278 l 1
 318 278 l 1
 318 465 l 1
 488 465 l 1
 488 278 l 1
 575 278 l 1
 575 108 l 1
 488 108 l 1
 488 0 l 1
 318 0 l 1
 318 108 l 1
 10 108 l 1
 10 278 l 1
 213.048828125 700.439453125 l 1
EndSplineSet
Validated: 1
EndChar

StartChar: five
Encoding: 53 53 63
GlifName: five
Width: 541
Flags: W
HStem: -12 170<204.86 322.077> 530 170<249.816 469.816>
VStem: 341 170<176.665 269.796>
LayerCount: 2
Fore
SplineSet
79.81640625 700 m 1
 469.81640625 700 l 1
 469.81640625 530 l 1
 249.81640625 530 l 1
 249.81640625 460 l 1
 276 460 l 2
 340.666666667 460 396 436.833333333 442 390.5 c 0
 488 344.166666667 511 288.333333333 511 223 c 0
 511 158.333333333 488 103 442 57 c 0
 396 11 340.666666667 -12 276 -12 c 0
 214.240234375 -11.9420572917 161.361979166 3.828125 117.365234375 35.310546875 c 0
 73.3684895833 66.79296875 44.185546875 108.36328125 29.81640625 160.021484375 c 1
 197.233398438 189.541015625 l 1
 209.295898438 168.513671875 234.218098959 158 272 158 c 0
 292.666666667 158 309.333333333 164.166666667 322 176.5 c 0
 334.666666667 188.833333333 341 204.333333333 341 223 c 0
 341 241 334.666666667 256.666666667 322 270 c 0
 309.333333333 283.333333333 294 290 276 290 c 2
 79.81640625 290 l 1
 79.81640625 700 l 1
EndSplineSet
Validated: 1
EndChar

StartChar: six
Encoding: 54 54 64
GlifName: six
Width: 549
Flags: W
HStem: -12 170<222.486 326.514> 692 20G<257.508 464.848>
VStem: 30 170<180.486 285.281> 349 170<180.486 284.17>
LayerCount: 2
Fore
SplineSet
274.5 306.994140625 m 0
 253.510416667 306.994140625 235.846354167 299.825520833 221.5078125 285.48828125 c 0
 207.169270833 271.151692709 200 253.488932292 200 232.5 c 0
 200 211.510416667 207.169270833 193.846354167 221.5078125 179.5078125 c 0
 235.846354167 165.169270833 253.510416667 158 274.5 158 c 0
 295.489583333 158 313.153645833 165.169270833 327.4921875 179.5078125 c 0
 341.830729167 193.846354167 349 211.510416667 349 232.5 c 0
 349 253.488932292 341.830729167 271.151692709 327.4921875 285.48828125 c 0
 313.153645833 299.825520833 295.489583333 306.994140625 274.5 306.994140625 c 0
269.017578125 712 m 1
 464.84765625 712 l 1
 321.69140625 464.4375 l 1
 330.167317709 463.205078125 338.436848959 461.564127605 346.5 459.514648438 c 0
 391.446614583 448.090169271 429.990885417 423.977213542 462.1328125 387.17578125 c 0
 500.040364583 343.771484375 518.99609375 292.212890625 519 232.5 c 0
 519 164.983072917 495.129231771 107.353841146 447.387695312 59.6123046875 c 0
 399.646158854 11.8707682292 342.016927083 -12 274.5 -12 c 0
 206.983072917 -12 149.353841146 11.8707682292 101.612304688 59.6123046875 c 0
 53.8707682293 107.353841146 30 164.983072917 30 232.5 c 0
 30.2044270833 275.798177083 41.1393229167 316.19140625 62.8046875 353.6796875 c 2
 269.017578125 712 l 1
EndSplineSet
Validated: 1
EndChar

StartChar: seven
Encoding: 55 55 65
GlifName: seven
Width: 573
Flags: W
HStem: 0 21G<108.283 305.184> 530 170<25 355.426>
LayerCount: 2
Fore
SplineSet
25 530 m 1
 25 700 l 1
 543 700 l 1
 543 530 l 1
 295.857421875 0 l 1
 108.283203125 0 l 1
 355.425619844 530 l 1
 25 530 l 1
EndSplineSet
Validated: 1
EndChar

StartChar: eight
Encoding: 56 56 66
GlifName: eight
Width: 564
Flags: W
HStem: -12 164<222.79 341.21> 281.521 170<240.436 323.51> 546 166<236.008 327.964>
VStem: 30 169.873<172.027 260.758> 52.7148 169.896<463.712 534.206> 341.291 169.994<463.71 534.208> 364.127 169.873<172.027 260.758>
LayerCount: 2
Fore
SplineSet
282 281.520507812 m 0xf2
 259.822916667 281.520507812 240.590820313 275.461914062 224.303710938 263.344726562 c 0
 208.016601563 251.226888021 199.873046875 235.536458333 199.873046875 216.2734375 c 0
 199.873046875 197.06640625 207.991861979 181.552408854 224.229492188 169.731445312 c 0
 240.467773437 157.910481771 259.724609375 152 282 152 c 0
 304.275390625 152 323.532226563 157.910481771 339.770507812 169.731445312 c 0
 356.008138021 181.552408854 364.126953125 197.06640625 364.126953125 216.2734375 c 0
 364.126953125 235.536458333 355.983398437 251.226888021 339.696289062 263.344726562 c 0
 323.409179687 275.461914062 304.177083333 281.520507812 282 281.520507812 c 0xf2
282 546 m 0
 265.415364583 546 251.370768229 541.743489583 239.866210938 533.23046875 c 0
 228.362304687 524.718098958 222.610351562 513.286458333 222.610351562 498.935546875 c 0
 222.610351562 484.563802084 228.371419271 473.068359375 239.893554688 464.44921875 c 0
 251.416341146 455.830078125 265.451822917 451.520507812 282 451.520507812 c 0
 298.541015625 451.520507812 312.557942709 455.828776041 324.05078125 464.4453125 c 0
 335.544270833 473.0625 341.291015625 484.559244792 341.291015625 498.935546875 c 0xec
 341.291015625 513.291015625 335.553385417 524.723958333 324.078125 533.234375 c 0
 312.602864583 541.744791667 298.576822917 546 282 546 c 0
282 712 m 0
 348.291015625 712 403.077799479 694.216471354 446.360351562 658.649414062 c 0
 489.643554687 623.081705729 511.28515625 576.812825521 511.28515625 519.842773438 c 0xec
 511.28515625 462.873372396 489.643554687 416.604817708 446.360351562 381.037109375 c 0
 444.446039002 379.464063492 442.509224507 377.925803644 440.549908076 376.422329831 c 1
 448.139558228 371.384944438 455.456255536 365.910834494 462.5 360 c 0
 510.166666667 320 534 268 534 204 c 0
 534 140 510.166666667 88 462.5 48 c 0
 414.833333333 8 354.666666667 -12 282 -12 c 0
 209.333333333 -12 149.166666667 8 101.5 48 c 0
 53.8333333333 88 30 140 30 204 c 0xf2
 30 268 53.8333333333 320 101.5 360 c 0
 108.543744451 365.910834504 115.860441749 371.384944451 123.450091896 376.422329842 c 1
 121.490775471 377.925803658 119.553960985 379.464063502 117.639648438 381.037109375 c 0
 74.3564453127 416.604817708 52.71484375 462.873372396 52.71484375 519.842773438 c 0
 52.71484375 576.812825521 74.3564453127 623.081705729 117.639648438 658.649414062 c 0
 160.922200521 694.216471354 215.708984375 712 282 712 c 0
EndSplineSet
Validated: 1
EndChar

StartChar: nine
Encoding: 57 57 67
GlifName: nine
Width: 549
Flags: W
HStem: 0 21G<74.1484 282.465> 542 170<222.536 326.456>
VStem: 29.9961 170<416.503 519.297> 348.996 170<415.186 519.297>
LayerCount: 2
Fore
SplineSet
274.49609375 393.005859375 m 0
 295.485677083 393.005859375 313.149739583 400.174479167 327.48828125 414.51171875 c 0
 341.826822917 428.848307291 348.99609375 446.511067708 348.99609375 467.5 c 0
 348.99609375 488.489583333 341.826822917 506.153645833 327.48828125 520.4921875 c 0
 313.149739583 534.830729167 295.485677083 542 274.49609375 542 c 0
 253.506510417 542 235.842447917 534.830729167 221.50390625 520.4921875 c 0
 207.165364583 506.153645833 199.99609375 488.489583333 199.99609375 467.5 c 0
 199.99609375 446.511067708 207.165364583 428.848307291 221.50390625 414.51171875 c 0
 235.842447917 400.174479167 253.506510417 393.005859375 274.49609375 393.005859375 c 0
269.978515625 0 m 1
 74.1484375 0 l 1
 227.3046875 235.5625 l 1
 218.765625 236.520833333 210.49609375 238.161783854 202.49609375 240.485351562 c 0
 157.829427083 252.161783854 119.28515625 276.274739583 86.86328125 312.82421875 c 0
 49.28515625 356.274739583 30.3294270833 407.833333333 29.99609375 467.5 c 0
 29.6627604167 535.166666667 53.533528646 592.795898437 101.608398438 640.387695312 c 0
 149.533528646 688.129231771 207.162760417 712 274.49609375 712 c 0
 341.829427083 712 399.458658854 688.129231771 447.383789062 640.387695312 c 0
 495.458658854 592.795898437 519.329427083 535.166666667 518.99609375 467.5 c 0
 518.662760417 424.5 507.727864583 384.106770833 486.19140625 346.3203125 c 2
 269.978515625 0 l 1
EndSplineSet
Validated: 33
EndChar

StartChar: exclam
Encoding: 33 33 68
GlifName: exclam
Width: 326
Flags: W
HStem: -16 206<99.6924 226.308> 680 20G<78 248>
VStem: 60 206<23.6924 150.308> 78 170<251 700>
LayerCount: 2
Fore
SplineSet
78 700 m 5xd0
 248 700 l 5
 248 251 l 5
 78 251 l 5
 78 700 l 5xd0
163 190 m 4
 191.666666667 190 216 180 236 160 c 4
 256 140 266 115.666666667 266 87 c 4
 266 58.3333333333 256 34 236 14 c 4
 216 -6 191.666666667 -16 163 -16 c 4
 134.333333333 -16 110 -6 90 14 c 4
 70 34 60 58.3333333333 60 87 c 4xe0
 60 115.666666667 70 140 90 160 c 4
 110 180 134.333333333 190 163 190 c 4
EndSplineSet
Validated: 1
EndChar

StartChar: quotedbl
Encoding: 34 34 69
GlifName: quotedbl
Width: 548
Flags: W
HStem: 440 276<99.5 245.5 333.5 479.5>
VStem: 99.5 146<440 520.5> 333.5 146<440 520.5>
LayerCount: 2
Fore
SplineSet
309.5 716 m 1
 503.5 716 l 1
 479.5 440 l 1
 333.5 440 l 1
 309.5 716 l 1
75.5 716 m 1
 269.5 716 l 1
 245.5 440 l 1
 99.5 440 l 1
 75.5 716 l 1
EndSplineSet
Validated: 1
EndChar

StartChar: numbersign
Encoding: 35 35 70
GlifName: numbersign
Width: 633
Flags: W
HStem: -0 21G<53.9258 230.075 288.92 465.069> 144 170<4.25 79.317 281.916 314.311 516.909 594.266> 376 170<45.1562 120.225 322.824 355.219 557.817 615.172> 680 20G<173.829 349.979 408.823 584.971>
LayerCount: 2
Fore
SplineSet
412.349609375 700 m 1
 584.970703125 700 l 1
 557.816601562 546 l 1
 645.1484375 546 l 1
 615.171875 376 l 1
 527.841294643 376 l 1
 516.909123884 314 l 1
 624.240234375 314 l 1
 594.265625 144 l 1
 486.933816964 144 l 1
 461.54296875 -0 l 1
 288.919921875 0 l 1
 314.311171875 144 l 1
 251.940078125 144 l 1
 226.548828125 0 l 1
 53.92578125 -0 l 1
 79.31703125 144 l 1
 -25.7265625 144 l 1
 4.25 314 l 1
 109.2928125 314 l 1
 120.22515625 376 l 1
 15.181640625 376 l 1
 45.15625 546 l 1
 150.2009375 546 l 1
 177.35546875 700 l 1
 349.978515625 700 l 1
 322.823984375 546 l 1
 385.195078125 546 l 1
 412.349609375 700 l 1
355.219296875 376 m 1
 292.848203125 376 l 1
 281.915859375 314 l 1
 344.286953125 314 l 1
 355.219296875 376 l 1
EndSplineSet
Validated: 1
EndChar

StartChar: dollar
Encoding: 36 36 71
GlifName: dollar
Width: 554
Flags: W
HStem: -91 248.998<208.987 329.857> 507.826 21G<333.972 409.784> 542 249<226.596 329.397>
VStem: 186 170<-91 7.55508 690.279 791>
LayerCount: 2
Fore
SplineSet
186 791 m 1
 356 791 l 1
 356 698.718726554 l 1
 377.635465193 691.330512653 398.060595402 680.859817344 417.275390625 667.306640625 c 0
 459.517578125 637.51171875 486.953776042 599.039713541 499.583984375 551.890625 c 1
 335.150390625 507.826171875 l 1
 332.794270834 518.063151042 325.803710938 526.318033854 314.178710938 532.590820312 c 0
 302.553710938 538.863606771 288.827473959 542 273 542 c 0
 254.333333333 542 238.666666667 538 226 530 c 0
 213.333333333 522 207 510.666666667 207 496 c 0
 207 487.186848959 211.03125 479.381835938 219.09375 472.584960938 c 0
 231.767578125 461.899414063 254.402994792 453.704427083 287 448 c 0
 357 436 414 411 458 373 c 0
 502 335 524 283.666666667 524 219 c 0
 524 153.666666667 499.5 98.8333333333 450.5 54.5 c 0
 422.354353831 29.0348915617 390.854353831 10.8833742637 356 0.0454481059616 c 1
 356 -91 l 1
 186 -91 l 1
 186 1.70582216089 l 1
 162.251597633 9.65534543483 139.792613258 21.062975027 118.623046875 35.9287109375 c 0
 73.1217447917 67.8811848958 43.6432291667 109.00390625 30.1875 159.296875 c 1
 194.078125 203.212890625 l 1
 197.612630208 190.01953125 206.895507812 179.185221354 221.926757812 170.709960938 c 0
 236.958658854 162.235351563 253.983072917 157.998046875 273 157.998046875 c 0
 295.786458333 157.998046875 314.983398437 163.492513021 330.590820312 174.481445312 c 0
 346.198242187 185.470377604 354.001953125 200.309895833 354.001953125 219 c 0
 354.001953125 232.96484375 348.032552083 244.950846354 336.09375 254.958007812 c 0
 320.534505208 267.999674479 294.836588541 277.680338541 259 284 c 0
 194.333333333 295.333333333 141.166666667 318.5 99.5 353.5 c 0
 57.8333333333 388.5 37 436 37 496 c 0
 37 557.333333333 60 608.666666667 106 650 c 0
 130.028937431 671.591219141 156.695604098 687.543155088 186 697.855807842 c 1
 186 791 l 1
EndSplineSet
Validated: 1
EndChar

StartChar: percent
Encoding: 37 37 72
GlifName: percent
Width: 931
Flags: W
HStem: -12 21G<679.667 732.333> -12 21G<296.824 339.391 679.667 732.333> 680 32G<198.667 251.333 593.996 636.563>
LayerCount: 2
Fore
SplineSet
706 368 m 4xa0
 758.666666667 368 803.5 349.5 840.5 312.5 c 4
 877.5 275.5 896 230.666666667 896 178 c 4
 896 125.333333333 877.5 80.5 840.5 43.5 c 4
 803.5 6.5 758.666666667 -12 706 -12 c 4
 653.333333333 -12 608.5 6.5 571.5 43.5 c 4
 534.5 80.5 516 125.333333333 516 178 c 4
 516 230.666666667 534.5 275.5 571.5 312.5 c 4
 608.5 349.5 653.333333333 368 706 368 c 4xa0
706 198 m 4
 700.666666667 198 696 196 692 192 c 4
 688 188 686 183.333333333 686 178 c 4
 686 172.666666667 688 168 692 164 c 4
 696 160 700.666666667 158 706 158 c 4
 711.333333333 158 716 160 720 164 c 4
 724 168 726 172.666666667 726 178 c 4
 726 183.333333333 724 188 720 192 c 4
 716 196 711.333333333 198 706 198 c 4
608 700 m 5
 747.255859375 602.4921875 l 5
 325.38671875 0 l 5
 186.130859375 97.5078125 l 5
 608 700 l 5
225 712 m 4
 277.666666667 712 322.5 693.5 359.5 656.5 c 4
 396.5 619.5 415 574.666666667 415 522 c 4
 415 469.333333333 396.5 424.5 359.5 387.5 c 4
 322.5 350.5 277.666666667 332 225 332 c 4
 172.333333333 332 127.5 350.5 90.5 387.5 c 4
 53.5 424.5 35 469.333333333 35 522 c 4
 35 574.666666667 53.5 619.5 90.5 656.5 c 4
 127.5 693.5 172.333333333 712 225 712 c 4
225 542 m 4
 219.666666667 542 215 540 211 536 c 4
 207 532 205 527.333333333 205 522 c 4
 205 516.666666667 207 512 211 508 c 4
 215 504 219.666666667 502 225 502 c 4
 230.333333333 502 235 504 239 508 c 4
 243 512 245 516.666666667 245 522 c 4
 245 527.333333333 243 532 239 536 c 4
 235 540 230.333333333 542 225 542 c 4
EndSplineSet
Validated: 1
EndChar

StartChar: ampersand
Encoding: 38 38 73
GlifName: ampersand
Width: 629
Flags: W
HStem: -12 167.911<199.601 316.284> 0 21G<409 645>
VStem: 71.6875 171.512<460.726 531.645>
LayerCount: 2
Fore
SplineSet
237 -12 m 0xa0
 177.875651041 -12.01171875 128.510416666 5.90299479167 88.904296875 41.744140625 c 0
 49.2981770833 77.5846354167 29.7001953125 123.621744792 30.1103515625 179.85546875 c 0
 30.3811848958 217.008463542 38.6653645833 253.985351563 54.962890625 290.786132812 c 0
 71.2604166667 327.586914063 94.1595052083 356.315429688 123.66015625 376.971679688 c 0
 152.805989583 397.379882813 191.502278646 420.501302083 239.749023438 446.3359375 c 4
 262.762695313 458.658854167 281.013020833 468.713541667 294.5 476.5 c 0
 310.166666667 485.544921875 318 496.199869791 318 508.46484375 c 0
 318 517.1796875 314.757486979 524.876302083 308.272460938 531.5546875 c 0
 301.788085938 538.233072917 292.655924479 541.572265625 280.875976562 541.572265625 c 0
 268.956705729 541.572265625 259.697591145 538.363606771 253.098632812 531.946289062 c 0
 246.499023437 525.528320313 243.19921875 517.865885417 243.19921875 508.958984375 c 0
 243.19921875 494.361979166 251.466145833 477.042317708 268 457 c 2
 645 0 l 1
 425 0 l 1x60
 137 360 l 2
 92.1516927083 416.060546875 70.380859375 473.208007812 71.6875 531.442382812 c 0
 72.8658854167 583.928710937 93.47265625 627.100585937 133.5078125 660.958007812 c 0
 173.543619792 694.815429687 221.934570313 711.829427083 278.680664062 712 c 0
 337.334960937 712.176432292 386.879231771 694.860026042 427.313476562 660.05078125 c 0
 467.747721354 625.2421875 487.9765625 579.55859375 488 523 c 0
 488.014322917 488.62890625 482.280924479 457.631510417 470.799804688 430.0078125 c 0
 459.318033855 402.384765625 436.531575521 374.270182292 402.440429688 345.6640625 c 0
 379.471679688 326.390625 353.038411459 310.605143229 323.140625 298.307617188 c 0
 286.317057292 283.160481771 253.465494792 263.896158854 224.5859375 240.514648438 c 0
 209.411458333 228.230143229 200.712565104 216.723958333 198.489257812 205.99609375 c 0
 196.234049479 195.116536458 196.774414062 185.094401041 200.110351562 175.9296875 c 0
 202.040039062 170.627604167 205.669921875 166.378580729 211 163.182617188 c 0
 218.916015625 158.435872396 230.582682292 156.012044271 246 155.911132812 c 0
 263.646484375 155.796549479 283.698567708 159.826171875 306.15625 168 c 0
 342.380208333 181.184244792 376.331380208 198.783528646 408.009765625 220.797851562 c 0
 439.688151042 242.812174479 462.018229167 268.212890625 475 297 c 1
 645 297 l 1
 632.117838541 213.271484375 585.716471354 139.670572916 505.795898438 76.197265625 c 0
 468.198242187 46.337890625 425.759765625 24.17578125 378.48046875 9.7109375 c 0
 331.201171875 -4.75390625 284.041015625 -11.9908854167 237 -12 c 0xa0
EndSplineSet
Validated: 37
EndChar

StartChar: quotesingle
Encoding: 39 39 74
GlifName: quotesingle
Width: 314
Flags: W
HStem: 440 276<84 230>
VStem: 84 146<440 520.5>
LayerCount: 2
Fore
SplineSet
60 716 m 1
 254 716 l 1
 230 440 l 1
 84 440 l 1
 60 716 l 1
EndSplineSet
Validated: 1
EndChar

StartChar: parenleft
Encoding: 40 40 75
GlifName: parenleft
Width: 364
Flags: W
VStem: 40.2754 170<202.714 495.059>
LayerCount: 2
Fore
SplineSet
207.03125 799.318359375 m 1
 334 685.184570312 l 1
 294.449869792 638.787434896 264.014322917 586.636393229 242.693359375 528.731445312 c 0
 221.373046875 470.825846354 210.567057292 411.248697917 210.275390625 350 c 0
 210.489583334 291.884765625 220.199869792 235.158854167 239.40625 179.822265625 c 0
 258.61328125 124.485677083 286.163085937 74.1438802083 322.055664062 28.796875 c 1
 206.966796875 -99.232421875 l 1
 153.225911458 -36.7317708333 112.017903646 33.1585286457 83.3427734375 110.438476562 c 0
 54.6669921875 187.717773437 40.3111979167 267.571614583 40.275390625 350 c 0
 40.3098958333 432.447265625 54.6705729167 512.318684896 83.357421875 589.614257812 c 0
 112.044270833 666.909830729 153.268880208 736.811197917 207.03125 799.318359375 c 1
EndSplineSet
Validated: 1
EndChar

StartChar: parenright
Encoding: 41 41 76
GlifName: parenright
Width: 364
Flags: W
VStem: 154 170<202.714 495.059>
LayerCount: 2
Fore
SplineSet
157.244140625 799.318359375 m 5
 211.006510416 736.811197917 252.231119791 666.909830729 280.91796875 589.614257812 c 0
 309.604817709 512.318684896 323.965494792 432.447265625 324 350 c 0
 323.964192708 267.571614583 309.608398437 187.717773437 280.932617188 110.438476562 c 0
 252.257486979 33.1585286457 211.049479167 -36.7317708333 157.30859375 -99.232421875 c 1
 157.30859375 -99.232421875 157.30859375 -99.232421875 42.2197265625 28.796875 c 1
 78.1123046875 74.1438802083 105.662109375 124.485677083 124.869140625 179.822265625 c 0
 144.075520834 235.158854167 153.785807292 291.884765625 154 350 c 0
 153.708333333 411.248697917 142.90234375 470.825846354 121.58203125 528.731445312 c 0
 100.261067708 586.636393229 69.8255208333 638.787434896 30.275390625 685.184570312 c 1
 30.275390625 685.184570312 30.275390625 685.184570312 157.244140625 799.318359375 c 5
EndSplineSet
Validated: 1
EndChar

StartChar: asterisk
Encoding: 42 42 77
GlifName: asterisk
Width: 509
Flags: W
VStem: 169.425 170<518 716>
LayerCount: 2
Fore
SplineSet
39.849609375 498.345703125 m 5
 92.3818359375 660.025390625 l 1
 280.69140625 598.83984375 l 1
 228.158203125 437.16015625 l 1
 39.849609375 498.345703125 l 5
206.809570312 307.852539062 m 1
 69.27734375 407.776367188 l 1
 185.658203125 567.961914062 l 1
 323.19140625 468.038085938 l 1
 206.809570312 307.852539062 l 1
439.572265625 407.776367188 m 1
 302.040039062 307.852539062 l 1
 185.658203125 468.038085938 l 1
 323.19140625 567.961914062 l 1
 439.572265625 407.776367188 l 1
416.467773438 660.025390625 m 1
 469 498.345703125 l 1
 280.69140625 437.16015625 l 1
 228.158203125 598.83984375 l 1
 416.467773438 660.025390625 l 1
169.424804688 716 m 1
 339.424804688 716 l 1
 339.424804688 518 l 1
 169.424804688 518 l 1
 169.424804688 716 l 1
EndSplineSet
Validated: 5
EndChar

StartChar: plus
Encoding: 43 43 78
GlifName: plus
Width: 620
Flags: W
HStem: 214 170<85 225.5 395.5 535>
VStem: 225.5 170<73 214 384 523>
LayerCount: 2
Fore
SplineSet
225.5 523 m 1
 395.5 523 l 1
 395.5 384 l 1
 535 384 l 1
 535 214 l 1
 395.5 214 l 1
 395.5 73 l 1
 225.5 73 l 1
 225.5 214 l 1
 85 214 l 1
 85 384 l 1
 225.5 384 l 1
 225.5 523 l 1
EndSplineSet
Validated: 1
EndChar

StartChar: comma
Encoding: 44 44 79
GlifName: comma
Width: 286
Flags: W
HStem: -113 259<84 164.521>
VStem: 84 180<17.086 146>
LayerCount: 2
Fore
SplineSet
84 146 m 5
 264 146 l 5
 264 44 228.666666667 -42.3333333333 158 -113 c 5
 18 -113 l 5
 62 -31.2857142857 84 55.0476190476 84 146 c 5
EndSplineSet
Validated: 1
EndChar

StartChar: hyphen
Encoding: 45 45 80
GlifName: hyphen
Width: 460
Flags: W
HStem: 213 170<50 410>
LayerCount: 2
Fore
SplineSet
50 213 m 1
 50 383 l 1
 410 383 l 1
 410 213 l 1
 50 213 l 1
EndSplineSet
Validated: 1
EndChar

StartChar: period
Encoding: 46 46 81
GlifName: period
Width: 286
Flags: W
HStem: -15 206<79.6924 206.308>
VStem: 40 206<24.6924 151.308>
LayerCount: 2
Fore
SplineSet
246 88 m 0
 246 59.3333333333 236 35 216 15 c 0
 196 -5 171.666666667 -15 143 -15 c 0
 114.333333333 -15 90 -5 70 15 c 0
 50 35 40 59.3333333333 40 88 c 0
 40 116.666666667 50 141 70 161 c 0
 90 181 114.333333333 191 143 191 c 0
 171.666666667 191 196 181 216 161 c 0
 236 141 246 116.666666667 246 88 c 0
EndSplineSet
Validated: 1
EndChar

StartChar: slash
Encoding: 47 47 82
GlifName: slash
Width: 449
Flags: W
LayerCount: 2
Fore
SplineSet
272.55078125 747 m 5
 434 693.76171875 l 5
 176.255859375 -87.861328125 l 5
 14.80859375 -34.62109375 l 5
 272.55078125 747 l 5
EndSplineSet
Validated: 1
EndChar

StartChar: colon
Encoding: 58 58 83
GlifName: colon
Width: 346
Flags: W
HStem: -1 206<110.312 235.688> 294 206<110.312 235.688>
VStem: 70 206<39.312 164.688 334.312 459.688>
LayerCount: 2
Fore
SplineSet
173 294 m 256
 145 294 120.833333333 304.166666667 100.5 324.5 c 0
 80.1666666667 344.833333333 70 369 70 397 c 256
 70 425 80.1666666667 449.166666667 100.5 469.5 c 0
 120.833333333 489.833333333 145 500 173 500 c 256
 201 500 225.166666667 489.833333333 245.5 469.5 c 0
 265.833333333 449.166666667 276 425 276 397 c 256
 276 369 265.833333333 344.833333333 245.5 324.5 c 0
 225.166666667 304.166666667 201 294 173 294 c 256
173 -1 m 256
 145 -1 120.833333333 9.16666666667 100.5 29.5 c 0
 80.1666666667 49.8333333333 70 74 70 102 c 256
 70 130 80.1666666667 154.166666667 100.5 174.5 c 0
 120.833333333 194.833333333 145 205 173 205 c 256
 201 205 225.166666667 194.833333333 245.5 174.5 c 0
 265.833333333 154.166666667 276 130 276 102 c 256
 276 74 265.833333333 49.8333333333 245.5 29.5 c 0
 225.166666667 9.16666666667 201 -1 173 -1 c 256
EndSplineSet
Validated: 1
EndChar

StartChar: semicolon
Encoding: 59 59 84
GlifName: semicolon
Width: 353
Flags: W
HStem: 290 206<117.312 242.688>
VStem: 77 206<330.312 455.688> 94 180<17.0859 146>
LayerCount: 2
Fore
SplineSet
94 146 m 5xa0
 274 146 l 5
 274 44 238.666666667 -42.3333333333 168 -113 c 5
 28 -113 l 5
 72 -31.2858072917 94 55.0475260417 94 146 c 5xa0
180 290 m 0
 152 290 127.833333333 300.166666667 107.5 320.5 c 0
 87.1666666667 340.833333333 77 365 77 393 c 0
 77 421 87.1666666667 445.166666667 107.5 465.5 c 0
 127.833333333 485.833333333 152 496 180 496 c 0
 208 496 232.166666667 485.833333333 252.5 465.5 c 0
 272.833333333 445.166666667 283 421 283 393 c 0xc0
 283 365 272.833333333 340.833333333 252.5 320.5 c 0
 232.166666667 300.166666667 208 290 180 290 c 0
EndSplineSet
Validated: 1
EndChar

StartChar: less
Encoding: 60 60 85
GlifName: less
Width: 640
Flags: W
LayerCount: 2
Fore
SplineSet
520 548.98828125 m 1
 520 365.8984375 l 1
 342.854215547 293.454101562 l 1
 520 221.009765625 l 1
 520 37.919921875 l 1
 119 201.908203125 l 1
 119 385 l 1
 520 548.98828125 l 1
EndSplineSet
Validated: 1
EndChar

StartChar: equal
Encoding: 61 61 86
GlifName: equal
Width: 640
Flags: W
HStem: 112.5 170<120 540> 312.5 170<120 540>
VStem: 120 420<112.5 282.5 312.5 482.5>
LayerCount: 2
Fore
SplineSet
120 312.5 m 5
 120 482.5 l 5
 540 482.5 l 5
 540 312.5 l 5
 120 312.5 l 5
120 112.5 m 1
 120 282.5 l 1
 540 282.5 l 1
 540 112.5 l 1
 120 112.5 l 1
EndSplineSet
Validated: 1
EndChar

StartChar: greater
Encoding: 62 62 87
GlifName: greater
Width: 640
Flags: W
LayerCount: 2
Fore
SplineSet
119 548.98828125 m 1
 119 365.8984375 l 1
 296.145784453 293.454101562 l 1
 119 221.009765625 l 1
 119 37.919921875 l 1
 520 201.908203125 l 1
 520 385 l 1
 119 548.98828125 l 1
EndSplineSet
Validated: 9
EndChar

StartChar: question
Encoding: 63 63 88
GlifName: question
Width: 508
Flags: W
HStem: -15 206<175.692 302.308> 542 170<202.365 295.995>
VStem: 136 206<24.6924 151.308> 313 170<428.994 524.995>
LayerCount: 2
Fore
SplineSet
342 88 m 4xe0
 342 59.3333333333 332 35 312 15 c 4
 292 -5 267.666666667 -15 239 -15 c 4
 210.333333333 -15 186 -5 166 15 c 4
 146 35 136 59.3333333333 136 88 c 4
 136 116.666666667 146 141 166 161 c 4
 186 181 210.333333333 191 239 191 c 4
 267.666666667 191 292 181 312 161 c 4
 332 141 342 116.666666667 342 88 c 4xe0
248 712 m 4
 312.666666667 712 368 689 414 643 c 4
 460 597 483 541.666666667 483 477 c 4
 482.96484375 431.670572917 470.719401042 389.888346354 446.263671875 351.653320312 c 4
 421.807291666 313.418945312 388.990234375 284.345052083 347.8125 264.431640625 c 4
 336.861328125 259.136067708 328.877278646 251.658854167 323.860351562 242 c 4
 319.641601562 233.876302083 317.521484375 224.209635417 317.5 213 c 5
 147.5 213 l 5
 147.527994792 255.420572917 159.232096355 295.586914063 182.612304688 333.499023438 c 4
 205.991861979 371.410481771 236.616536458 399.521809896 274.486328125 417.833007812 c 4
 286.88671875 423.829101563 296.292643229 431.551432292 302.704101562 441 c 4
 309.521809895 451.047526041 312.953776041 463.047526041 313 477 c 4xd0
 313 496.333333333 307 512 295 524 c 4
 283 536 267.333333333 542 248 542 c 4
 230.673177083 541.930338541 216.063802083 536.508463541 204.171875 525.734375 c 4
 192.280598959 514.9609375 185.400390625 501.012044271 183.53125 483.887695312 c 5
 15.185546875 507.548828125 l 5
 22.8489583333 566.001302083 48.8291015625 614.677734375 93.1259765625 653.578125 c 4
 137.422851562 692.478515625 189.047526041 711.952473959 248 712 c 4
EndSplineSet
Validated: 1
EndChar

StartChar: at
Encoding: 64 64 89
GlifName: at
Width: 973
Flags: W
HStem: -209.5 120<366.314 549.44> 16 139<425.433 546.647> 349 139<425.315 547.685> 593.5 120<365.955 607.047>
VStem: 25 120<131.455 372.545> 250.5 139<190.813 313.185> 583.5 139<17.0545 36.9395 190.698 313.068> 828 120<131.126 372.196>
LayerCount: 2
Fore
SplineSet
486.5 713.5 m 0
 547.698567708 713.5 606.568033854 701.790039063 663.108398438 678.370117188 c 0
 719.648763021 654.950846355 769.555989583 621.604166667 812.830078125 578.330078125 c 0
 856.106119792 535.054036458 889.454427083 485.145833333 912.875 428.60546875 c 0
 936.296223959 372.064453125 948.004557292 313.195963541 948 252 c 0
 947.995442708 190.397135417 936.229492187 131.2265625 912.702148438 74.48828125 c 0
 889.174153646 17.7493489583 855.589192708 -32.1471354167 811.947265625 -75.201171875 c 0
 786.459635416 -100.345703125 755.285807291 -112.920572917 718.42578125 -112.92578125 c 0
 681.16796875 -112.930989583 649.365885417 -99.759765625 623.01953125 -73.412109375 c 0
 596.673177083 -47.0638020833 583.5 -15.259765625 583.5 22 c 2
 583.5 36.939453125 l 1
 552.619791667 22.9850260417 520.286458333 16.0052083333 486.5 16 c 0
 421.332682292 15.9895833333 365.707682292 39.02734375 319.625 85.11328125 c 0
 273.541666667 131.19921875 250.5 186.828125 250.5 252 c 0
 250.5 317.169270833 273.541015625 372.794921875 319.623046875 418.876953125 c 0
 365.705078125 464.958984375 421.330729167 488 486.5 488 c 0
 551.669270833 488 607.294921875 464.958984375 653.376953125 418.876953125 c 0
 699.458984375 372.794921875 722.5 317.169270833 722.5 252 c 2
 722.5 22 l 2
 722.5 19.8203125 723.012044271 18.1536458333 724.036132812 17 c 0
 725.189778645 15.6998697917 726.993489583 15.05078125 729.447265625 15.052734375 c 0
 731.427083334 15.0540364583 733.088541667 15.76171875 734.431640625 17.17578125 c 0
 796.796223958 82.858723958 827.985677083 161.133463541 828 252 c 0
 828.009765625 313.84375 812.78125 370.988606771 782.314453125 423.434570312 c 0
 766.261067708 451.069335937 747.15625 475.652669271 725 497.184570312 c 4
 705.107421875 516.516601563 682.754557291 533.388997396 657.94140625 547.801757812 c 0
 605.493489583 578.267252604 548.346354167 593.5 486.5 593.5 c 0
 424.654947917 593.5 367.509765625 578.266927083 315.064453125 547.80078125 c 0
 262.619791667 517.335286458 221.164713542 475.880208333 190.69921875 423.435546875 c 0
 160.233072917 370.990234375 145 313.845052083 145 252 c 0
 145 190.154947917 160.232747396 133.009765625 190.698242188 80.564453125 c 0
 205.965169271 54.283203125 223.991861979 30.76171875 244.778320312 10 c 0
 265.471679687 -10.6692708333 288.900716146 -28.603515625 315.065429688 -43.802734375 c 0
 367.510091146 -74.2688802083 424.654947917 -89.5013020833 486.5 -89.5 c 0
 507.678385417 -89.5 528.993489583 -87.4524739583 550.4453125 -83.357421875 c 1
 581.5234375 -199.349609375 l 1
 549.657552083 -206.106770833 517.983072917 -209.490234375 486.5 -209.5 c 0
 425.3125 -209.518880208 366.447591146 -197.815755208 309.905273438 -174.390625 c 0
 253.363606771 -150.965494792 203.451822917 -117.611979167 160.169921875 -74.330078125 c 0
 116.895833333 -31.0559895833 83.5491536458 18.8512369792 60.1298828125 75.3916015625 c 0
 36.7099609375 131.931966146 25 190.801432292 25 252 c 0
 25 313.198567708 36.7099609375 372.068033854 60.1298828125 428.608398438 c 0
 83.5491536458 485.148763021 116.895833333 535.055989583 160.169921875 578.330078125 c 0
 203.444010417 621.604166667 253.351236979 654.950846355 309.891601562 678.370117188 c 0
 366.431966146 701.790039063 425.301432292 713.5 486.5 713.5 c 0
486.5 349 m 0
 459.714192708 349 436.851236979 339.529622396 417.911132812 320.588867188 c 0
 398.970377604 301.648763021 389.5 278.785807292 389.5 252 c 0
 389.5 225.214192708 398.970377604 202.351236979 417.911132812 183.411132812 c 0
 436.851236979 164.470377604 459.714192708 155 486.5 155 c 0
 513.285807292 155 536.148763021 164.470377604 555.088867188 183.411132812 c 0
 574.029622396 202.351236979 583.5 225.214192708 583.5 252 c 0
 583.5 278.785807292 574.029622396 301.648763021 555.088867188 320.588867188 c 0
 536.148763021 339.529622396 513.285807292 349 486.5 349 c 0
EndSplineSet
Validated: 33
EndChar

StartChar: braceleft
Encoding: 123 123 90
GlifName: braceleft
Width: 402
Flags: W
VStem: 132 170<94.1842 248.493 451.507 607.815>
LayerCount: 2
Fore
SplineSet
352 -100 m 1
 280.666666667 -100 226.166666667 -75.8333333333 188.5 -27.5 c 0
 150.833333333 20.8333333333 132 92.6666666667 132 188 c 0
 132 218 126 238.333333333 114 249 c 0
 102 259.666666667 80.6666666667 265 50 265 c 5
 50 435 l 5
 80.6666666667 435 102 440.333333333 114 451 c 0
 126 461.666666667 132 482 132 512 c 0
 132 607.333333333 150.833333333 679.166666667 188.5 727.5 c 0
 226.166666667 775.833333333 280.666666667 800 352 800 c 1
 352 630 l 1
 331.333333333 630 317.833333333 622.833333333 311.5 608.5 c 0
 305.166666667 594.166666667 302 562.333333333 302 513 c 0
 302 451 280.333333333 404 237 372 c 0
 225.559136462 363.55136231 212.793849 356.218028977 198.704137615 350 c 1
 212.793849 343.781971023 225.559136462 336.44863769 237 328 c 0
 280.333333333 296 302 249 302 187 c 0
 302 139 305.166666667 107.833333333 311.5 93.5 c 0
 317.833333333 79.1666666667 331.333333333 71.3333333333 352 70 c 1
 352 -100 l 1
EndSplineSet
Validated: 1
EndChar

StartChar: bar
Encoding: 124 124 91
GlifName: bar
Width: 290
Flags: W
VStem: 60 170<-220 790>
LayerCount: 2
Fore
SplineSet
60 790 m 1
 230 790 l 1
 230 -220 l 1
 60 -220 l 1
 60 790 l 1
EndSplineSet
Validated: 1
EndChar

StartChar: braceright
Encoding: 125 125 92
GlifName: braceright
Width: 402
Flags: W
VStem: 100 170<94.1842 248.493 451.507 607.815>
LayerCount: 2
Fore
SplineSet
50 -100 m 1
 121.333333333 -100 175.833333333 -75.8333333333 213.5 -27.5 c 0
 251.166666667 20.8333333333 270 92.6666666667 270 188 c 0
 270 218 276 238.333333333 288 249 c 0
 300 259.666666667 321.333333333 265 352 265 c 5
 352 435 l 5
 321.333333333 435 300 440.333333333 288 451 c 0
 276 461.666666667 270 482 270 512 c 0
 270 607.333333333 251.166666667 679.166666667 213.5 727.5 c 0
 175.833333333 775.833333333 121.333333333 800 50 800 c 1
 50 630 l 1
 70.6666666667 630 84.1666666667 622.833333333 90.5 608.5 c 0
 96.8333333333 594.166666667 100 562.333333333 100 513 c 0
 100 451 121.666666667 404 165 372 c 0
 176.440863538 363.55136231 189.206151 356.218028977 203.295862385 350 c 1
 189.206151 343.781971023 176.440863538 336.44863769 165 328 c 0
 121.666666667 296 100 249 100 187 c 0
 100 139 96.8333333333 107.833333333 90.5 93.5 c 0
 84.1666666667 79.1666666667 70.6666666667 71.3333333333 50 70 c 1
 50 -100 l 1
EndSplineSet
Validated: 9
EndChar

StartChar: asciitilde
Encoding: 126 126 93
GlifName: asciitilde
Width: 739
Flags: W
HStem: 145 170<480.307 548.631> 318 170<241.002 305.464>
LayerCount: 2
Fore
SplineSet
264 488 m 0
 365.333333333 488 432.5 447.5 465.5 366.5 c 0
 470.3515625 354.591145833 475.3515625 344.424479167 480.5 336 c 0
 489.055338541 322 501.555338541 315 518 315 c 0
 530.619140625 315.287109375 540.955729167 319.953776041 549.009765625 329 c 0
 559.677734375 340.982421875 566.341145833 360.649088541 569 388 c 1
 739 388 l 1
 737.666666667 322.666666667 717.333333333 266 678 218 c 0
 638.666666667 170 587.666666667 145.666666667 525 145 c 0
 434.134765625 144.255208333 367.634765625 187.421875 325.5 274.5 c 0
 315.2734375 295.634765625 306.106770833 308.421875 298 312.861328125 c 0
 291.744791667 316.287109375 284.411458333 318 276 318 c 0
 262.807291667 317.712890625 251.835611979 313.046223959 243.084960938 304 c 0
 231.493815105 292.017578125 223.798828125 272.350911459 220 245 c 1
 50 245 l 1
 51.3333333333 310.333333333 71.8333333333 367.166666667 111.5 415.5 c 0
 151.166666667 463.833333333 202 488 264 488 c 0
EndSplineSet
Validated: 33
EndChar

StartChar: exclamdown
Encoding: 161 161 94
GlifName: exclamdown
Width: 326
Flags: W
HStem: 306 206<99.6924 226.308>
VStem: 60 206<345.692 472.308>
LayerCount: 2
Fore
SplineSet
163 306 m 0
 191.666666667 306 216 316 236 336 c 0
 256 356 266 380.333333333 266 409 c 0
 266 437.666666667 256 462 236 482 c 0
 216 502 191.666666667 512 163 512 c 0
 134.333333333 512 110 502 90 482 c 0
 70 462 60 437.666666667 60 409 c 0
 60 380.333333333 70 356 90 336 c 0
 110 316 134.333333333 306 163 306 c 0
78 -204 m 1
 248 -204 l 1
 248 245 l 1
 78 245 l 1
 78 -204 l 1
EndSplineSet
Validated: 9
EndChar

StartChar: cent
Encoding: 162 162 95
GlifName: cent
Width: 474
Flags: W
HStem: 0 21G<221.854 321.854> 680 20G<221.854 321.854>
VStem: 20 170<291.222 408.778> 221.854 100<0 94.4258 280.343 419.657 605.574 700>
LayerCount: 2
Fore
SplineSet
321.853515625 609.263406266 m 1
 377.293359672 601.426849763 425.762760713 576.759620591 467.26171875 535.26171875 c 1
 347.0546875 415.0546875 l 1
 339.340271755 422.768544108 330.93988113 428.826168753 321.853515625 433.227561434 c 1
 321.853515625 266.771974954 l 1
 330.940169422 271.173405865 339.340560047 277.231185047 347.0546875 284.9453125 c 1
 467.26171875 164.73828125 l 1
 425.763667615 123.240230115 377.294266573 98.5729727499 321.853515625 90.7365091556 c 1
 321.853515625 0 l 1
 221.853515625 0 l 1
 221.853515625 94.4258310318 l 1
 174.797550597 104.945955581 133.092146951 128.383438987 96.7373046875 164.73828125 c 0
 45.5791015625 215.896484375 20 277.650390625 20 350 c 0
 20 422.348958333 45.5791015625 484.102864583 96.7373046875 535.26171875 c 0
 133.092146951 571.616561013 174.797550597 595.054044419 221.853515625 605.574168968 c 1
 221.853515625 700 l 1
 321.853515625 700 l 1
 321.853515625 609.263406266 l 1
221.853515625 419.656505681 m 1
 220.188031431 418.194034239 218.552289243 416.659769325 216.946289062 415.053710938 c 0
 198.982096354 397.089518229 190 375.404947917 190 350 c 0
 190 324.595052083 198.982096354 302.910481771 216.946289062 284.946289062 c 0
 218.552289243 283.340230675 220.188031431 281.805965761 221.853515625 280.343494319 c 1
 221.853515625 419.656505681 l 1
EndSplineSet
Validated: 1
EndChar

StartChar: sterling
Encoding: 163 163 96
GlifName: sterling
Width: 613
Flags: W
HStem: 0 180<40 85.4043 275.879 583> 252 180<40 105 285 493> 535 180<298.793 389.207>
VStem: 105 180<199.596 252 432 520.813>
LayerCount: 2
Fore
SplineSet
583 180 m 1
 583 0 l 1
 40 0 l 1
 40 180 l 1
 58 180 73.3333333333 186.333333333 86 199 c 0
 98.6666666667 211.666666667 105 227 105 245 c 2
 105 252 l 1
 40 252 l 1
 40 432 l 1
 105 432 l 1
 105 476 l 2
 105 542 128.333333333 598.333333333 175 645 c 0
 221.666666667 691.666666667 278 715 344 715 c 0
 410 715 466.333333333 691.666666667 513 645 c 0
 559.666666667 598.333333333 583 542 583 476 c 1
 403 476 l 1
 403 492 397.166666667 505.833333333 385.5 517.5 c 0
 373.833333333 529.166666667 360 535 344 535 c 0
 328 535 314.166666667 529.166666667 302.5 517.5 c 0
 290.833333333 505.833333333 285 492 285 476 c 2
 285 432 l 1
 493 432 l 1
 493 252 l 1
 285 252 l 1
 285 245 l 2
 284.887985125 222.920623589 281.847620542 201.253956923 275.87890625 180 c 1
 583 180 l 1
EndSplineSet
Validated: 1
EndChar

StartChar: currency
Encoding: 164 164 97
GlifName: currency
Width: 645
Flags: W
HStem: 124 170<281.509 363.889> 406 170<281.509 363.889>
VStem: 96.6992 170<308.81 391.19> 378.699 170<308.81 391.19>
LayerCount: 2
Fore
SplineSet
362.296875 389.59765625 m 0
 351.361979167 400.532552083 338.162760417 406 322.69921875 406 c 0
 307.235026042 406 294.035807292 400.532552083 283.1015625 389.59765625 c 0
 272.166666667 378.662760417 266.69921875 365.463541667 266.69921875 350 c 0
 266.69921875 334.536458333 272.166666667 321.337239583 283.1015625 310.40234375 c 0
 294.035807292 299.467447917 307.235026042 294 322.69921875 294 c 0
 338.162760417 294 351.361979167 299.467447917 362.296875 310.40234375 c 0
 373.231770833 321.337239583 378.69921875 334.536458333 378.69921875 350 c 0
 378.69921875 365.463541667 373.231770833 378.662760417 362.296875 389.59765625 c 0
464.86328125 612.30078125 m 1
 585 492.1640625 l 1
 531.39491922 438.558147893 l 1
 542.931118907 411.42802126 548.69921875 381.908638629 548.69921875 350 c 0
 548.69921875 318.091361371 542.931118907 288.57197874 531.39491922 261.441852107 c 1
 585 207.8359375 l 1
 464.86328125 87.69921875 l 1
 411.257951695 141.304548305 l 1
 384.127664394 129.768182768 354.608086745 124 322.69921875 124 c 0
 290.790350755 124 261.270773106 129.768182768 234.140485805 141.304548305 c 1
 180.53515625 87.69921875 l 1
 60.3984375 207.8359375 l 1
 114.00351828 261.441852107 l 1
 102.467318593 288.57197874 96.69921875 318.091361371 96.69921875 350 c 0
 96.69921875 381.908638629 102.467318593 411.42802126 114.00351828 438.558147893 c 1
 60.3984375 492.1640625 l 1
 180.53515625 612.30078125 l 1
 234.140485805 558.695451695 l 1
 261.270773106 570.231817232 290.790350755 576 322.69921875 576 c 0
 354.608086745 576 384.127664394 570.231817232 411.257951695 558.695451695 c 1
 464.86328125 612.30078125 l 1
EndSplineSet
Validated: 1
EndChar

StartChar: yen
Encoding: 165 165 98
GlifName: yen
Width: 616
Flags: W
HStem: 0 21G<223.5 393.5> 61 132<70 223.5 393.5 545> 244 132<70 173.177 442.823 545> 680 20G<10 210.105 405.895 606>
VStem: 223.5 170<0 61 193 244>
LayerCount: 2
Fore
SplineSet
70 244 m 1
 70 376 l 1
 173.176755448 376 l 1
 10 700 l 1
 200 700 l 1
 308 486.238341969 l 1
 416 700 l 1
 606 700 l 1
 442.823244552 376 l 1
 545 376 l 1
 545 244 l 1
 393.5 244 l 1
 393.5 193 l 1
 545 193 l 1
 545 61 l 1
 393.5 61 l 1
 393.5 0 l 1
 223.5 0 l 1
 223.5 61 l 1
 70 61 l 1
 70 193 l 1
 223.5 193 l 1
 223.5 244 l 1
 70 244 l 1
EndSplineSet
Validated: 1
EndChar

StartChar: brokenbar
Encoding: 166 166 99
GlifName: brokenbar
Width: 370
Flags: W
VStem: 100 170<-220 220 350 790>
LayerCount: 2
Fore
SplineSet
100 -220 m 1
 100 220 l 1
 270 220 l 1
 270 -220 l 1
 100 -220 l 1
100 350 m 1
 100 790 l 1
 270 790 l 1
 270 350 l 1
 100 350 l 1
EndSplineSet
Validated: 1
EndChar

StartChar: section
Encoding: 167 167 100
GlifName: section
Width: 422
Flags: W
HStem: -91 112<158.912 263.088> 139 112<161.597 260.403> 369 112<161.597 260.403> 599 112<158.912 263.088>
VStem: 30 112<38.5332 80 267.865 352.182 497.583 582.135> 280 112<37.8652 122.417 267.347 352.135 540 581.467>
LayerCount: 2
Fore
SplineSet
211 711 m 0
 263 711 306.166666667 694.5 340.5 661.5 c 0
 374.833333333 628.5 392 588 392 540 c 1
 280 540 l 1
 280 556.666666667 273.666666667 570.666666667 261 582 c 0
 248.333333333 593.333333333 231.666666667 599 211 599 c 0
 190.333333333 599 173.666666667 593.333333333 161 582 c 0
 148.333333333 570.666666667 142 556.666666667 142 540 c 0
 142 523.333333333 148.333333333 509.333333333 161 498 c 0
 173.666666667 486.666666667 190.333333333 481 211 481 c 0
 263 481 306.166666667 464.5 340.5 431.5 c 0
 374.833333333 398.5 392 358 392 310 c 0
 392 270.618037105 380.444247891 236.284703771 357.332743673 207 c 0
 354.097883852 202.901092776 350.636636386 198.901092776 346.949001273 195 c 1
 350.935937869 190.782280763 354.658246646 186.448947429 358.115927603 182 c 0
 380.705309201 152.93457365 392 118.93457365 392 80 c 0
 392 32 374.833333333 -8.5 340.5 -41.5 c 0
 306.166666667 -74.5 263 -91 211 -91 c 0
 159 -91 115.833333333 -74.5 81.5 -41.5 c 0
 47.1666666667 -8.5 30 32 30 80 c 1
 142 80 l 1
 142 63.3333333333 148.333333333 49.3333333333 161 38 c 0
 173.666666667 26.6666666667 190.333333333 21 211 21 c 0
 231.666666667 21 248.333333333 26.6666666667 261 38 c 0
 273.666666667 49.3333333333 280 63.3333333333 280 80 c 0
 280 96.6666666667 273.666666667 110.666666667 261 122 c 0
 248.333333333 133.333333333 231.666666667 139 211 139 c 0
 159 139 115.833333333 155.5 81.5 188.5 c 0
 47.1666666667 221.5 30 262 30 310 c 0
 30 348.488923209 41.037609419 382.155589875 63.1128282569 411 c 0
 66.7865337429 415.800218222 70.7659238995 420.466884889 75.0509987268 425 c 1
 71.0640621307 429.217719237 67.3417533543 433.551052571 63.8840723975 438 c 0
 41.2946907992 467.06542635 30 501.06542635 30 540 c 0
 30 588 47.1666666667 628.5 81.5 661.5 c 0
 115.833333333 694.5 159 711 211 711 c 0
211 369 m 0
 190.333333333 369 173.666666667 363.333333333 161 352 c 0
 148.333333333 340.666666667 142 326.666666667 142 310 c 0
 142 293.333333333 148.333333333 279.333333333 161 268 c 0
 173.666666667 256.666666667 190.333333333 251 211 251 c 0
 231.666666667 251 248.333333333 256.666666667 261 268 c 0
 273.666666667 279.333333333 280 293.333333333 280 310 c 0
 280 326.666666667 273.666666667 340.666666667 261 352 c 0
 248.333333333 363.333333333 231.666666667 369 211 369 c 0
EndSplineSet
Validated: 1
EndChar

StartChar: dieresis
Encoding: 168 168 101
GlifName: dieresis
Width: 526
Flags: W
HStem: 569 176<70.9629 185.037 340.963 455.037>
VStem: 40 176<599.963 714.037> 310 176<599.963 714.037>
LayerCount: 2
Fore
SplineSet
128 745 m 4
 152 745 172.666666667 736.333333333 190 719 c 4
 207.333333333 701.666666667 216 681 216 657 c 4
 216 633 207.333333333 612.333333333 190 595 c 4
 172.666666667 577.666666667 152 569 128 569 c 4
 104 569 83.3333333333 577.666666667 66 595 c 4
 48.6666666667 612.333333333 40 633 40 657 c 4
 40 681 48.6666666667 701.666666667 66 719 c 4
 83.3333333333 736.333333333 104 745 128 745 c 4
398 745 m 4
 422 745 442.666666667 736.333333333 460 719 c 4
 477.333333333 701.666666667 486 681 486 657 c 4
 486 633 477.333333333 612.333333333 460 595 c 4
 442.666666667 577.666666667 422 569 398 569 c 4
 374 569 353.333333333 577.666666667 336 595 c 4
 318.666666667 612.333333333 310 633 310 657 c 4
 310 681 318.666666667 701.666666667 336 719 c 4
 353.333333333 736.333333333 374 745 398 745 c 4
EndSplineSet
Validated: 1
EndChar

StartChar: copyright
Encoding: 169 169 102
GlifName: copyright
Width: 773
Flags: W
HStem: -11 120<286.113 486.887> 153 120<331.238 456.817> 428 120<331.238 457.435> 592 120<286.113 486.887>
VStem: 25 120<250.113 450.887> 187.554 119.869<296.75 404.25> 628 120<250.113 450.887>
LayerCount: 2
Fore
SplineSet
386.5 712 m 0
 451.967447917 712 512.459309896 695.875 567.975585938 663.625 c 0
 623.491861979 631.375 667.375 587.491861979 699.625 531.975585938 c 0
 731.875 476.459309896 748 415.967447917 748 350.5 c 0
 748 285.032552083 731.875 224.540690104 699.625 169.024414062 c 0
 667.375 113.508138021 623.491861979 69.625 567.975585938 37.375 c 0
 512.459309896 5.125 451.967447917 -11 386.5 -11 c 0
 321.032552083 -11 260.540690104 5.125 205.024414062 37.375 c 0
 149.508138021 69.625 105.625 113.508138021 73.375 169.024414062 c 0
 41.125 224.540690104 25 285.032552083 25 350.5 c 0
 25 415.967447917 41.125 476.459309896 73.375 531.975585938 c 0
 105.625 587.491861979 149.508138021 631.375 205.024414062 663.625 c 0
 260.540690104 695.875 321.032552083 712 386.5 712 c 0
386.5 592 m 0
 319.811197917 592 262.888997396 568.422200521 215.733398438 521.266601562 c 0
 168.577799479 474.111002604 145 417.188802083 145 350.5 c 0
 145 283.811197917 168.577799479 226.888997396 215.733398438 179.733398438 c 0
 262.888997396 132.577799479 319.811197917 109 386.5 109 c 0
 453.188802083 109 510.111002604 132.577799479 557.266601562 179.733398438 c 0
 604.422200521 226.888997396 628 283.811197917 628 350.5 c 0
 628 417.188802083 604.422200521 474.111002604 557.266601562 521.266601562 c 0
 510.111002604 568.422200521 453.188802083 592 386.5 592 c 0
385.053710938 548 m 0
 439.590820313 548 486.142252604 528.717773437 524.708007812 490.153320312 c 1
 439.723632812 405.30078125 l 1
 424.590820312 420.43359375 406.323893229 428 384.922851562 428 c 0
 363.521809895 428 345.254882812 420.43359375 330.122070312 405.30078125 c 0
 314.989257812 390.16796875 307.422851562 371.901041667 307.422851562 350.5 c 0
 307.422851562 329.098958333 314.989257812 310.83203125 330.122070312 295.69921875 c 0
 345.254882812 280.56640625 363.521809895 273 384.922851562 273 c 0
 406.244466146 273.188802083 424.396809896 280.869791667 439.379882812 296.04296875 c 1
 524.3515625 211.203125 l 1
 485.942708333 172.597005208 439.510091146 153.195963541 385.053710938 153 c 0
 330.515299479 153 283.964192708 172.282226563 245.400390625 210.846679688 c 0
 206.8359375 249.411132813 187.553710938 295.962239583 187.553710938 350.5 c 0
 187.553710938 405.037760417 206.8359375 451.588867187 245.400390625 490.153320312 c 0
 283.964192708 528.717773437 330.515299479 548 385.053710938 548 c 0
EndSplineSet
Validated: 1
EndChar

StartChar: ordfeminine
Encoding: 170 170 103
GlifName: ordfeminine
Width: 359
Flags: W
HStem: 392.6 100.8<132.195 215.78> 606.2 100.8<132.195 216.066> 679.8 20G<243.8 332.6>
VStem: 14 103.8<508.626 590.974> 230.6 102<510.417 589.183> 243.8 88.7998<399.8 419.594 677.022 699.8>
LayerCount: 2
Fore
SplineSet
243.799804688 699.799804688 m 1xb4
 332.599609375 699.799804688 l 1xb4
 332.599609375 399.799804688 l 1
 243.799804688 399.799804688 l 1
 243.799804688 419.593669832 l 1
 223.036134567 401.597629527 196.436199671 392.599609375 164 392.599609375 c 0
 121.199869792 392.599609375 85.4996744792 407.799804687 56.8994140625 438.200195312 c 0
 28.2998046875 468.599934896 14 505.799804688 14 549.799804688 c 0
 14 593.799804688 28.2998046875 630.999674479 56.8994140625 661.399414062 c 0
 85.4996744792 691.799804687 121.199869792 707 164 707 c 0xd4
 195.563338844 707 222.16327374 697.007490172 243.799804688 677.022470516 c 1
 243.799804688 699.799804688 l 1xb4
174.200195312 606.200195312 m 0xd8
 158.599934896 606.200195312 145.299804688 600.700195312 134.299804688 589.700195312 c 0
 123.299804688 578.700195312 117.799804688 565.400065104 117.799804688 549.799804688 c 0
 117.799804688 534.199544271 123.299804688 520.899414062 134.299804688 509.899414062 c 0
 145.299804688 498.899414062 158.599934896 493.399414062 174.200195312 493.399414062 c 0
 189.799804687 493.399414062 203.099609375 498.899414062 214.099609375 509.899414062 c 0
 225.099609375 520.899414062 230.599609375 534.199544271 230.599609375 549.799804688 c 0
 230.599609375 565.400065104 225.099609375 578.700195312 214.099609375 589.700195312 c 0
 203.099609375 600.700195312 189.799804687 606.200195312 174.200195312 606.200195312 c 0xd8
EndSplineSet
Validated: 1
EndChar

StartChar: guillemotleft
Encoding: 171 171 104
GlifName: guillemotleft
Width: 820
Flags: W
VStem: 51.7852 240.416<177.792 418.208> 394.785 240.416<177.792 418.208>
LayerCount: 2
Fore
SplineSet
298.005859375 544.220703125 m 5
 418.21484375 424.012695312 l 5
 292.201171875 298 l 5
 418.21484375 171.987304688 l 5
 298.005859375 51.779296875 l 5
 51.78515625 298 l 5
 298.005859375 544.220703125 l 5
641.005859375 544.220703125 m 5
 761.21484375 424.012695312 l 5
 635.201171875 298 l 5
 761.21484375 171.987304688 l 5
 641.005859375 51.779296875 l 5
 394.78515625 298 l 5
 641.005859375 544.220703125 l 5
EndSplineSet
Validated: 1
EndChar

StartChar: logicalnot
Encoding: 172 172 105
GlifName: logicalnot
Width: 640
Flags: W
HStem: 239 170<130 330>
VStem: 330 170<135 239>
LayerCount: 2
Fore
SplineSet
130 239 m 1
 130 409 l 1
 500 409 l 5
 500 135 l 5
 330 135 l 1
 330 239 l 1
 130 239 l 1
EndSplineSet
Validated: 1
EndChar

StartChar: uni00AD
Encoding: 173 173 106
GlifName: uni00A_D_
Width: 400
Flags: W
HStem: 213 170<30 370>
LayerCount: 2
Fore
SplineSet
30 213 m 5
 30 383 l 5
 370 383 l 1
 370 213 l 1
 30 213 l 5
EndSplineSet
Validated: 1
EndChar

StartChar: registered
Encoding: 174 174 107
GlifName: registered
Width: 608
Flags: W
HStem: 144 100<217.373 390.627> 499.081 77.9189<278.581 328.678> 612 100<217.373 390.627>
VStem: 20 100<341.373 514.627> 197 81.5811<286 373.3 451.219 499.081> 337.567 81.918<455.337 495.073> 488 100<341.373 514.627>
LayerCount: 2
Fore
SplineSet
304 712 m 0
 382.666666667 712 449.666666667 684.333333333 505 629 c 0
 560.333333333 573.666666667 588 506.666666667 588 428 c 0
 588 349.333333333 560.333333333 282.333333333 505 227 c 0
 449.666666667 171.666666667 382.666666667 144 304 144 c 0
 225.333333333 144 158.333333333 171.666666667 103 227 c 0
 47.6666666667 282.333333333 20 349.333333333 20 428 c 0
 20 506.666666667 47.6666666667 573.666666667 103 629 c 0
 158.333333333 684.333333333 225.333333333 712 304 712 c 0
304 612 m 0
 253.333333333 612 210 594 174 558 c 0
 138 522 120 478.666666667 120 428 c 0
 120 377.333333333 138 334 174 298 c 0
 210 262 253.333333333 244 304 244 c 0
 354.666666667 244 398 262 434 298 c 0
 470 334 488 377.333333333 488 428 c 0
 488 478.666666667 470 522 434 558 c 0
 398 594 354.666666667 612 304 612 c 0
197 577 m 1
 317.635742188 577 l 2
 345.760742188 577 369.766927084 567.056315104 389.654296875 547.168945312 c 0
 409.541666666 527.281575521 419.485351562 503.275390625 419.485351562 475.150390625 c 0
 419.485351562 458.901242882 416.341601537 444.184446007 410.054101486 431 c 4
 403.464310401 417.181670926 393.421211469 405.04657978 379.924804688 394.594726562 c 1
 419.450195312 286 l 1
 331.147460938 286 l 1
 299.372070312 373.299804688 l 1
 278.581054688 373.299804688 l 1
 278.581054688 286 l 1
 197 286 l 1
 197 577 l 1
278.581054688 499.081054688 m 1
 278.581054688 451.21875 l 1
 307.635742188 451.21875 l 2
 316.097624539 451.21875 323.201701898 453.428785026 328.947974264 457.848855077 c 0
 334.694246629 462.268925128 337.567382812 468.036103644 337.567382812 475.150390625 c 0
 337.567382812 482.26423966 334.69423171 488.03114593 328.947929506 492.451109433 c 0
 323.201627302 496.871072936 316.097564863 499.081054688 307.635742188 499.081054688 c 2
 278.581054688 499.081054688 l 1
EndSplineSet
Validated: 1
EndChar

StartChar: macron
Encoding: 175 175 108
GlifName: macron
Width: 300
Flags: W
HStem: 549 151<-20 320>
LayerCount: 2
Fore
SplineSet
-20 549 m 1
 -20 700 l 1
 320 700 l 1
 320 549 l 1
 -20 549 l 1
EndSplineSet
Validated: 1
EndChar

StartChar: degree
Encoding: 176 176 109
GlifName: degree
Width: 387
Flags: W
HStem: 397.5 327
VStem: 30 327
LayerCount: 2
Fore
SplineSet
193.5 724.5 m 0
 238.619140625 724.5 277.149088542 708.529947917 309.08984375 676.58984375 c 0
 341.030273437 644.649414063 357.000325521 606.119466146 357 561 c 0
 357 515.880859375 341.029947917 477.350911458 309.08984375 445.41015625 c 0
 277.149414063 413.469726563 238.619466146 397.499674479 193.5 397.5 c 0
 148.380859375 397.5 109.850911458 413.470052083 77.91015625 445.41015625 c 0
 45.9697265625 477.350585937 29.9996744792 515.880533854 30 561 c 0
 30 606.119140625 45.9700520833 644.649088542 77.91015625 676.58984375 c 0
 109.850585937 708.530273437 148.380533854 724.500325521 193.5 724.5 c 0
193.5 584.5 m 0
 187.014648437 584.5 181.4765625 582.204752604 176.885742188 577.614257812 c 0
 172.294921875 573.0234375 169.999674479 567.485351563 170 561 c 0
 170 554.514648437 172.295247396 548.9765625 176.885742188 544.385742188 c 0
 181.4765625 539.794921875 187.014648437 537.499674479 193.5 537.5 c 0
 199.985351563 537.5 205.5234375 539.795247396 210.114257812 544.385742188 c 0
 214.705078125 548.9765625 217.000325521 554.514648437 217 561 c 0
 217 567.485351563 214.704752604 573.0234375 210.114257812 577.614257812 c 0
 205.5234375 582.205078125 199.985351563 584.500325521 193.5 584.5 c 0
EndSplineSet
Validated: 33
EndChar

StartChar: plusminus
Encoding: 177 177 110
GlifName: plusminus
Width: 640
Flags: W
HStem: 0 170<85 555> 308 170<100 235 405 540>
VStem: 235 170<178 308 478 608>
LayerCount: 2
Fore
SplineSet
85 0 m 1
 85 170 l 1
 555 170 l 1
 555 0 l 1
 85 0 l 1
100 308 m 1
 100 478 l 1
 235 478 l 1
 235 608 l 1
 405 608 l 1
 405 478 l 1
 540 478 l 1
 540 308 l 1
 405 308 l 1
 405 178 l 1
 235 178 l 1
 235 308 l 1
 100 308 l 1
EndSplineSet
Validated: 1
EndChar

StartChar: uni00B2
Encoding: 178 178 111
GlifName: uni00B_2
Width: 372
Flags: W
HStem: 380.199 102<191.366 324.3> 706 102<156.682 210.953>
VStem: 223.376 102.004<630.966 698.633>
LayerCount: 2
Fore
SplineSet
180 808 m 0
 218.767578125 808 252.689453125 794.342122396 281.765625 767.026367188 c 0
 310.841796875 739.711263021 325.379882812 707.069010417 325.379882812 669.099609375 c 0
 325.241861979 627.46484375 312.046223958 594.043619792 285.79296875 568.8359375 c 2
 191.366210938 482.19921875 l 1
 324.299804688 482.19921875 l 1
 324.299804688 380.19921875 l 1
 41.099609375 380.19921875 l 1
 41.099609375 482.19921875 l 1
 208.325195312 635.96875 l 2
 218.359049479 646.001953125 223.375976562 657.045572917 223.375976562 669.099609375 c 0
 223.375976562 680.423177084 219.360677083 689.413736979 211.330078125 696.071289062 c 0
 203.30078125 702.728190104 194.057291666 706.037760417 183.599609375 706 c 0
 173.29296875 705.961588541 164.196940105 702.880859375 156.311523438 696.7578125 c 0
 148.426106771 690.634114583 144.029622396 682.255208333 143.122070312 671.62109375 c 1
 42.99609375 691.083984375 l 1
 48.390625 724.739583333 64.0517578125 752.630533854 89.9794921875 774.756835938 c 0
 115.907226562 796.882486979 145.9140625 807.963541667 180 808 c 0
EndSplineSet
Validated: 1
EndChar

StartChar: uni00B3
Encoding: 179 179 112
GlifName: uni00B_3
Width: 355
Flags: W
HStem: 373.875 101.984<138.837 214.945> 479.329 20G<54.3612 139.471> 540.928 102<158.6 205.157> 705 102<145.72 209.407>
VStem: 217.1 102<479.046 534.863 649.3 699.097>
LayerCount: 2
Fore
SplineSet
179 807 m 0
 217 807 249.599934896 794.300130208 276.799804688 768.900390625 c 0
 303.999674479 743.5 317.599609375 712.799804688 317.599609375 676.799804688 c 0
 317.587239584 661.935872396 313.067382813 646.136067708 304.040039062 629.400390625 c 0
 297.635091146 617.524088542 288.959960938 605.177083333 278.014648438 592.359375 c 1
 288.530924479 580.368489583 297.028320313 568.715494792 303.506835938 557.400390625 c 0
 313.895507813 539.256510416 319.093098958 521.981445312 319.099609375 505.575195312 c 0
 319.099609375 469.305664063 305.317708333 438.2734375 277.75390625 412.478515625 c 0
 250.190755209 386.68359375 217.272786459 373.815755208 179 373.875 c 0
 146.278645833 373.925130208 116.505208333 383.559570312 89.6796875 402.778320312 c 0
 62.8541666667 421.997070312 46.0188802083 446.309244791 39.173828125 475.71484375 c 1
 138.40234375 499.329101562 l 1
 140.5390625 491.355794271 145.579752604 485.450846354 153.524414062 481.614257812 c 0
 161.469726562 477.777669271 170.361328125 475.859375 180.19921875 475.859375 c 0
 189.505208333 475.859375 197.981770833 478.890299479 205.62890625 484.952148438 c 0
 213.276041667 491.013346354 217.099609375 498.6875 217.099609375 507.974609375 c 0
 217.099609375 517.819661458 213.645833333 525.773111979 206.73828125 531.834960938 c 0
 199.830078125 537.896809896 190.583984375 540.927734375 179 540.927734375 c 2
 158.599609375 540.927734375 l 1
 158.599609375 642.927734375 l 1
 179 642.927734375 l 2
 189.899739583 642.927734375 198.724609375 645.947916667 205.474609375 651.98828125 c 0
 212.224609375 658.027994791 215.599609375 665.8984375 215.599609375 675.599609375 c 0
 215.599609375 684.800130208 211.899739583 692.000325521 204.5 697.200195312 c 0
 197.099609375 702.400065104 188.599609375 705 179 705 c 0
 166.580078125 705 156.979817709 702.495442708 150.19921875 697.486328125 c 0
 144.91796875 693.584635416 141.34765625 688.163411458 139.48828125 681.22265625 c 1
 40.529296875 705.9453125 l 1
 47.2298177083 735.118489583 63.8756510417 759.254231771 90.466796875 778.352539062 c 0
 117.057291666 797.450846354 146.568359375 807 179 807 c 0
EndSplineSet
Validated: 33
EndChar

StartChar: acute
Encoding: 180 180 113
GlifName: acute
Width: 302
Flags: W
HStem: 553.5 147<104 174>
VStem: -2 302
LayerCount: 2
Fore
SplineSet
-2 553.5 m 5
 104 700.5 l 5
 300 700.5 l 5
 174 553.5 l 5
 -2 553.5 l 5
EndSplineSet
Validated: 1
EndChar

StartChar: mu
Encoding: 181 181 114
GlifName: mu
Width: 578
Flags: W
HStem: -12 170<234.746 338.18> 0 21G<385 533> 480 20G<40 210 363 533>
VStem: 40 170<182.753 500> 40 148<-200 31.4486> 363 170<182.753 500>
LayerCount: 2
Fore
SplineSet
533 500 m 5xb4
 533 0 l 1
 385 0 l 1x74
 385 35.115204265 l 1
 368.023093047 3.70506808833 335.189759714 -12 286.5 -12 c 0
 242.095780702 -12 209.262447369 2.48286658693 188 31.4485997608 c 1
 188 -200 l 1
 40 -200 l 1xac
 40 500 l 1
 210 500 l 1
 210 244 l 2
 210 218.666666667 217.5 198 232.5 182 c 0
 247.5 166 265.5 158 286.5 158 c 0
 307.5 158 325.5 166 340.5 182 c 0
 355.5 198 363 218.666666667 363 244 c 2
 363 500 l 5
 533 500 l 5xb4
EndSplineSet
Validated: 1
EndChar

StartChar: paragraph
Encoding: 182 182 115
GlifName: paragraph
Width: 661
Flags: W
HStem: 680 20G<216.333 601>
VStem: 5 414<353.204 529.481> 282 137<-84 210> 464 137<-84 530>
LayerCount: 2
Fore
SplineSet
250 700 m 2xd0
 282 700 l 1
 601 700 l 1
 601 -84 l 1
 464 -84 l 1
 464 530 l 1
 419 530 l 1
 419 -84 l 1
 282 -84 l 1
 282 210 l 1xb0
 250 210 l 2
 182.666666667 210 125 234 77 282 c 0
 29 330 5 387.666666667 5 455 c 0
 5 522.333333333 29 580 77 628 c 0
 125 676 182.666666667 700 250 700 c 2xd0
EndSplineSet
Validated: 1
EndChar

StartChar: periodcentered
Encoding: 183 183 116
GlifName: periodcentered
Width: 266
Flags: W
HStem: 246 206<69.6924 196.308>
VStem: 30 206<285.692 412.308>
LayerCount: 2
Fore
SplineSet
236 349 m 0
 236 320.333333333 226 296 206 276 c 0
 186 256 161.666666667 246 133 246 c 0
 104.333333333 246 80 256 60 276 c 0
 40 296 30 320.333333333 30 349 c 0
 30 377.666666667 40 402 60 422 c 0
 80 442 104.333333333 452 133 452 c 0
 161.666666667 452 186 442 206 422 c 0
 226 402 236 377.666666667 236 349 c 0
EndSplineSet
Validated: 1
EndChar

StartChar: cedilla
Encoding: 184 184 117
GlifName: cedilla
Width: 254
Flags: W
HStem: -210 120<61.7453 141.124>
VStem: 151 120<-80.1243 15.6779>
LayerCount: 2
Fore
SplineSet
210.53125 82.66015625 m 1
 250.842447917 49.6529947917 270.998697917 7.099609375 271 -45 c 0
 271 -90.3333333333 254.833333333 -129.166666667 222.5 -161.5 c 0
 190.166666667 -193.833333333 151.333333333 -210 106 -210 c 0
 68.2623697917 -209.854817708 34.54296875 -198.141276041 4.841796875 -174.859375 c 1
 50.8294270833 -109.1796875 73.8216145833 -76.3430989583 73.818359375 -76.349609375 c 4
 82.6276041667 -85.4212239583 93.3548177083 -89.9713541667 106 -90 c 0
 118.666666667 -90 129.333333333 -85.6666666667 138 -77 c 0
 146.666666667 -68.3333333333 151 -57.6666666667 151 -45 c 0
 150.989583333 -33.6061197917 147.202473958 -23.6692708333 139.638671875 -15.189453125 c 0
 132.075520833 -6.70963541667 122.715494791 -1.775390625 111.55859375 -0.38671875 c 1
 210.53125 82.66015625 l 1
EndSplineSet
Validated: 33
EndChar

StartChar: uni00B9
Encoding: 185 185 118
GlifName: uni00B_9
Width: 279
Flags: W
VStem: 123 102<380 666.849>
LayerCount: 2
Fore
SplineSet
123 800 m 1
 225 800 l 1
 225 380 l 1
 123 380 l 1
 123 666.848632812 l 1
 69.0615234375 621.588867188 l 1
 3.49609375 699.724609375 l 1
 123 800 l 1
EndSplineSet
Validated: 1
EndChar

StartChar: ordmasculine
Encoding: 186 186 119
GlifName: ordmasculine
Width: 342
Flags: W
HStem: 392.6 102<130.281 211.319> 605 102<130.281 211.319>
VStem: 13.5996 102<509.281 590.319> 226 102<509.281 590.319>
LayerCount: 2
Fore
SplineSet
170.799804688 707 m 4
 214.209309896 707 251.26171875 691.65234375 281.95703125 660.95703125 c 4
 312.65234375 630.26171875 328 593.209309896 328 549.799804688 c 4
 328 506.390299479 312.65234375 469.337890625 281.95703125 438.642578125 c 4
 251.26171875 407.947265625 214.209309896 392.599609375 170.799804688 392.599609375 c 4
 127.390299479 392.599609375 90.337890625 407.947265625 59.642578125 438.642578125 c 4
 28.947265625 469.337890625 13.599609375 506.390299479 13.599609375 549.799804688 c 4
 13.599609375 593.209309896 28.947265625 630.26171875 59.642578125 660.95703125 c 4
 90.337890625 691.65234375 127.390299479 707 170.799804688 707 c 4
170.799804688 605 m 4
 155.556966146 605 142.546223958 599.610677083 131.767578125 588.83203125 c 4
 120.988932292 578.053385417 115.599609375 565.042643229 115.599609375 549.799804688 c 4
 115.599609375 534.556966146 120.988932292 521.546223958 131.767578125 510.767578125 c 4
 142.546223958 499.988932292 155.556966146 494.599609375 170.799804688 494.599609375 c 4
 186.042643229 494.599609375 199.053385417 499.988932292 209.83203125 510.767578125 c 4
 220.610677083 521.546223958 226 534.556966146 226 549.799804688 c 4
 226 565.042643229 220.610677083 578.053385417 209.83203125 588.83203125 c 4
 199.053385417 599.610677083 186.042643229 605 170.799804688 605 c 4
EndSplineSet
Validated: 1
EndChar

StartChar: guillemotright
Encoding: 187 187 120
GlifName: guillemotright
Width: 820
Flags: W
VStem: 177.799 240.416<177.792 418.208> 517.799 240.416<177.792 418.208>
LayerCount: 2
Fore
SplineSet
171.994140625 544.220703125 m 5
 51.78515625 424.012695312 l 5
 177.798828125 298 l 5
 51.78515625 171.987304688 l 5
 171.994140625 51.779296875 l 5
 418.21484375 298 l 5
 171.994140625 544.220703125 l 5
511.994140625 544.220703125 m 5
 391.78515625 424.012695312 l 5
 517.798828125 298 l 5
 391.78515625 171.987304688 l 5
 511.994140625 51.779296875 l 5
 758.21484375 298 l 5
 511.994140625 544.220703125 l 5
EndSplineSet
Validated: 9
EndChar

StartChar: onequarter
Encoding: 188 188 121
GlifName: onequarter
Width: 848
Flags: W
HStem: 0 21G<656.4 758.4> 64.7998 102<583.938 656.4 758.4 810.601> 680 20G<99.1649 225>
VStem: 123 102<280 566.849> 656.4 102<0 64.7998 166.8 279>
LayerCount: 2
Fore
SplineSet
593.4296875 420.263671875 m 1
 685.873046875 377.15625 l 1
 583.938476562 166.799804688 l 1
 656.400390625 166.799804688 l 1
 656.400390625 279 l 1
 758.400390625 279 l 1
 758.400390625 166.799804688 l 1
 810.600585938 166.799804688 l 1
 810.600585938 64.7998046875 l 1
 758.400390625 64.7998046875 l 1
 758.400390625 0 l 1
 656.400390625 0 l 1
 656.400390625 64.7998046875 l 1
 471.600585938 64.7998046875 l 1
 471.600585938 166.799804688 l 1
 593.4296875 420.263671875 l 1
575 697 m 5
 668.642578125 633.099609375 l 5
 225 12 l 5
 133.130859375 74.6484375 l 5
 575 697 l 5
123 700 m 1
 225 700 l 1
 225 280 l 1
 123 280 l 1
 123 566.848632812 l 1
 69.0615234375 521.588867188 l 1
 3.49609375 599.724609375 l 1
 123 700 l 1
EndSplineSet
Validated: 1
EndChar

StartChar: onehalf
Encoding: 189 189 122
GlifName: onehalf
Width: 877
Flags: W
HStem: 0.199219 102<696.366 829.3> 326 102<661.682 715.953> 680 20G<99.1649 225>
VStem: 123 102<280 566.849> 728.376 102.004<250.966 318.633>
LayerCount: 2
Fore
SplineSet
685 428 m 0
 723.767578125 428 757.689453125 414.342122396 786.765625 387.026367188 c 0
 815.841796875 359.711263021 830.379882812 327.069010417 830.379882812 289.099609375 c 0
 830.241861979 247.46484375 817.046223958 214.043619792 790.79296875 188.8359375 c 2
 696.366210938 102.19921875 l 1
 829.299804688 102.19921875 l 1
 829.299804688 0.19921875 l 1
 546.099609375 0.19921875 l 1
 546.099609375 102.19921875 l 1
 713.325195312 255.96875 l 2
 723.359049479 266.001953125 728.375976562 277.045572917 728.375976562 289.099609375 c 0
 728.375976562 300.423177084 724.360677083 309.413736979 716.330078125 316.071289062 c 0
 708.30078125 322.728190104 699.057291666 326.037760417 688.599609375 326 c 0
 678.29296875 325.961588541 669.196940105 322.880859375 661.311523438 316.7578125 c 0
 653.426106771 310.634114583 649.029622396 302.255208333 648.122070312 291.62109375 c 1
 547.99609375 311.083984375 l 1
 553.390625 344.739583333 569.051757813 372.630533854 594.979492188 394.756835938 c 0
 620.907226563 416.882486979 650.9140625 427.963541667 685 428 c 0
575 697 m 5
 668.642578125 633.099609375 l 5
 225 12 l 5
 133.130859375 74.6484375 l 5
 575 697 l 5
123 700 m 1
 225 700 l 1
 225 280 l 1
 123 280 l 1
 123 566.848632812 l 1
 69.0615234375 521.588867188 l 1
 3.49609375 599.724609375 l 1
 123 700 l 1
EndSplineSet
Validated: 1
EndChar

StartChar: threequarters
Encoding: 190 190 123
GlifName: threequarters
Width: 924
Flags: W
HStem: 0 21G<732.4 834.4> 64.7998 102<659.938 732.4 834.4 886.601> 273.875 101.984<138.837 214.945> 440.928 102<158.6 205.157> 605 102<145.72 209.407>
VStem: 217.1 102<379.046 434.863 549.3 599.097> 732.4 102<0 64.7998 166.8 279>
LayerCount: 2
Fore
SplineSet
669.4296875 420.263671875 m 1
 761.873046875 377.15625 l 1
 659.938476562 166.799804688 l 1
 732.400390625 166.799804688 l 1
 732.400390625 279 l 1
 834.400390625 279 l 1
 834.400390625 166.799804688 l 1
 886.600585938 166.799804688 l 1
 886.600585938 64.7998046875 l 1
 834.400390625 64.7998046875 l 1
 834.400390625 0 l 1
 732.400390625 0 l 1
 732.400390625 64.7998046875 l 1
 547.600585938 64.7998046875 l 1
 547.600585938 166.799804688 l 1
 669.4296875 420.263671875 l 1
651 697 m 5
 744.642578125 633.099609375 l 5
 301 12 l 5
 209.130859375 74.6484375 l 5
 651 697 l 5
179 707 m 0
 217 707 249.599934896 694.300130208 276.799804688 668.900390625 c 0
 303.999674479 643.5 317.599609375 612.799804688 317.599609375 576.799804688 c 0
 317.587239584 561.935872396 313.067382813 546.136067708 304.040039062 529.400390625 c 0
 297.635091146 517.524088542 288.959960938 505.177083333 278.014648438 492.359375 c 1
 288.530924479 480.368489583 297.028320313 468.715494792 303.506835938 457.400390625 c 0
 313.895507813 439.256510416 319.093098958 421.981445312 319.099609375 405.575195312 c 0
 319.099609375 369.305664063 305.317708333 338.2734375 277.75390625 312.478515625 c 0
 250.190755209 286.68359375 217.272786459 273.815755208 179 273.875 c 0
 146.278645833 273.925130208 116.505208333 283.559570312 89.6796875 302.778320312 c 0
 62.8541666667 321.997070312 46.0188802083 346.309244791 39.173828125 375.71484375 c 1
 138.40234375 399.329101562 l 1
 140.5390625 391.355794271 145.579752604 385.450846354 153.524414062 381.614257812 c 0
 161.469726562 377.777669271 170.361328125 375.859375 180.19921875 375.859375 c 0
 189.505208333 375.859375 197.981770833 378.890299479 205.62890625 384.952148438 c 0
 213.276041667 391.013346354 217.099609375 398.6875 217.099609375 407.974609375 c 0
 217.099609375 417.819661458 213.645833333 425.773111979 206.73828125 431.834960938 c 0
 199.830078125 437.896809896 190.583984375 440.927734375 179 440.927734375 c 2
 158.599609375 440.927734375 l 1
 158.599609375 542.927734375 l 1
 179 542.927734375 l 2
 189.899739583 542.927734375 198.724609375 545.947916667 205.474609375 551.98828125 c 0
 212.224609375 558.027994791 215.599609375 565.8984375 215.599609375 575.599609375 c 0
 215.599609375 584.800130208 211.899739583 592.000325521 204.5 597.200195312 c 0
 197.099609375 602.400065104 188.599609375 605 179 605 c 0
 166.580078125 605 156.979817709 602.495442708 150.19921875 597.486328125 c 0
 144.91796875 593.584635416 141.34765625 588.163411458 139.48828125 581.22265625 c 1
 40.529296875 605.9453125 l 1
 47.2298177083 635.118489583 63.8756510417 659.254231771 90.466796875 678.352539062 c 0
 117.057291666 697.450846354 146.568359375 707 179 707 c 0
EndSplineSet
Validated: 33
EndChar

StartChar: questiondown
Encoding: 191 191 124
GlifName: questiondown
Width: 463
Flags: W
HStem: -215 170<187.19 280.821> 306 206<180.878 307.493>
VStem: 0.185547 170<-27.9952 68.0057> 141.186 206<345.692 472.308>
LayerCount: 2
Fore
SplineSet
141.185546875 409 m 4xd0
 141.185546875 437.666666667 151.185546875 462 171.185546875 482 c 4
 191.185546875 502 215.518880208 512 244.185546875 512 c 4
 272.852213542 512 297.185546875 502 317.185546875 482 c 4
 337.185546875 462 347.185546875 437.666666667 347.185546875 409 c 4
 347.185546875 380.333333333 337.185546875 356 317.185546875 336 c 4
 297.185546875 316 272.852213542 306 244.185546875 306 c 4
 215.518880208 306 191.185546875 316 171.185546875 336 c 4
 151.185546875 356 141.185546875 380.333333333 141.185546875 409 c 4xd0
235.185546875 -215 m 4
 170.518880208 -215 115.185546875 -192 69.185546875 -146 c 4
 23.185546875 -100 0.185546875 -44.6666666667 0.185546875 20 c 4
 0.220703125 65.3294270833 12.4661458333 107.111653646 36.921875 145.346679688 c 4
 61.3782552083 183.581054688 94.1953125 212.654947917 135.373046875 232.568359375 c 4
 146.32421875 237.863932292 154.308268229 245.341145833 159.325195312 255 c 4
 163.543945312 263.123697917 165.6640625 272.790364583 165.685546875 284 c 5
 335.685546875 284 l 5
 335.657552084 241.579427083 323.953450521 201.413085937 300.573242188 163.500976562 c 4
 277.193684896 125.589518229 246.569010417 97.4781901038 208.69921875 79.1669921875 c 4
 196.298828125 73.1708984375 186.892903645 65.4485677083 180.481445312 56 c 4
 173.663736979 45.9524739583 170.231770833 33.9524739583 170.185546875 20 c 4xe0
 170.185546875 0.666666666667 176.185546875 -15 188.185546875 -27 c 4
 200.185546875 -39 215.852213542 -45 235.185546875 -45 c 4
 252.512369792 -44.9303385417 267.121744792 -39.5084635417 279.013671875 -28.734375 c 4
 290.904947917 -17.9609375 297.78515625 -4.01204427083 299.654296875 13.1123046875 c 5
 468 -10.548828125 l 5
 460.336588541 -69.0013020833 434.356445312 -117.677734375 390.059570312 -156.578125 c 4
 345.762695312 -195.478515625 294.138020833 -214.952473959 235.185546875 -215 c 4
EndSplineSet
Validated: 1
EndChar

StartChar: Agrave
Encoding: 192 192 125
GlifName: A_grave
Width: 689
Flags: W
HStem: 0 21G<7 193.829 494.714 682> 93 170<276.796 406.192> 680 20G<240.143 433.314> 754 147<242 312>
LayerCount: 2
Fore
SplineSet
242 754 m 5
 116 901 l 5
 312 901 l 5
 418 754 l 5
 242 754 l 5
276.795898438 263 m 1
 406.192382812 263 l 1
 339.3984375 446.356445312 l 1
 276.795898438 263 l 1
218.752929688 93 m 1
 187 0 l 1
 7 0 l 1
 247 700 l 1
 426 700 l 1
 682 0 l 1
 502 0 l 1
 468.12109375 93 l 1
 218.752929688 93 l 1
EndSplineSet
Validated: 1
EndChar

StartChar: Aacute
Encoding: 193 193 126
GlifName: A_acute
Width: 689
Flags: W
HStem: 95 170<274.796 404.192> 682 20G<238.143 431.314> 743.5 147<353 423>
LayerCount: 2
Fore
SplineSet
274.795898438 265 m 1
 404.192382812 265 l 1
 337.3984375 448.356445312 l 1
 274.795898438 265 l 1
216.752929688 95 m 1
 185 2 l 1
 5 2 l 1
 245 702 l 1
 424 702 l 1
 680 2 l 1
 500 2 l 1
 466.12109375 95 l 1
 216.752929688 95 l 1
247 743.5 m 5
 353 890.5 l 5
 549 890.5 l 5
 423 743.5 l 5
 247 743.5 l 5
EndSplineSet
Validated: 1
EndChar

StartChar: Acircumflex
Encoding: 194 194 127
GlifName: A_circumflex
Width: 689
Flags: W
HStem: 0 21G<7 193.829 494.714 682> 93 170<276.796 406.192> 680 20G<240.143 433.314> 754 146<255.554 290.002 387.998 422.446>
LayerCount: 2
Fore
SplineSet
125.24609375 754 m 1
 255.553710938 900 l 1
 422.446289062 900 l 1
 552.75390625 754 l 1
 387.998046875 754 l 1
 339 806.009765625 l 1
 290.001953125 754 l 1
 125.24609375 754 l 1
276.795898438 263 m 1
 406.192382812 263 l 1
 339.3984375 446.356445312 l 1
 276.795898438 263 l 1
218.752929688 93 m 1
 187 0 l 1
 7 0 l 1
 247 700 l 1
 426 700 l 1
 682 0 l 1
 502 0 l 1
 468.12109375 93 l 1
 218.752929688 93 l 1
EndSplineSet
Validated: 1
EndChar

StartChar: Atilde
Encoding: 195 195 128
GlifName: A_tilde
Width: 689
Flags: W
HStem: 0 21G<7 193.829 494.714 682> 93 170<276.796 406.192> 680 20G<240.143 433.314> 734 106<378.044 432.96> 806 106<249.052 310.202>
LayerCount: 2
Fore
SplineSet
412 734 m 0xf0
 370.666666667 734 340.666666667 746 322 770 c 0
 314.666666667 779.333333333 307.666666667 787.666666667 301 795 c 0
 294.333333333 802.333333333 285.333333333 806 274 806 c 0
 259.333333333 806 249 793 243 767 c 1
 126 767 l 1
 128.666666667 809 144 843.666666667 172 871 c 0
 200 898.333333333 232 912 268 912 c 0xe8
 312.666666667 912 345.333333333 900 366 876 c 0
 374 866.666666667 381 858.333333333 387 851 c 0
 393 843.666666667 401 840 411 840 c 0
 425 840 433.666666667 853 437 879 c 1
 554 879 l 5
 549.333333333 836.333333333 533.833333333 801.5 507.5 774.5 c 0
 481.166666667 747.5 449.333333333 734 412 734 c 0xf0
276.795898438 263 m 1
 406.192382812 263 l 1
 339.3984375 446.356445312 l 1
 276.795898438 263 l 1
218.752929688 93 m 1
 187 0 l 1
 7 0 l 1
 247 700 l 1
 426 700 l 1
 682 0 l 1
 502 0 l 1
 468.12109375 93 l 1
 218.752929688 93 l 1
EndSplineSet
Validated: 1
EndChar

StartChar: Adieresis
Encoding: 196 196 129
GlifName: A_dieresis
Width: 689
Flags: W
HStem: 0 21G<7 193.829 494.714 682> 93 170<276.796 406.192> 680 20G<240.143 433.314> 769 176<142.963 257.037 412.963 527.037>
VStem: 112 176<799.963 914.037> 382 176<799.963 914.037>
LayerCount: 2
Fore
SplineSet
200 945 m 4
 224 945 244.666666667 936.333333333 262 919 c 4
 279.333333333 901.666666667 288 881 288 857 c 4
 288 833 279.333333333 812.333333333 262 795 c 4
 244.666666667 777.666666667 224 769 200 769 c 4
 176 769 155.333333333 777.666666667 138 795 c 4
 120.666666667 812.333333333 112 833 112 857 c 4
 112 881 120.666666667 901.666666667 138 919 c 4
 155.333333333 936.333333333 176 945 200 945 c 4
470 945 m 4
 494 945 514.666666667 936.333333333 532 919 c 4
 549.333333333 901.666666667 558 881 558 857 c 4
 558 833 549.333333333 812.333333333 532 795 c 4
 514.666666667 777.666666667 494 769 470 769 c 4
 446 769 425.333333333 777.666666667 408 795 c 4
 390.666666667 812.333333333 382 833 382 857 c 4
 382 881 390.666666667 901.666666667 408 919 c 4
 425.333333333 936.333333333 446 945 470 945 c 4
276.795898438 263 m 1
 406.192382812 263 l 1
 339.3984375 446.356445312 l 1
 276.795898438 263 l 1
218.752929688 93 m 1
 187 0 l 1
 7 0 l 1
 247 700 l 1
 426 700 l 1
 682 0 l 1
 502 0 l 1
 468.12109375 93 l 1
 218.752929688 93 l 1
EndSplineSet
Validated: 1
EndChar

StartChar: Aring
Encoding: 197 197 130
GlifName: A_ring
Width: 689
Flags: W
HStem: 0 21G<7 193.829 494.714 682> 93 170<276.796 406.192> 680 20G<240.143 433.314> 720 97.1309<309.483 362.517> 881.869 97.1309<309.483 362.517>
VStem: 206.5 97.1309<822.983 876.017> 368.369 97.1309<822.983 876.017>
LayerCount: 2
Fore
SplineSet
336 979 m 0
 371.736328125 979 402.25390625 966.350911458 427.552734375 941.052734375 c 0
 452.850911458 915.75390625 465.5 885.236328125 465.5 849.5 c 0
 465.5 813.763671875 452.850911458 783.24609375 427.552734375 757.947265625 c 0
 402.25390625 732.649088542 371.736328125 720 336 720 c 0
 300.263671875 720 269.74609375 732.649088542 244.447265625 757.947265625 c 0
 219.149088542 783.24609375 206.5 813.763671875 206.5 849.5 c 0
 206.5 885.236328125 219.149088542 915.75390625 244.447265625 941.052734375 c 0
 269.74609375 966.350911458 300.263671875 979 336 979 c 0
336 881.869140625 m 0
 327.067708333 881.869140625 319.439778646 878.707356771 313.116210938 872.383789062 c 0
 306.792643229 866.060221354 303.630859375 858.432291667 303.630859375 849.5 c 0
 303.630859375 840.567708333 306.792643229 832.939778646 313.116210938 826.616210938 c 0
 319.439778646 820.292643229 327.067708333 817.130859375 336 817.130859375 c 0
 344.932291667 817.130859375 352.560221354 820.292643229 358.883789062 826.616210938 c 0
 365.207356771 832.939778646 368.369140625 840.567708333 368.369140625 849.5 c 0
 368.369140625 858.432291667 365.207356771 866.060221354 358.883789062 872.383789062 c 0
 352.560221354 878.707356771 344.932291667 881.869140625 336 881.869140625 c 0
276.795898438 263 m 1
 406.192382812 263 l 1
 339.3984375 446.356445312 l 1
 276.795898438 263 l 1
218.752929688 93 m 1
 187 0 l 1
 7 0 l 1
 247 700 l 1
 426 700 l 1
 682 0 l 1
 502 0 l 1
 468.12109375 93 l 1
 218.752929688 93 l 1
EndSplineSet
Validated: 1
EndChar

StartChar: AE
Encoding: 198 198 131
GlifName: A_E_
Width: 1033
Flags: W
HStem: 0 170<668 974> 99 166<406.297 498> 266 169<668 903> 530 170<668 973>
LayerCount: 2
Fore
SplineSet
498 700 m 1xb0
 973 700 l 1
 973 530 l 1
 668 530 l 1
 668 435 l 1
 903 435 l 1
 903 266 l 1
 668 266 l 1
 668 170 l 1
 974 170 l 1
 974 0 l 1
 498 0 l 1xb0
 498 99 l 1
 292.749023438 99 l 1x70
 225 0 l 1
 19 0 l 1
 498 700 l 1xb0
498 398.950195312 m 1
 406.296875 265 l 1
 498.50390625 265 l 1x70
 498 398.950195312 l 1
EndSplineSet
Validated: 1
EndChar

StartChar: Ccedilla
Encoding: 199 199 132
GlifName: C_cedilla
Width: 658
Flags: W
HStem: -210 120<284.909 364.288> -12.5 21G<335.369 411.247> -12.5 21G<335.369 411.247> 541.5 170<298.059 475.597>
VStem: 24.7832 170<260.449 438.644> 374.164 120<-80.1243 -13.4838>
LayerCount: 2
Fore
SplineSet
433.6953125 82.66015625 m 1x9c
 474.007161459 49.6529947917 494.163411459 7.099609375 494.1640625 -45 c 0
 494.1640625 -90.3333333333 477.997395833 -129.166666667 445.6640625 -161.5 c 0
 413.330729167 -193.833333333 374.497395833 -210 329.1640625 -210 c 0
 291.426432292 -209.854817708 257.70703125 -198.141276041 228.005859375 -174.859375 c 1
 273.993489584 -109.1796875 296.985677084 -76.3430989583 296.982421875 -76.349609375 c 4
 305.791666666 -85.4212239583 316.518880208 -89.9713541667 329.1640625 -90 c 0
 341.830729167 -90 352.497395833 -85.6666666667 361.1640625 -77 c 0
 369.830729167 -68.3333333333 374.1640625 -57.6666666667 374.1640625 -45 c 0
 374.153645833 -33.6061197917 370.366536458 -23.6692708333 362.802734375 -15.189453125 c 0
 355.239583333 -6.70963541667 345.879557291 -1.775390625 334.72265625 -0.38671875 c 1
 433.6953125 82.66015625 l 1x9c
386.783203125 711.5 m 0
 435.921875 711.5 482.556640625 702.155273437 526.6875 683.465820312 c 0
 570.818359375 664.777018229 609.589192708 638.694010417 643 605.216796875 c 1
 522.71875 484.935546875 l 1
 485.235677083 522.600911458 439.923828125 541.455729167 386.783203125 541.5 c 0
 333.799479167 541.5 288.553385417 522.74609375 251.044921875 485.23828125 c 0
 213.537109375 447.729817709 194.783203125 402.483723959 194.783203125 349.5 c 0
 194.783203125 296.516276041 213.537109375 251.270182291 251.044921875 213.76171875 c 0
 288.553385417 176.25390625 333.799479167 157.5 386.783203125 157.5 c 0
 439.658854167 157.514973959 484.821614584 176.185546875 522.271484375 213.51171875 c 1
 641.853515625 93.9296875 l 1
 608.591145834 60.5618489583 569.99609375 34.5257161458 526.068359375 15.8212890625 c 0
 482.139973958 -2.88313802083 435.711588542 -12.3235677083 386.783203125 -12.5 c 0xdc
 283.955729167 -12.5 197.122395834 24.1370442708 126.283203125 97.4111328125 c 0
 58.6165364583 167.403971354 24.783203125 251.43359375 24.783203125 349.5 c 0
 24.783203125 447.794270833 58.7493489583 531.9609375 126.681640625 602 c 0
 197.485677083 675 284.186197916 711.5 386.783203125 711.5 c 0
EndSplineSet
Validated: 37
EndChar

StartChar: Egrave
Encoding: 200 200 133
GlifName: E_grave
Width: 586
Flags: W
HStem: 0 170<230 536> 266 169<230 465> 530 170<230 535> 754 147<227 297>
VStem: 60 170<170 266 435 530>
LayerCount: 2
Fore
SplineSet
227 754 m 5
 101 901 l 5
 297 901 l 5
 403 754 l 5
 227 754 l 5
60 0 m 1
 60 700 l 1
 535 700 l 1
 535 530 l 1
 230 530 l 1
 230 435 l 1
 465 435 l 1
 465 266 l 1
 230 266 l 1
 230 170 l 1
 536 170 l 1
 536 0 l 1
 60 0 l 1
EndSplineSet
Validated: 1
EndChar

StartChar: Eacute
Encoding: 201 201 134
GlifName: E_acute
Width: 586
Flags: W
HStem: 0 170<230 536> 266 169<230 465> 530 170<230 535> 750.5 147<311 381>
VStem: 60 170<170 266 435 530>
LayerCount: 2
Fore
SplineSet
60 0 m 1
 60 700 l 1
 535 700 l 1
 535 530 l 1
 230 530 l 1
 230 435 l 1
 465 435 l 1
 465 266 l 1
 230 266 l 1
 230 170 l 1
 536 170 l 1
 536 0 l 1
 60 0 l 1
205 750.5 m 5
 311 897.5 l 5
 507 897.5 l 5
 381 750.5 l 5
 205 750.5 l 5
EndSplineSet
Validated: 1
EndChar

StartChar: Ecircumflex
Encoding: 202 202 135
GlifName: E_circumflex
Width: 586
Flags: W
HStem: 0 170<230 536> 266 169<230 465> 530 170<230 535> 754 146<207.554 242.002 339.998 374.446>
VStem: 60 170<170 266 435 530>
LayerCount: 2
Fore
SplineSet
77.24609375 754 m 1
 207.553710938 900 l 1
 374.446289062 900 l 1
 504.75390625 754 l 1
 339.998046875 754 l 1
 291 806.009765625 l 1
 242.001953125 754 l 1
 77.24609375 754 l 1
60 0 m 1
 60 700 l 1
 535 700 l 1
 535 530 l 1
 230 530 l 1
 230 435 l 1
 465 435 l 1
 465 266 l 1
 230 266 l 1
 230 170 l 1
 536 170 l 1
 536 0 l 1
 60 0 l 1
EndSplineSet
Validated: 1
EndChar

StartChar: Edieresis
Encoding: 203 203 136
GlifName: E_dieresis
Width: 586
Flags: W
HStem: 0 170<230 536> 266 169<230 465> 530 170<230 535> 769 176<101.963 216.037 371.963 486.037>
VStem: 60 170<170 266 435 530> 71 176<799.963 914.037> 341 176<799.963 914.037>
LayerCount: 2
Fore
SplineSet
159 945 m 4xf6
 183 945 203.666666667 936.333333333 221 919 c 4
 238.333333333 901.666666667 247 881 247 857 c 4
 247 833 238.333333333 812.333333333 221 795 c 4
 203.666666667 777.666666667 183 769 159 769 c 4
 135 769 114.333333333 777.666666667 97 795 c 4
 79.6666666667 812.333333333 71 833 71 857 c 4
 71 881 79.6666666667 901.666666667 97 919 c 4
 114.333333333 936.333333333 135 945 159 945 c 4xf6
429 945 m 4
 453 945 473.666666667 936.333333333 491 919 c 4
 508.333333333 901.666666667 517 881 517 857 c 4
 517 833 508.333333333 812.333333333 491 795 c 4
 473.666666667 777.666666667 453 769 429 769 c 4
 405 769 384.333333333 777.666666667 367 795 c 4
 349.666666667 812.333333333 341 833 341 857 c 4
 341 881 349.666666667 901.666666667 367 919 c 4
 384.333333333 936.333333333 405 945 429 945 c 4
60 0 m 1xfa
 60 700 l 1
 535 700 l 1
 535 530 l 1
 230 530 l 1
 230 435 l 1
 465 435 l 1
 465 266 l 1
 230 266 l 1
 230 170 l 1
 536 170 l 1
 536 0 l 1
 60 0 l 1xfa
EndSplineSet
Validated: 1
EndChar

StartChar: Igrave
Encoding: 204 204 137
GlifName: I_grave
Width: 290
Flags: W
HStem: 0 21G<60 230> 680 20G<60 230> 754 147<55.5 125.5>
VStem: 60 170<0 700>
LayerCount: 2
Fore
SplineSet
55.5 754 m 5
 -70.5 901 l 5
 125.5 901 l 5
 231.5 754 l 5
 55.5 754 l 5
60 0 m 1
 60 700 l 1
 230 700 l 1
 230 0 l 1
 60 0 l 1
EndSplineSet
Validated: 1
EndChar

StartChar: Iacute
Encoding: 205 205 138
GlifName: I_acute
Width: 290
Flags: W
HStem: 0 21G<60 230> 680 20G<60 230> 750.5 147<163 233>
VStem: 60 170<0 700>
LayerCount: 2
Fore
SplineSet
60 0 m 1
 60 700 l 1
 230 700 l 1
 230 0 l 1
 60 0 l 1
57 750.5 m 5
 163 897.5 l 5
 359 897.5 l 5
 233 750.5 l 5
 57 750.5 l 5
EndSplineSet
Validated: 1
EndChar

StartChar: Icircumflex
Encoding: 206 206 139
GlifName: I_circumflex
Width: 290
Flags: W
HStem: 0 21G<60 230> 680 20G<60 230> 754 146<68.0537 102.502 200.498 234.946>
VStem: 60 170<0 700>
LayerCount: 2
Fore
SplineSet
-62.25390625 754 m 1
 68.0537109375 900 l 1
 234.946289062 900 l 1
 365.25390625 754 l 1
 200.498046875 754 l 1
 151.5 806.009765625 l 1
 102.501953125 754 l 1
 -62.25390625 754 l 1
60 0 m 1
 60 700 l 1
 230 700 l 1
 230 0 l 1
 60 0 l 1
EndSplineSet
Validated: 1
EndChar

StartChar: Idieresis
Encoding: 207 207 140
GlifName: I_dieresis
Width: 290
Flags: W
HStem: 0 21G<60 230> 680 20G<60 230> 799 176<-31.5371 82.5371 208.463 322.537>
VStem: -62.5 176<829.963 944.037> 60 170<0 700> 177.5 176<829.963 944.037>
LayerCount: 2
Fore
SplineSet
60 0 m 1xe8
 60 700 l 1
 230 700 l 1
 230 0 l 1
 60 0 l 1xe8
25.5 975 m 0
 49.5 975 70.1666666667 966.333333333 87.5 949 c 0
 104.833333333 931.666666667 113.5 911 113.5 887 c 0
 113.5 863 104.833333333 842.333333333 87.5 825 c 0
 70.1666666667 807.666666667 49.5 799 25.5 799 c 0
 1.5 799 -19.1666666667 807.666666667 -36.5 825 c 0
 -53.8333333333 842.333333333 -62.5 863 -62.5 887 c 0xf0
 -62.5 911 -53.8333333333 931.666666667 -36.5 949 c 0
 -19.1666666667 966.333333333 1.5 975 25.5 975 c 0
265.5 975 m 0
 289.5 975 310.166666667 966.333333333 327.5 949 c 0
 344.833333333 931.666666667 353.5 911 353.5 887 c 0
 353.5 863 344.833333333 842.333333333 327.5 825 c 0
 310.166666667 807.666666667 289.5 799 265.5 799 c 0
 241.5 799 220.833333333 807.666666667 203.5 825 c 0
 186.166666667 842.333333333 177.5 863 177.5 887 c 0xe4
 177.5 911 186.166666667 931.666666667 203.5 949 c 0
 220.833333333 966.333333333 241.5 975 265.5 975 c 0
EndSplineSet
Validated: 1
EndChar

StartChar: Eth
Encoding: 208 208 141
GlifName: E_th
Width: 707
Flags: W
HStem: 0 170<230 418.475> 266 169<20 358> 530 170<230 418.475>
VStem: 60 170<170 530> 512 170<263.333 436.667>
LayerCount: 2
Fore
SplineSet
332 530 m 2
 230 530 l 1
 230 170 l 1
 332 170 l 2
 382 170 424.5 187.5 459.5 222.5 c 0
 494.5 257.5 512 300 512 350 c 0
 512 400 494.5 442.5 459.5 477.5 c 0
 424.5 512.5 382 530 332 530 c 2
332 700 m 2
 428.666666667 700 511.166666667 665.833333333 579.5 597.5 c 0
 647.833333333 529.166666667 682 446.666666667 682 350 c 0
 682 253.333333333 647.833333333 170.833333333 579.5 102.5 c 0
 511.166666667 34.1666666667 428.666666667 0 332 0 c 2
 60 0 l 1
 60 700 l 1
 332 700 l 2
20 266 m 5
 20 435 l 5
 358 435 l 5
 358 266 l 5
 20 266 l 5
EndSplineSet
Validated: 5
EndChar

StartChar: Ntilde
Encoding: 209 209 142
GlifName: N_tilde
Width: 713
Flags: W
HStem: 0 21G<60 230 469.992 653> 680 20G<60 243.008 483 653> 714 106<393.544 448.46> 786 106<264.552 325.702>
VStem: 60 170<0 389> 483 170<311 700>
LayerCount: 2
Fore
SplineSet
427.5 714 m 0xec
 386.166666667 714 356.166666667 726 337.5 750 c 0
 330.166666667 759.333333333 323.166666667 767.666666667 316.5 775 c 0
 309.833333333 782.333333333 300.833333333 786 289.5 786 c 0
 274.833333333 786 264.5 773 258.5 747 c 1
 141.5 747 l 1
 144.166666667 789 159.5 823.666666667 187.5 851 c 0
 215.5 878.333333333 247.5 892 283.5 892 c 0xdc
 328.166666667 892 360.833333333 880 381.5 856 c 0
 389.5 846.666666667 396.5 838.333333333 402.5 831 c 0
 408.5 823.666666667 416.5 820 426.5 820 c 0
 440.5 820 449.166666667 833 452.5 859 c 1
 569.5 859 l 5
 564.833333333 816.333333333 549.333333333 781.5 523 754.5 c 0
 496.666666667 727.5 464.833333333 714 427.5 714 c 0xec
60 700 m 1
 230 700 l 1
 483 311 l 1
 483 700 l 1
 653 700 l 1
 653 0 l 1
 483 0 l 1
 230 389 l 1
 230 0 l 1
 60 0 l 1
 60 700 l 1
EndSplineSet
Validated: 1
EndChar

StartChar: Ograve
Encoding: 210 210 143
GlifName: O_grave
Width: 774
Flags: W
HStem: -12.5 170<298.634 475.917> 541.5 170<298.713 476.519> 754 147<318.5 388.5>
VStem: 25 170<259.981 439.101> 579 170<260.557 437.866>
LayerCount: 2
Fore
SplineSet
318.5 754 m 5
 192.5 901 l 5
 388.5 901 l 5
 494.5 754 l 5
 318.5 754 l 5
387 541.5 m 0
 334.016276041 541.5 288.770182291 522.74609375 251.26171875 485.23828125 c 0
 213.75390625 447.729817709 195 402.483723959 195 349.5 c 0
 195 296.516276041 213.75390625 251.270182291 251.26171875 213.76171875 c 0
 288.770182291 176.25390625 334.016276041 157.5 387 157.5 c 0
 439.983723959 157.5 485.229817709 176.25390625 522.73828125 213.76171875 c 0
 560.24609375 251.270182291 579 296.516276041 579 349.5 c 0
 579 402.483723959 560.24609375 447.729817709 522.73828125 485.23828125 c 0
 485.229817709 522.74609375 439.983723959 541.5 387 541.5 c 0
387 711.5 m 0
 486.207682292 711.5 570.921223959 677 641.140625 608 c 0
 713.046875 537.342447917 749 451.17578125 749 349.5 c 0
 749 246.343098959 712.166666667 159.320638021 638.5 88.4326171875 c 0
 568.574869792 21.1442057292 484.741536459 -12.5 387 -12.5 c 0
 285.32421875 -12.5 199.157552083 23.453125 128.5 95.359375 c 0
 59.5 165.578776041 25 250.292317708 25 349.5 c 0
 25 448.909505208 59.6178385417 533.742838541 128.853515625 604 c 0
 199.477864583 675.666666667 285.526692708 711.5 387 711.5 c 0
EndSplineSet
Validated: 1
EndChar

StartChar: Oacute
Encoding: 211 211 144
GlifName: O_acute
Width: 774
Flags: W
HStem: -12.5 170<298.634 475.917> 541.5 170<298.713 476.519> 750.5 147<399 469>
VStem: 25 170<259.981 439.101> 579 170<260.557 437.866>
LayerCount: 2
Fore
SplineSet
387 541.5 m 0
 334.016276041 541.5 288.770182291 522.74609375 251.26171875 485.23828125 c 0
 213.75390625 447.729817709 195 402.483723959 195 349.5 c 0
 195 296.516276041 213.75390625 251.270182291 251.26171875 213.76171875 c 0
 288.770182291 176.25390625 334.016276041 157.5 387 157.5 c 0
 439.983723959 157.5 485.229817709 176.25390625 522.73828125 213.76171875 c 0
 560.24609375 251.270182291 579 296.516276041 579 349.5 c 0
 579 402.483723959 560.24609375 447.729817709 522.73828125 485.23828125 c 0
 485.229817709 522.74609375 439.983723959 541.5 387 541.5 c 0
387 711.5 m 0
 486.207682292 711.5 570.921223959 677 641.140625 608 c 0
 713.046875 537.342447917 749 451.17578125 749 349.5 c 0
 749 246.343098959 712.166666667 159.320638021 638.5 88.4326171875 c 0
 568.574869792 21.1442057292 484.741536459 -12.5 387 -12.5 c 0
 285.32421875 -12.5 199.157552083 23.453125 128.5 95.359375 c 0
 59.5 165.578776041 25 250.292317708 25 349.5 c 0
 25 448.909505208 59.6178385417 533.742838541 128.853515625 604 c 0
 199.477864583 675.666666667 285.526692708 711.5 387 711.5 c 0
293 750.5 m 5
 399 897.5 l 5
 595 897.5 l 5
 469 750.5 l 5
 293 750.5 l 5
EndSplineSet
Validated: 1
EndChar

StartChar: Ocircumflex
Encoding: 212 212 145
GlifName: O_circumflex
Width: 774
Flags: W
HStem: -12.5 170<298.634 475.917> 541.5 170<298.713 476.519> 754 146<300.054 334.502 432.498 466.946>
VStem: 25 170<259.981 439.101> 579 170<260.557 437.866>
LayerCount: 2
Fore
SplineSet
169.74609375 754 m 1
 300.053710938 900 l 1
 466.946289062 900 l 1
 597.25390625 754 l 1
 432.498046875 754 l 1
 383.5 806.009765625 l 1
 334.501953125 754 l 1
 169.74609375 754 l 1
387 541.5 m 0
 334.016276041 541.5 288.770182291 522.74609375 251.26171875 485.23828125 c 0
 213.75390625 447.729817709 195 402.483723959 195 349.5 c 0
 195 296.516276041 213.75390625 251.270182291 251.26171875 213.76171875 c 0
 288.770182291 176.25390625 334.016276041 157.5 387 157.5 c 0
 439.983723959 157.5 485.229817709 176.25390625 522.73828125 213.76171875 c 0
 560.24609375 251.270182291 579 296.516276041 579 349.5 c 0
 579 402.483723959 560.24609375 447.729817709 522.73828125 485.23828125 c 0
 485.229817709 522.74609375 439.983723959 541.5 387 541.5 c 0
387 711.5 m 0
 486.207682292 711.5 570.921223959 677 641.140625 608 c 0
 713.046875 537.342447917 749 451.17578125 749 349.5 c 0
 749 246.343098959 712.166666667 159.320638021 638.5 88.4326171875 c 0
 568.574869792 21.1442057292 484.741536459 -12.5 387 -12.5 c 0
 285.32421875 -12.5 199.157552083 23.453125 128.5 95.359375 c 0
 59.5 165.578776041 25 250.292317708 25 349.5 c 0
 25 448.909505208 59.6178385417 533.742838541 128.853515625 604 c 0
 199.477864583 675.666666667 285.526692708 711.5 387 711.5 c 0
EndSplineSet
Validated: 1
EndChar

StartChar: Otilde
Encoding: 213 213 146
GlifName: O_tilde
Width: 774
Flags: W
HStem: -12.5 170<298.634 475.917> 541.5 170<298.713 476.519> 734 106<446.544 501.46> 806 106<317.552 378.702>
VStem: 25 170<259.981 439.101> 579 170<260.557 437.866>
LayerCount: 2
Fore
SplineSet
480.5 734 m 0xec
 439.166666667 734 409.166666667 746 390.5 770 c 0
 383.166666667 779.333333333 376.166666667 787.666666667 369.5 795 c 0
 362.833333333 802.333333333 353.833333333 806 342.5 806 c 0
 327.833333333 806 317.5 793 311.5 767 c 1
 194.5 767 l 1
 197.166666667 809 212.5 843.666666667 240.5 871 c 0
 268.5 898.333333333 300.5 912 336.5 912 c 0xdc
 381.166666667 912 413.833333333 900 434.5 876 c 0
 442.5 866.666666667 449.5 858.333333333 455.5 851 c 0
 461.5 843.666666667 469.5 840 479.5 840 c 0
 493.5 840 502.166666667 853 505.5 879 c 1
 622.5 879 l 5
 617.833333333 836.333333333 602.333333333 801.5 576 774.5 c 0
 549.666666667 747.5 517.833333333 734 480.5 734 c 0xec
387 541.5 m 0
 334.016276041 541.5 288.770182291 522.74609375 251.26171875 485.23828125 c 0
 213.75390625 447.729817709 195 402.483723959 195 349.5 c 0
 195 296.516276041 213.75390625 251.270182291 251.26171875 213.76171875 c 0
 288.770182291 176.25390625 334.016276041 157.5 387 157.5 c 0
 439.983723959 157.5 485.229817709 176.25390625 522.73828125 213.76171875 c 0
 560.24609375 251.270182291 579 296.516276041 579 349.5 c 0
 579 402.483723959 560.24609375 447.729817709 522.73828125 485.23828125 c 0
 485.229817709 522.74609375 439.983723959 541.5 387 541.5 c 0
387 711.5 m 0
 486.207682292 711.5 570.921223959 677 641.140625 608 c 0
 713.046875 537.342447917 749 451.17578125 749 349.5 c 0
 749 246.343098959 712.166666667 159.320638021 638.5 88.4326171875 c 0
 568.574869792 21.1442057292 484.741536459 -12.5 387 -12.5 c 0
 285.32421875 -12.5 199.157552083 23.453125 128.5 95.359375 c 0
 59.5 165.578776041 25 250.292317708 25 349.5 c 0
 25 448.909505208 59.6178385417 533.742838541 128.853515625 604 c 0
 199.477864583 675.666666667 285.526692708 711.5 387 711.5 c 0
EndSplineSet
Validated: 1
EndChar

StartChar: Odieresis
Encoding: 214 214 147
GlifName: O_dieresis
Width: 774
Flags: W
HStem: -12.5 170<298.634 475.917> 541.5 170<298.713 476.519> 769 176<205.463 319.537 475.463 589.537>
VStem: 25 170<259.981 439.101> 174.5 176<799.963 914.037> 444.5 176<799.963 914.037> 579 170<260.557 437.866>
LayerCount: 2
Fore
SplineSet
262.5 945 m 4xe8
 286.5 945 307.166666667 936.333333333 324.5 919 c 4
 341.833333333 901.666666667 350.5 881 350.5 857 c 4
 350.5 833 341.833333333 812.333333333 324.5 795 c 4
 307.166666667 777.666666667 286.5 769 262.5 769 c 4
 238.5 769 217.833333333 777.666666667 200.5 795 c 4
 183.166666667 812.333333333 174.5 833 174.5 857 c 4
 174.5 881 183.166666667 901.666666667 200.5 919 c 4
 217.833333333 936.333333333 238.5 945 262.5 945 c 4xe8
532.5 945 m 4
 556.5 945 577.166666667 936.333333333 594.5 919 c 4
 611.833333333 901.666666667 620.5 881 620.5 857 c 4
 620.5 833 611.833333333 812.333333333 594.5 795 c 4
 577.166666667 777.666666667 556.5 769 532.5 769 c 4
 508.5 769 487.833333333 777.666666667 470.5 795 c 4
 453.166666667 812.333333333 444.5 833 444.5 857 c 4xe4
 444.5 881 453.166666667 901.666666667 470.5 919 c 4
 487.833333333 936.333333333 508.5 945 532.5 945 c 4
387 541.5 m 0
 334.016276041 541.5 288.770182291 522.74609375 251.26171875 485.23828125 c 0
 213.75390625 447.729817709 195 402.483723959 195 349.5 c 0
 195 296.516276041 213.75390625 251.270182291 251.26171875 213.76171875 c 0
 288.770182291 176.25390625 334.016276041 157.5 387 157.5 c 0
 439.983723959 157.5 485.229817709 176.25390625 522.73828125 213.76171875 c 0
 560.24609375 251.270182291 579 296.516276041 579 349.5 c 0xf2
 579 402.483723959 560.24609375 447.729817709 522.73828125 485.23828125 c 0
 485.229817709 522.74609375 439.983723959 541.5 387 541.5 c 0
387 711.5 m 0
 486.207682292 711.5 570.921223959 677 641.140625 608 c 0
 713.046875 537.342447917 749 451.17578125 749 349.5 c 0
 749 246.343098959 712.166666667 159.320638021 638.5 88.4326171875 c 0
 568.574869792 21.1442057292 484.741536459 -12.5 387 -12.5 c 0
 285.32421875 -12.5 199.157552083 23.453125 128.5 95.359375 c 0
 59.5 165.578776041 25 250.292317708 25 349.5 c 0
 25 448.909505208 59.6178385417 533.742838541 128.853515625 604 c 0
 199.477864583 675.666666667 285.526692708 711.5 387 711.5 c 0
EndSplineSet
Validated: 1
EndChar

StartChar: multiply
Encoding: 215 215 148
GlifName: multiply
Width: 640
Flags: W
LayerCount: 2
Fore
SplineSet
209.604492188 67.3955078125 m 1
 89.3955078125 187.604492188 l 1
 199.791015625 298 l 1
 89.3955078125 408.395507812 l 1
 209.604492188 528.604492188 l 1
 320 418.208984375 l 1
 430.395507812 528.604492188 l 1
 550.604492188 408.395507812 l 1
 440.208984375 298 l 1
 550.604492188 187.604492188 l 1
 430.395507812 67.3955078125 l 1
 320 177.791015625 l 1
 209.604492188 67.3955078125 l 1
EndSplineSet
Validated: 1
EndChar

StartChar: Oslash
Encoding: 216 216 149
GlifName: O_slash
Width: 773
Flags: W
HStem: -12.5 170<341.166 475.917> 541.5 170<298.713 432.292>
VStem: 25 170<241.395 439.101> 579 170<260.557 456.91>
LayerCount: 2
Fore
SplineSet
387 541.5 m 0
 334.016276041 541.5 288.770182291 522.74609375 251.26171875 485.23828125 c 0
 213.75390625 447.729817709 195 402.483723959 195 349.5 c 0
 195 296.516276041 213.75390625 251.270182291 251.26171875 213.76171875 c 0
 288.770182291 176.25390625 334.016276041 157.5 387 157.5 c 0
 439.983723959 157.5 485.229817709 176.25390625 522.73828125 213.76171875 c 0
 560.24609375 251.270182291 579 296.516276041 579 349.5 c 0
 579 402.483723959 560.24609375 447.729817709 522.73828125 485.23828125 c 0
 485.229817709 522.74609375 439.983723959 541.5 387 541.5 c 0
387 711.5 m 0
 486.207682292 711.5 570.921223959 677 641.140625 608 c 0
 713.046875 537.342447917 749 451.17578125 749 349.5 c 0
 749 246.343098959 712.166666667 159.320638021 638.5 88.4326171875 c 0
 568.574869792 21.1442057292 484.741536459 -12.5 387 -12.5 c 0
 285.32421875 -12.5 199.157552083 23.453125 128.5 95.359375 c 0
 59.5 165.578776041 25 250.292317708 25 349.5 c 0
 25 448.909505208 59.6178385417 533.742838541 128.853515625 604 c 0
 199.477864583 675.666666667 285.526692708 711.5 387 711.5 c 0
240.162109375 -7.6826171875 m 1
 100.907226562 89.826171875 l 1
 532.842773438 706.690429688 l 1
 672.098632812 609.182617188 l 1
 240.162109375 -7.6826171875 l 1
EndSplineSet
Validated: 5
EndChar

StartChar: Ugrave
Encoding: 217 217 150
GlifName: U_grave
Width: 700
Flags: W
HStem: -12 170<281.759 418.241> 680 20G<50 220 480 650> 754 147<273 343>
VStem: 50 170<225.026 700> 480 170<225.026 700>
LayerCount: 2
Fore
SplineSet
273 754 m 5
 147 901 l 5
 343 901 l 5
 449 754 l 5
 273 754 l 5
50 700 m 1
 220 700 l 1
 220 318 l 2
 220 269.333333333 232.5 230.5 257.5 201.5 c 0
 282.5 172.5 313.333333333 158 350 158 c 0
 386.666666667 158 417.5 172.5 442.5 201.5 c 0
 467.5 230.5 480 269.333333333 480 318 c 2
 480 700 l 1
 650 700 l 1
 650 318 l 2
 650 222 621 143 563 81 c 0
 505 19 434 -12 350 -12 c 0
 266 -12 195 19 137 81 c 0
 79 143 50 222 50 318 c 2
 50 700 l 1
EndSplineSet
Validated: 1
EndChar

StartChar: Uacute
Encoding: 218 218 151
GlifName: U_acute
Width: 700
Flags: W
HStem: -12 170<281.759 418.241> 680 20G<50 220 480 650> 723.5 147<369 439>
VStem: 50 170<225.026 700> 480 170<225.026 700>
LayerCount: 2
Fore
SplineSet
263 723.5 m 5
 369 870.5 l 5
 565 870.5 l 5
 439 723.5 l 5
 263 723.5 l 5
50 700 m 1
 220 700 l 1
 220 318 l 2
 220 269.333333333 232.5 230.5 257.5 201.5 c 0
 282.5 172.5 313.333333333 158 350 158 c 0
 386.666666667 158 417.5 172.5 442.5 201.5 c 0
 467.5 230.5 480 269.333333333 480 318 c 2
 480 700 l 1
 650 700 l 1
 650 318 l 2
 650 222 621 143 563 81 c 0
 505 19 434 -12 350 -12 c 0
 266 -12 195 19 137 81 c 0
 79 143 50 222 50 318 c 2
 50 700 l 1
EndSplineSet
Validated: 1
EndChar

StartChar: Ucircumflex
Encoding: 219 219 152
GlifName: U_circumflex
Width: 700
Flags: W
HStem: -12 170<281.759 418.241> 680 20G<50 220 480 650> 754 146<250.554 285.002 382.998 417.446>
VStem: 50 170<225.026 700> 480 170<225.026 700>
LayerCount: 2
Fore
SplineSet
120.24609375 754 m 1
 250.553710938 900 l 1
 417.446289062 900 l 1
 547.75390625 754 l 1
 382.998046875 754 l 1
 334 806.009765625 l 1
 285.001953125 754 l 1
 120.24609375 754 l 1
50 700 m 1
 220 700 l 1
 220 318 l 2
 220 269.333333333 232.5 230.5 257.5 201.5 c 0
 282.5 172.5 313.333333333 158 350 158 c 0
 386.666666667 158 417.5 172.5 442.5 201.5 c 0
 467.5 230.5 480 269.333333333 480 318 c 2
 480 700 l 1
 650 700 l 1
 650 318 l 2
 650 222 621 143 563 81 c 0
 505 19 434 -12 350 -12 c 0
 266 -12 195 19 137 81 c 0
 79 143 50 222 50 318 c 2
 50 700 l 1
EndSplineSet
Validated: 1
EndChar

StartChar: Udieresis
Encoding: 220 220 153
GlifName: U_dieresis
Width: 700
Flags: W
HStem: -12 170<281.759 418.241> 680 20G<50 220 480 650> 769 176<157.963 272.037 427.963 542.037>
VStem: 50 170<225.026 700> 127 176<799.963 914.037> 397 176<799.963 914.037> 480 170<225.026 700>
LayerCount: 2
Fore
SplineSet
215 945 m 4xe8
 239 945 259.666666667 936.333333333 277 919 c 4
 294.333333333 901.666666667 303 881 303 857 c 4
 303 833 294.333333333 812.333333333 277 795 c 4
 259.666666667 777.666666667 239 769 215 769 c 4
 191 769 170.333333333 777.666666667 153 795 c 4
 135.666666667 812.333333333 127 833 127 857 c 4
 127 881 135.666666667 901.666666667 153 919 c 4
 170.333333333 936.333333333 191 945 215 945 c 4xe8
485 945 m 4
 509 945 529.666666667 936.333333333 547 919 c 4
 564.333333333 901.666666667 573 881 573 857 c 4
 573 833 564.333333333 812.333333333 547 795 c 4
 529.666666667 777.666666667 509 769 485 769 c 4
 461 769 440.333333333 777.666666667 423 795 c 4
 405.666666667 812.333333333 397 833 397 857 c 4xe4
 397 881 405.666666667 901.666666667 423 919 c 4
 440.333333333 936.333333333 461 945 485 945 c 4
50 700 m 1xf2
 220 700 l 1
 220 318 l 2
 220 269.333333333 232.5 230.5 257.5 201.5 c 0
 282.5 172.5 313.333333333 158 350 158 c 0
 386.666666667 158 417.5 172.5 442.5 201.5 c 0
 467.5 230.5 480 269.333333333 480 318 c 2
 480 700 l 1
 650 700 l 1
 650 318 l 2
 650 222 621 143 563 81 c 0
 505 19 434 -12 350 -12 c 0
 266 -12 195 19 137 81 c 0
 79 143 50 222 50 318 c 2
 50 700 l 1xf2
EndSplineSet
Validated: 1
EndChar

StartChar: Yacute
Encoding: 221 221 154
GlifName: Y_acute
Width: 635
Flags: W
HStem: 0 21G<232.5 402.492> 680 20G<6 216.465 418.535 629> 723.5 147<323 393>
VStem: 232.5 169.992<0 308.268>
LayerCount: 2
Fore
SplineSet
217 723.5 m 5
 323 870.5 l 5
 519 870.5 l 5
 393 723.5 l 5
 217 723.5 l 5
6 700 m 1
 205 700 l 1
 317.5 503.758789062 l 1
 430 700 l 1
 629 700 l 1
 402.4921875 308.267578125 l 5
 402.4921875 0 l 1
 232.5 0 l 1
 232.5 308.28125 l 1
 6 700 l 1
EndSplineSet
Validated: 1
EndChar

StartChar: Thorn
Encoding: 222 222 155
GlifName: T_horn
Width: 608
Flags: W
HStem: 1 21G<70 240> 111 170<240 405.315> 431 170<240 405.315> 681 20G<70 240>
VStem: 70 170<1 111 281 431 601 701> 428.5 170<304.082 407.918>
LayerCount: 2
Fore
SplineSet
70 701 m 1
 240 701 l 1
 240 601 l 1
 353.5 601 l 2
 421.154785156 601 478.901814778 577.080362956 526.741088867 529.241088867 c 0
 574.580362956 481.401814778 598.5 423.654785156 598.5 356 c 0
 598.5 288.345214844 574.580362956 230.598185222 526.741088867 182.758911133 c 0
 478.901814778 134.919637044 421.154785156 111 353.5 111 c 2
 240 111 l 1
 240 1 l 1
 70 1 l 1
 70 701 l 1
240 431 m 1
 240 281 l 1
 353.5 281 l 2
 373.792480469 281 391.365600586 288.426879883 406.219360352 303.280639648 c 0
 421.073120117 318.134399414 428.5 335.707519531 428.5 356 c 0
 428.5 376.292480469 421.073120117 393.865600586 406.219360352 408.719360352 c 0
 391.365600586 423.573120117 373.792480469 431 353.5 431 c 2
 240 431 l 1
EndSplineSet
Validated: 1
EndChar

StartChar: germandbls
Encoding: 223 223 156
GlifName: germandbls
Width: 560
Flags: W
HStem: 0 21G<45 215 274 331.333> 542 170<232.847 332.839>
VStem: 45 170<0 523.436> 349 170<450.599 526.885> 365 170<185.115 256.774>
LayerCount: 2
Fore
SplineSet
282 712 m 0xf0
 348.666666667 712 404.833333333 690.5 450.5 647.5 c 0
 496.166666667 604.5 519 552.333333333 519 491 c 0xf0
 519 468.327977749 515.826248232 446.661311082 509.478744695 426 c 0
 502.846839229 404.412952256 492.750408706 383.923368923 479.189453125 364.53125 c 1
 495.402372346 346.644438569 508.082911519 327.467355236 517.231070644 307 c 4
 529.077023548 280.496818007 535 251.83015134 535 221 c 0
 535 159.666666667 512.166666667 107.5 466.5 64.5 c 0
 420.833333333 21.5 364.666666667 0 298 0 c 2
 274 0 l 1
 274 170 l 1
 298 170 l 2
 317.333333333 170 333.333333333 175 346 185 c 0
 358.666666667 195 365 207 365 221 c 0xe8
 365 235 358.666666667 246.833333333 346 256.5 c 0
 333.333333333 266.166666667 317.333333333 271 298 271 c 2
 274 271 l 1
 274 441 l 1
 298 441 l 2
 311.333333333 441 323.166666667 446 333.5 456 c 0
 343.833333333 466 349 477.666666667 349 491 c 0
 349 505 342.833333333 517 330.5 527 c 0
 318.166666667 537 302 542 282 542 c 0
 262.666666667 542 246.666666667 536 234 524 c 0
 221.333333333 512 215 498.333333333 215 483 c 2
 215 0 l 1
 45 0 l 1
 45 483 l 2
 45 545.666666667 67.8333333333 599.5 113.5 644.5 c 0
 159.166666667 689.5 215.333333333 712 282 712 c 0xf0
EndSplineSet
Validated: 1
EndChar

StartChar: agrave
Encoding: 224 224 157
GlifName: agrave
Width: 596
Flags: W
HStem: -12 168<227.325 346.803> 0 21G<403 551> 344 168<227.325 346.731> 480 20G<403 551> 554 147<195 265>
VStem: 20 173<190.234 309.766> 381 170<189.653 310.347> 403 148<0 32.9893 462.037 500>
LayerCount: 2
Fore
SplineSet
195 554 m 5x0c
 69 701 l 5
 265 701 l 5
 371 554 l 5
 195 554 l 5x0c
403 500 m 1x1d
 551 500 l 1
 551 0 l 1
 403 0 l 1x5d
 403 32.9892578125 l 1
 399.436197917 29.9007161458 395.76953125 26.9713541667 392 24.201171875 c 4
 359.160807292 0.0670572916667 318.494140625 -12 270 -12 c 0
 198.666666667 -12 139.166666667 13.3333333333 91.5 64 c 0
 43.8333333333 114.666666667 20 176.666666667 20 250 c 0
 20 323.333333333 43.8333333333 385.333333333 91.5 436 c 0
 139.166666667 486.666666667 198.666666667 512 270 512 c 0xad
 317.841796875 512 358.841796875 498.225585937 393 470.676757812 c 0
 396.401041667 467.933268229 399.734375 465.053385417 403 462.037109375 c 1
 403 500 l 1x1d
287 344 m 0xae
 261 344 238.833333333 334.833333333 220.5 316.5 c 0
 202.166666667 298.166666667 193 276 193 250 c 0
 193 224 202.166666667 201.833333333 220.5 183.5 c 0
 238.833333333 165.166666667 261 156 287 156 c 0
 313 156 335.166666667 165.166666667 353.5 183.5 c 0
 371.833333333 201.833333333 381 224 381 250 c 0
 381 276 371.833333333 298.166666667 353.5 316.5 c 0
 335.166666667 334.833333333 313 344 287 344 c 0xae
EndSplineSet
Validated: 1
EndChar

StartChar: aacute
Encoding: 225 225 158
GlifName: aacute
Width: 596
Flags: W
HStem: -12 168<227.325 346.803> 0 21G<403 551> 344 168<227.325 346.731> 480 20G<403 551> 553.5 147<283 353>
VStem: 20 173<190.234 309.766> 381 170<189.653 310.347> 403 148<0 32.9893 462.037 500>
LayerCount: 2
Fore
SplineSet
177 553.5 m 5x0c
 283 700.5 l 5
 479 700.5 l 5
 353 553.5 l 5
 177 553.5 l 5x0c
403 500 m 1x1d
 551 500 l 1
 551 0 l 1
 403 0 l 1x5d
 403 32.9892578125 l 1
 399.436197917 29.9007161458 395.76953125 26.9713541667 392 24.201171875 c 4
 359.160807292 0.0670572916667 318.494140625 -12 270 -12 c 0
 198.666666667 -12 139.166666667 13.3333333333 91.5 64 c 0
 43.8333333333 114.666666667 20 176.666666667 20 250 c 0
 20 323.333333333 43.8333333333 385.333333333 91.5 436 c 0
 139.166666667 486.666666667 198.666666667 512 270 512 c 0xad
 317.841796875 512 358.841796875 498.225585937 393 470.676757812 c 0
 396.401041667 467.933268229 399.734375 465.053385417 403 462.037109375 c 1
 403 500 l 1x1d
287 344 m 0xae
 261 344 238.833333333 334.833333333 220.5 316.5 c 0
 202.166666667 298.166666667 193 276 193 250 c 0
 193 224 202.166666667 201.833333333 220.5 183.5 c 0
 238.833333333 165.166666667 261 156 287 156 c 0
 313 156 335.166666667 165.166666667 353.5 183.5 c 0
 371.833333333 201.833333333 381 224 381 250 c 0
 381 276 371.833333333 298.166666667 353.5 316.5 c 0
 335.166666667 334.833333333 313 344 287 344 c 0xae
EndSplineSet
Validated: 1
EndChar

StartChar: acircumflex
Encoding: 226 226 159
GlifName: acircumflex
Width: 596
Flags: W
HStem: -12 168<227.325 346.803> 0 21G<403 551> 344 168<227.325 346.731> 480 20G<403 551> 554 146<205.554 240.002 337.998 372.446>
VStem: 20 173<190.234 309.766> 381 170<189.653 310.347> 403 148<0 32.9893 462.037 500>
LayerCount: 2
Fore
SplineSet
75.24609375 554 m 1x0c
 205.553710938 700 l 1
 372.446289062 700 l 1
 502.75390625 554 l 1
 337.998046875 554 l 1
 289 606.009765625 l 1
 240.001953125 554 l 1
 75.24609375 554 l 1x0c
403 500 m 1x1d
 551 500 l 1
 551 0 l 1
 403 0 l 1x5d
 403 32.9892578125 l 1
 399.436197917 29.9007161458 395.76953125 26.9713541667 392 24.201171875 c 4
 359.160807292 0.0670572916667 318.494140625 -12 270 -12 c 0
 198.666666667 -12 139.166666667 13.3333333333 91.5 64 c 0
 43.8333333333 114.666666667 20 176.666666667 20 250 c 0
 20 323.333333333 43.8333333333 385.333333333 91.5 436 c 0
 139.166666667 486.666666667 198.666666667 512 270 512 c 0xad
 317.841796875 512 358.841796875 498.225585937 393 470.676757812 c 0
 396.401041667 467.933268229 399.734375 465.053385417 403 462.037109375 c 1
 403 500 l 1x1d
287 344 m 0xae
 261 344 238.833333333 334.833333333 220.5 316.5 c 0
 202.166666667 298.166666667 193 276 193 250 c 0
 193 224 202.166666667 201.833333333 220.5 183.5 c 0
 238.833333333 165.166666667 261 156 287 156 c 0
 313 156 335.166666667 165.166666667 353.5 183.5 c 0
 371.833333333 201.833333333 381 224 381 250 c 0
 381 276 371.833333333 298.166666667 353.5 316.5 c 0
 335.166666667 334.833333333 313 344 287 344 c 0xae
EndSplineSet
Validated: 1
EndChar

StartChar: atilde
Encoding: 227 227 160
GlifName: atilde
Width: 596
Flags: W
HStem: -12 168<227.325 346.803> 0 21G<403 551> 344 168<227.325 346.731> 480 20G<403 551> 534 106<339.044 393.96> 606 106<210.052 271.202>
VStem: 20 173<190.234 309.766> 381 170<189.653 310.347> 403 148<0 32.9893 462.037 500>
LayerCount: 2
Fore
SplineSet
373 534 m 0x0a
 331.666666667 534 301.666666667 546 283 570 c 0
 275.666666667 579.333333333 268.666666667 587.666666667 262 595 c 0
 255.333333333 602.333333333 246.333333333 606 235 606 c 0
 220.333333333 606 210 593 204 567 c 1
 87 567 l 1
 89.6666666667 609 105 643.666666667 133 671 c 0
 161 698.333333333 193 712 229 712 c 0x06
 273.666666667 712 306.333333333 700 327 676 c 0
 335 666.666666667 342 658.333333333 348 651 c 0
 354 643.666666667 362 640 372 640 c 0
 386 640 394.666666667 653 398 679 c 1
 515 679 l 5
 510.333333333 636.333333333 494.833333333 601.5 468.5 574.5 c 0
 442.166666667 547.5 410.333333333 534 373 534 c 0x0a
403 500 m 1x1280
 551 500 l 1
 551 0 l 1
 403 0 l 1x5280
 403 32.9892578125 l 1
 399.436197917 29.9007161458 395.76953125 26.9713541667 392 24.201171875 c 4
 359.160807292 0.0670572916667 318.494140625 -12 270 -12 c 0
 198.666666667 -12 139.166666667 13.3333333333 91.5 64 c 0
 43.8333333333 114.666666667 20 176.666666667 20 250 c 0
 20 323.333333333 43.8333333333 385.333333333 91.5 436 c 0
 139.166666667 486.666666667 198.666666667 512 270 512 c 0xa280
 317.841796875 512 358.841796875 498.225585937 393 470.676757812 c 0
 396.401041667 467.933268229 399.734375 465.053385417 403 462.037109375 c 1
 403 500 l 1x1280
287 344 m 0xa3
 261 344 238.833333333 334.833333333 220.5 316.5 c 0
 202.166666667 298.166666667 193 276 193 250 c 0
 193 224 202.166666667 201.833333333 220.5 183.5 c 0
 238.833333333 165.166666667 261 156 287 156 c 0
 313 156 335.166666667 165.166666667 353.5 183.5 c 0
 371.833333333 201.833333333 381 224 381 250 c 0
 381 276 371.833333333 298.166666667 353.5 316.5 c 0
 335.166666667 334.833333333 313 344 287 344 c 0xa3
EndSplineSet
Validated: 1
EndChar

StartChar: adieresis
Encoding: 228 228 161
GlifName: adieresis
Width: 596
Flags: W
HStem: -12 168<227.325 346.803> 0 21G<403 551> 344 168<227.325 346.731> 480 20G<403 551> 569 176<94.9629 209.037 364.963 479.037>
VStem: 20 173<190.234 309.766> 64 176<599.963 714.037> 334 176<599.963 714.037> 381 170<189.653 310.347> 403 148<0 32.9893 462.037 500>
LayerCount: 2
Fore
SplineSet
152 745 m 4x0a
 176 745 196.666666667 736.333333333 214 719 c 4
 231.333333333 701.666666667 240 681 240 657 c 4
 240 633 231.333333333 612.333333333 214 595 c 4
 196.666666667 577.666666667 176 569 152 569 c 4
 128 569 107.333333333 577.666666667 90 595 c 4
 72.6666666667 612.333333333 64 633 64 657 c 4
 64 681 72.6666666667 701.666666667 90 719 c 4
 107.333333333 736.333333333 128 745 152 745 c 4x0a
422 745 m 4
 446 745 466.666666667 736.333333333 484 719 c 4
 501.333333333 701.666666667 510 681 510 657 c 4
 510 633 501.333333333 612.333333333 484 595 c 4
 466.666666667 577.666666667 446 569 422 569 c 4
 398 569 377.333333333 577.666666667 360 595 c 4
 342.666666667 612.333333333 334 633 334 657 c 4x09
 334 681 342.666666667 701.666666667 360 719 c 4
 377.333333333 736.333333333 398 745 422 745 c 4
403 500 m 1x1c40
 551 500 l 1
 551 0 l 1
 403 0 l 1x5c40
 403 32.9892578125 l 1
 399.436197917 29.9007161458 395.76953125 26.9713541667 392 24.201171875 c 4
 359.160807292 0.0670572916667 318.494140625 -12 270 -12 c 0
 198.666666667 -12 139.166666667 13.3333333333 91.5 64 c 0
 43.8333333333 114.666666667 20 176.666666667 20 250 c 0
 20 323.333333333 43.8333333333 385.333333333 91.5 436 c 0
 139.166666667 486.666666667 198.666666667 512 270 512 c 0xac40
 317.841796875 512 358.841796875 498.225585937 393 470.676757812 c 0
 396.401041667 467.933268229 399.734375 465.053385417 403 462.037109375 c 1
 403 500 l 1x1c40
287 344 m 0xac80
 261 344 238.833333333 334.833333333 220.5 316.5 c 0
 202.166666667 298.166666667 193 276 193 250 c 0
 193 224 202.166666667 201.833333333 220.5 183.5 c 0
 238.833333333 165.166666667 261 156 287 156 c 0
 313 156 335.166666667 165.166666667 353.5 183.5 c 0
 371.833333333 201.833333333 381 224 381 250 c 0
 381 276 371.833333333 298.166666667 353.5 316.5 c 0
 335.166666667 334.833333333 313 344 287 344 c 0xac80
EndSplineSet
Validated: 1
EndChar

StartChar: aring
Encoding: 229 229 162
GlifName: aring
Width: 596
Flags: W
HStem: -12 168<227.325 346.803> 0 21G<403 551> 344 168<227.325 346.731> 480 20G<403 551> 520 97.1309<254.483 307.517> 681.869 97.1309<254.483 307.517>
VStem: 20 173<190.234 309.766> 151.5 97.1309<622.983 676.017> 313.369 97.1309<622.983 676.017> 381 170<189.653 310.347> 403 148<0 32.9893 462.037 500>
LayerCount: 2
Fore
SplineSet
281 779 m 0x0d80
 316.736328125 779 347.25390625 766.350911458 372.552734375 741.052734375 c 0
 397.850911458 715.75390625 410.5 685.236328125 410.5 649.5 c 0
 410.5 613.763671875 397.850911458 583.24609375 372.552734375 557.947265625 c 0
 347.25390625 532.649088542 316.736328125 520 281 520 c 0
 245.263671875 520 214.74609375 532.649088542 189.447265625 557.947265625 c 0
 164.149088542 583.24609375 151.5 613.763671875 151.5 649.5 c 0
 151.5 685.236328125 164.149088542 715.75390625 189.447265625 741.052734375 c 0
 214.74609375 766.350911458 245.263671875 779 281 779 c 0x0d80
281 681.869140625 m 0
 272.067708333 681.869140625 264.439778646 678.707356771 258.116210938 672.383789062 c 0
 251.792643229 666.060221354 248.630859375 658.432291667 248.630859375 649.5 c 0
 248.630859375 640.567708333 251.792643229 632.939778646 258.116210938 626.616210938 c 0
 264.439778646 620.292643229 272.067708333 617.130859375 281 617.130859375 c 0
 289.932291667 617.130859375 297.560221354 620.292643229 303.883789062 626.616210938 c 0
 310.207356771 632.939778646 313.369140625 640.567708333 313.369140625 649.5 c 0
 313.369140625 658.432291667 310.207356771 666.060221354 303.883789062 672.383789062 c 0
 297.560221354 678.707356771 289.932291667 681.869140625 281 681.869140625 c 0
403 500 m 1x1e20
 551 500 l 1
 551 0 l 1
 403 0 l 1x5e20
 403 32.9892578125 l 1
 399.436197917 29.9007161458 395.76953125 26.9713541667 392 24.201171875 c 4
 359.160807292 0.0670572916667 318.494140625 -12 270 -12 c 0
 198.666666667 -12 139.166666667 13.3333333333 91.5 64 c 0
 43.8333333333 114.666666667 20 176.666666667 20 250 c 0
 20 323.333333333 43.8333333333 385.333333333 91.5 436 c 0
 139.166666667 486.666666667 198.666666667 512 270 512 c 0xae20
 317.841796875 512 358.841796875 498.225585937 393 470.676757812 c 0
 396.401041667 467.933268229 399.734375 465.053385417 403 462.037109375 c 1
 403 500 l 1x1e20
287 344 m 0xae40
 261 344 238.833333333 334.833333333 220.5 316.5 c 0
 202.166666667 298.166666667 193 276 193 250 c 0
 193 224 202.166666667 201.833333333 220.5 183.5 c 0
 238.833333333 165.166666667 261 156 287 156 c 0
 313 156 335.166666667 165.166666667 353.5 183.5 c 0
 371.833333333 201.833333333 381 224 381 250 c 0
 381 276 371.833333333 298.166666667 353.5 316.5 c 0
 335.166666667 334.833333333 313 344 287 344 c 0xae40
EndSplineSet
Validated: 1
EndChar

StartChar: ae
Encoding: 230 230 163
GlifName: ae
Width: 1116
Flags: W
HStem: -12 168<227.325 346.803 772.326 936.244> 0 21G<403 551> 184.354 129.646<765.332 891.518> 344 168<227.325 346.731 768.838 884.125> 480 20G<403 551>
VStem: 20 173<190.234 309.766> 381 170<189.653 310.347> 403 148<0 32.9893 462.037 500> 569 514<185.702 312.032>
LayerCount: 2
Fore
SplineSet
403 500 m 1x2d80
 551 500 l 1
 551 0 l 1
 403 0 l 1x6d80
 403 32.9892578125 l 1
 399.436197917 29.9007161458 395.76953125 26.9713541667 392 24.201171875 c 4
 359.160807292 0.0670572916667 318.494140625 -12 270 -12 c 0
 198.666666667 -12 139.166666667 13.3333333333 91.5 64 c 0
 43.8333333333 114.666666667 20 176.666666667 20 250 c 0
 20 323.333333333 43.8333333333 385.333333333 91.5 436 c 0
 139.166666667 486.666666667 198.666666667 512 270 512 c 0xb580
 317.841796875 512 358.841796875 498.225585937 393 470.676757812 c 0
 396.401041667 467.933268229 399.734375 465.053385417 403 462.037109375 c 1
 403 500 l 1x2d80
287 344 m 0xb680
 261 344 238.833333333 334.833333333 220.5 316.5 c 0
 202.166666667 298.166666667 193 276 193 250 c 0
 193 224 202.166666667 201.833333333 220.5 183.5 c 0
 238.833333333 165.166666667 261 156 287 156 c 0
 313 156 335.166666667 165.166666667 353.5 183.5 c 0
 371.833333333 201.833333333 381 224 381 250 c 0
 381 276 371.833333333 298.166666667 353.5 316.5 c 0
 335.166666667 334.833333333 313 344 287 344 c 0xb680
1083 184.353515625 m 1
 765.33203125 184.353515625 l 1
 773.347005209 176.265625 781.902994792 169.694335938 791 164.639648438 c 0
 806.163411459 156.213216146 822.830078125 152 841 152 c 0
 873.072916667 152 898.091145833 160.981770833 916.0546875 178.9453125 c 1
 1036.26171875 58.73828125 l 1
 985.102864583 7.57942708333 920.015625 -18 841 -18 c 0
 768.333333333 -18 704.833333333 7.66666666667 650.5 59 c 0
 596.166666667 110.333333333 569 172 569 244 c 0
 569 316.666666667 594.5 378.5 645.5 429.5 c 0
 696.5 480.5 758.333333333 506 831 506 c 0
 899.348958333 506 959.102864583 480.420572917 1010.26171875 429.26171875 c 0
 1058.75390625 380.76953125 1083 319.015625 1083 244 c 2
 1083 184.353515625 l 1
827 346 m 0
 810.333333333 346 795.666666667 341.884765625 783 333.654296875 c 0
 775 328.551432292 767.735677083 322 761.20703125 314 c 1
 891.517578125 314 l 1
 884.505859375 323.333333333 876.333333333 330.680989583 867 336.04296875 c 0
 855.666666667 342.680989583 842.333333333 346 827 346 c 0
EndSplineSet
Validated: 1
EndChar

StartChar: ccedilla
Encoding: 231 231 164
GlifName: ccedilla
Width: 476
Flags: W
HStem: -211 120<203.221 282.6> -12 21G<245.405 317.913> -12 21G<245.405 317.913> 342 170<222.886 364.419>
VStem: 19.7383 170<191.148 308.852> 292.476 120<-81.1243 -10.5616>
LayerCount: 2
Fore
SplineSet
352.006835938 81.66015625 m 1x9c
 392.318684896 48.6529947917 412.474934896 6.099609375 412.475585938 -46 c 0
 412.475585938 -91.3333333333 396.308919271 -130.166666667 363.975585938 -162.5 c 0
 331.642252605 -194.833333333 292.808919271 -211 247.475585938 -211 c 0
 209.737955729 -210.854817708 176.018554687 -199.141276041 146.317382812 -175.859375 c 1
 192.305013021 -110.1796875 215.297200521 -77.3430989583 215.293945312 -77.349609375 c 4
 224.103190104 -86.4212239583 234.830403646 -90.9713541667 247.475585938 -91 c 0
 260.142252605 -91 270.808919271 -86.6666666667 279.475585938 -78 c 0
 288.142252605 -69.3333333333 292.475585938 -58.6666666667 292.475585938 -46 c 0
 292.465169271 -34.6061197917 288.678059896 -24.6692708333 281.114257812 -16.189453125 c 0
 273.551106771 -7.70963541667 264.191080729 -2.775390625 253.034179688 -1.38671875 c 1
 352.006835938 81.66015625 l 1x9c
281.73828125 512 m 0
 354.087239583 512 415.841145833 486.420572917 467 435.26171875 c 1
 346.79296875 315.0546875 l 1
 328.829427083 333.018229167 307.14453125 342 281.73828125 342 c 0
 256.404947917 342 234.73828125 333 216.73828125 315 c 0
 198.73828125 297 189.73828125 275.333333333 189.73828125 250 c 0
 189.73828125 224.666666667 198.73828125 203 216.73828125 185 c 0
 234.73828125 167 256.404947917 158 281.73828125 158 c 0
 307.14453125 158 328.829427083 166.981770833 346.79296875 184.9453125 c 1
 467 64.73828125 l 1
 415.841145833 13.5794270833 354.087239583 -12 281.73828125 -12 c 0xdc
 209.071614583 -12 147.23828125 13.5 96.23828125 64.5 c 0
 45.23828125 115.5 19.73828125 177.333333333 19.73828125 250 c 0
 19.73828125 322.666666667 45.23828125 384.5 96.23828125 435.5 c 0
 147.23828125 486.5 209.071614583 512 281.73828125 512 c 0
EndSplineSet
Validated: 37
EndChar

StartChar: egrave
Encoding: 232 232 165
GlifName: egrave
Width: 544
Flags: W
HStem: -12 170<228.832 383.523> 190.354 129.646<216.332 342.518> 352 160<222.566 332.71> 554 147<210 280>
VStem: 20 514<191.702 318.032>
LayerCount: 2
Fore
SplineSet
210 554 m 5
 84 701 l 5
 280 701 l 5
 386 554 l 5
 210 554 l 5
534 190.353515625 m 1
 216.33203125 190.353515625 l 1
 224.347005209 182.265625 232.902994792 175.694335938 242 170.639648438 c 0
 257.163411459 162.213216146 273.830078125 158 292 158 c 0
 324.072916667 158 349.091145833 166.981770833 367.0546875 184.9453125 c 1
 487.26171875 64.73828125 l 1
 436.102864583 13.5794270833 371.015625 -12 292 -12 c 0
 219.333333333 -12 155.833333333 13.6666666667 101.5 65 c 0
 47.1666666667 116.333333333 20 178 20 250 c 0
 20 322.666666667 45.5 384.5 96.5 435.5 c 0
 147.5 486.5 209.333333333 512 282 512 c 0
 350.348958333 512 410.102864583 486.420572917 461.26171875 435.26171875 c 0
 509.75390625 386.76953125 534 325.015625 534 250 c 2
 534 190.353515625 l 1
278 352 m 0
 261.333333333 352 246.666666667 347.884765625 234 339.654296875 c 0
 226 334.551432292 218.735677083 328 212.20703125 320 c 1
 342.517578125 320 l 1
 335.505859375 329.333333333 327.333333333 336.680989583 318 342.04296875 c 0
 306.666666667 348.680989583 293.333333333 352 278 352 c 0
EndSplineSet
Validated: 1
EndChar

StartChar: eacute
Encoding: 233 233 166
GlifName: eacute
Width: 544
Flags: W
HStem: -12 170<228.832 383.523> 190.354 129.646<216.332 342.518> 352 160<222.566 332.71> 553.5 147<299 369>
VStem: 20 514<191.702 318.032>
LayerCount: 2
Fore
SplineSet
193 553.5 m 5
 299 700.5 l 5
 495 700.5 l 5
 369 553.5 l 5
 193 553.5 l 5
534 190.353515625 m 1
 216.33203125 190.353515625 l 1
 224.347005209 182.265625 232.902994792 175.694335938 242 170.639648438 c 0
 257.163411459 162.213216146 273.830078125 158 292 158 c 0
 324.072916667 158 349.091145833 166.981770833 367.0546875 184.9453125 c 1
 487.26171875 64.73828125 l 1
 436.102864583 13.5794270833 371.015625 -12 292 -12 c 0
 219.333333333 -12 155.833333333 13.6666666667 101.5 65 c 0
 47.1666666667 116.333333333 20 178 20 250 c 0
 20 322.666666667 45.5 384.5 96.5 435.5 c 0
 147.5 486.5 209.333333333 512 282 512 c 0
 350.348958333 512 410.102864583 486.420572917 461.26171875 435.26171875 c 0
 509.75390625 386.76953125 534 325.015625 534 250 c 2
 534 190.353515625 l 1
278 352 m 0
 261.333333333 352 246.666666667 347.884765625 234 339.654296875 c 0
 226 334.551432292 218.735677083 328 212.20703125 320 c 1
 342.517578125 320 l 1
 335.505859375 329.333333333 327.333333333 336.680989583 318 342.04296875 c 0
 306.666666667 348.680989583 293.333333333 352 278 352 c 0
EndSplineSet
Validated: 1
EndChar

StartChar: ecircumflex
Encoding: 234 234 167
GlifName: ecircumflex
Width: 544
Flags: W
HStem: -12 170<228.832 383.523> 190.354 129.646<216.332 342.518> 352 160<222.566 332.71> 554 146<195.554 230.002 327.998 362.446>
VStem: 20 514<191.702 318.032>
LayerCount: 2
Fore
SplineSet
65.24609375 554 m 1
 195.553710938 700 l 1
 362.446289062 700 l 1
 492.75390625 554 l 1
 327.998046875 554 l 1
 279 606.009765625 l 1
 230.001953125 554 l 1
 65.24609375 554 l 1
534 190.353515625 m 1
 216.33203125 190.353515625 l 1
 224.347005209 182.265625 232.902994792 175.694335938 242 170.639648438 c 0
 257.163411459 162.213216146 273.830078125 158 292 158 c 0
 324.072916667 158 349.091145833 166.981770833 367.0546875 184.9453125 c 1
 487.26171875 64.73828125 l 1
 436.102864583 13.5794270833 371.015625 -12 292 -12 c 0
 219.333333333 -12 155.833333333 13.6666666667 101.5 65 c 0
 47.1666666667 116.333333333 20 178 20 250 c 0
 20 322.666666667 45.5 384.5 96.5 435.5 c 0
 147.5 486.5 209.333333333 512 282 512 c 0
 350.348958333 512 410.102864583 486.420572917 461.26171875 435.26171875 c 0
 509.75390625 386.76953125 534 325.015625 534 250 c 2
 534 190.353515625 l 1
278 352 m 0
 261.333333333 352 246.666666667 347.884765625 234 339.654296875 c 0
 226 334.551432292 218.735677083 328 212.20703125 320 c 1
 342.517578125 320 l 1
 335.505859375 329.333333333 327.333333333 336.680989583 318 342.04296875 c 0
 306.666666667 348.680989583 293.333333333 352 278 352 c 0
EndSplineSet
Validated: 1
EndChar

StartChar: edieresis
Encoding: 235 235 168
GlifName: edieresis
Width: 544
Flags: W
HStem: -12 170<228.832 383.523> 190.354 129.646<216.332 342.518> 352 160<222.566 332.71> 569 176<88.9629 203.037 358.963 473.037>
VStem: 20 514<191.702 318.032> 58 176<599.963 714.037> 328 176<599.963 714.037>
LayerCount: 2
Fore
SplineSet
146 745 m 4xf4
 170 745 190.666666667 736.333333333 208 719 c 4
 225.333333333 701.666666667 234 681 234 657 c 4
 234 633 225.333333333 612.333333333 208 595 c 4
 190.666666667 577.666666667 170 569 146 569 c 4
 122 569 101.333333333 577.666666667 84 595 c 4
 66.6666666667 612.333333333 58 633 58 657 c 4
 58 681 66.6666666667 701.666666667 84 719 c 4
 101.333333333 736.333333333 122 745 146 745 c 4xf4
416 745 m 4
 440 745 460.666666667 736.333333333 478 719 c 4
 495.333333333 701.666666667 504 681 504 657 c 4
 504 633 495.333333333 612.333333333 478 595 c 4
 460.666666667 577.666666667 440 569 416 569 c 4
 392 569 371.333333333 577.666666667 354 595 c 4
 336.666666667 612.333333333 328 633 328 657 c 4xf2
 328 681 336.666666667 701.666666667 354 719 c 4
 371.333333333 736.333333333 392 745 416 745 c 4
534 190.353515625 m 1xf8
 216.33203125 190.353515625 l 1
 224.347005209 182.265625 232.902994792 175.694335938 242 170.639648438 c 0
 257.163411459 162.213216146 273.830078125 158 292 158 c 0
 324.072916667 158 349.091145833 166.981770833 367.0546875 184.9453125 c 1
 487.26171875 64.73828125 l 1
 436.102864583 13.5794270833 371.015625 -12 292 -12 c 0
 219.333333333 -12 155.833333333 13.6666666667 101.5 65 c 0
 47.1666666667 116.333333333 20 178 20 250 c 0
 20 322.666666667 45.5 384.5 96.5 435.5 c 0
 147.5 486.5 209.333333333 512 282 512 c 0
 350.348958333 512 410.102864583 486.420572917 461.26171875 435.26171875 c 0
 509.75390625 386.76953125 534 325.015625 534 250 c 2
 534 190.353515625 l 1xf8
278 352 m 0
 261.333333333 352 246.666666667 347.884765625 234 339.654296875 c 0xf4
 226 334.551432292 218.735677083 328 212.20703125 320 c 1
 342.517578125 320 l 1
 335.505859375 329.333333333 327.333333333 336.680989583 318 342.04296875 c 0
 306.666666667 348.680989583 293.333333333 352 278 352 c 0
EndSplineSet
Validated: 1
EndChar

StartChar: igrave
Encoding: 236 236 169
GlifName: igrave
Width: 290
Flags: W
HStem: 0 21G<60 230> 480 20G<60 230> 554 147<59 129>
VStem: 60 170<0 500>
LayerCount: 2
Fore
SplineSet
59 554 m 5
 -67 701 l 5
 129 701 l 5
 235 554 l 5
 59 554 l 5
60 0 m 1
 60 500 l 1
 230 500 l 1
 230 0 l 1
 60 0 l 1
EndSplineSet
Validated: 1
EndChar

StartChar: iacute
Encoding: 237 237 170
GlifName: iacute
Width: 290
Flags: W
HStem: 0 21G<60 230> 480 20G<60 230> 553.5 147<162 232>
VStem: 60 170<0 500>
LayerCount: 2
Fore
SplineSet
56 553.5 m 5
 162 700.5 l 5
 358 700.5 l 5
 232 553.5 l 5
 56 553.5 l 5
60 0 m 1
 60 500 l 1
 230 500 l 1
 230 0 l 1
 60 0 l 1
EndSplineSet
Validated: 1
EndChar

StartChar: icircumflex
Encoding: 238 238 171
GlifName: icircumflex
Width: 290
Flags: W
HStem: 0 21G<60 230> 480 20G<60 230> 554 146<65.5537 100.002 197.998 232.446>
VStem: 60 170<0 500>
LayerCount: 2
Fore
SplineSet
-64.75390625 554 m 1
 65.5537109375 700 l 1
 232.446289062 700 l 1
 362.75390625 554 l 1
 197.998046875 554 l 1
 149 606.009765625 l 1
 100.001953125 554 l 1
 -64.75390625 554 l 1
60 0 m 1
 60 500 l 1
 230 500 l 1
 230 0 l 1
 60 0 l 1
EndSplineSet
Validated: 1
EndChar

StartChar: idieresis
Encoding: 239 239 172
GlifName: idieresis
Width: 290
Flags: W
HStem: 0 21G<60 230> 480 20G<60 230> 569 176<-32.0371 82.0371 207.963 322.037>
VStem: -63 176<599.963 714.037> 60 170<0 500> 177 176<599.963 714.037>
LayerCount: 2
Fore
SplineSet
60 0 m 1xe8
 60 500 l 1
 230 500 l 1
 230 0 l 1
 60 0 l 1xe8
25 745 m 4
 49 745 69.6666666667 736.333333333 87 719 c 4
 104.333333333 701.666666667 113 681 113 657 c 4
 113 633 104.333333333 612.333333333 87 595 c 4
 69.6666666667 577.666666667 49 569 25 569 c 4
 1 569 -19.6666666667 577.666666667 -37 595 c 4
 -54.3333333333 612.333333333 -63 633 -63 657 c 4xf0
 -63 681 -54.3333333333 701.666666667 -37 719 c 4
 -19.6666666667 736.333333333 1 745 25 745 c 4
265 745 m 4
 289 745 309.666666667 736.333333333 327 719 c 4
 344.333333333 701.666666667 353 681 353 657 c 4
 353 633 344.333333333 612.333333333 327 595 c 4
 309.666666667 577.666666667 289 569 265 569 c 4
 241 569 220.333333333 577.666666667 203 595 c 4
 185.666666667 612.333333333 177 633 177 657 c 4xe4
 177 681 185.666666667 701.666666667 203 719 c 4
 220.333333333 736.333333333 241 745 265 745 c 4
EndSplineSet
Validated: 1
EndChar

StartChar: eth
Encoding: 240 240 173
GlifName: eth
Width: 559
Flags: W
HStem: -12 170<220.357 329.643> 692 20G<162.914 180.607 341.69 387.878>
VStem: 23 170<185.357 294.643> 357 170<185.357 301.752>
LayerCount: 2
Fore
SplineSet
275 492 m 0
 345 492 404.5 467.5 453.5 418.5 c 0
 502.5 369.5 527 310 527 240 c 0
 527 170 502.5 110.5 453.5 61.5 c 0
 404.5 12.5 345 -12 275 -12 c 0
 205 -12 145.5 12.5 96.5 61.5 c 0
 47.5 110.5 23 170 23 240 c 0
 23 310 47.5 369.5 96.5 418.5 c 0
 145.5 467.5 205 492 275 492 c 0
275 322 m 0
 252.333333333 322 233 314 217 298 c 0
 201 282 193 262.666666667 193 240 c 0
 193 217.333333333 201 198 217 182 c 0
 233 166 252.333333333 158 275 158 c 0
 297.666666667 158 317 166 333 182 c 0
 349 198 357 217.333333333 357 240 c 0
 357 262.666666667 349 282 333 298 c 0
 317 314 297.666666667 322 275 322 c 0
100.39453125 557.927734375 m 1
 172.240234375 712 l 1
 188.973077064 711.439634763 212.239644214 707.024020557 242.039935823 698.753157381 c 4
 266.605243748 691.93522743 290.058729878 682.919942237 312.400394215 671.707301803 c 0
 334.742058552 660.494661369 359.555207201 642.926825813 386.83984016 619.003795136 c 0
 414.124473119 595.080764459 437.577959249 567.248196103 457.200298552 535.506090068 c 0
 476.822637855 503.763984033 493.361506255 462.258511816 506.816903753 410.989673416 c 0
 520.272301251 359.720835016 527 302.724277211 527 240 c 1
 357 240 l 1
 357 301.751860844 348.234273299 354.751860844 330.702819897 399 c 0
 318.623072476 429.488421729 302.381653617 455.821755063 281.978563322 478 c 0
 261.564385479 500.190297149 236.984011857 518.220988717 208.237442458 532.092074705 c 0
 170.636839157 550.231020852 134.689202088 558.842907409 100.39453125 557.927734375 c 1
133.982421875 566.280273438 m 1
 376.331054688 706.200195312 l 1
 426.331054688 619.59765625 l 1
 183.982421875 479.677734375 l 1
 133.982421875 566.280273438 l 1
EndSplineSet
Validated: 37
EndChar

StartChar: ntilde
Encoding: 241 241 174
GlifName: ntilde
Width: 578
Flags: W
HStem: 0 21G<45 215 368 538> 342 170<237.592 345.529> 480 20G<45 203> 534 106<333.044 387.96> 606 106<204.052 265.202>
VStem: 45 170<0 319.654> 368 170<0 319.436>
LayerCount: 2
Fore
SplineSet
367 534 m 0x96
 325.666666667 534 295.666666667 546 277 570 c 0
 269.666666667 579.333333333 262.666666667 587.666666667 256 595 c 0
 249.333333333 602.333333333 240.333333333 606 229 606 c 0
 214.333333333 606 204 593 198 567 c 1
 81 567 l 1
 83.6666666667 609 99 643.666666667 127 671 c 0
 155 698.333333333 187 712 223 712 c 0x8e
 267.666666667 712 300.333333333 700 321 676 c 0
 329 666.666666667 336 658.333333333 342 651 c 0
 348 643.666666667 356 640 366 640 c 0
 380 640 388.666666667 653 392 679 c 1
 509 679 l 5
 504.333333333 636.333333333 488.833333333 601.5 462.5 574.5 c 0
 436.166666667 547.5 404.333333333 534 367 534 c 0x96
538 0 m 1
 368 0 l 1
 368 263.7109375 l 2
 368 287.016276041 360.659505208 305.890625 345.978515625 320.333984375 c 0
 331.296875 334.777994792 313.137369792 342 291.5 342 c 0xc6
 269.862630208 342 251.703125 334.777994792 237.021484375 320.333984375 c 0
 222.340494792 305.890625 215 287.016276041 215 263.7109375 c 2
 215 0 l 1
 45 0 l 1
 45 500 l 1
 203 500 l 1xa6
 203 463.278320312 l 1
 208.595052083 469.351888021 214.595052083 474.857747396 221 479.795898438 c 4
 248.847005208 501.265299479 284.347005208 512 327.5 512 c 0xc6
 393.833333333 512 445.5 488.166666667 482.5 440.5 c 0
 519.5 392.833333333 538 331.333333333 538 256 c 2
 538 0 l 1
EndSplineSet
Validated: 1
EndChar

StartChar: ograve
Encoding: 242 242 175
GlifName: ograve
Width: 564
Flags: W
HStem: -12 170<223.222 340.778> 342 170<223.222 340.778> 554 147<204.5 274.5>
VStem: 20 170<191.222 308.778> 374 170<191.222 308.778>
LayerCount: 2
Fore
SplineSet
204.5 554 m 5
 78.5 701 l 5
 274.5 701 l 5
 380.5 554 l 5
 204.5 554 l 5
282 342 m 0
 256.595052083 342 234.910481771 333.017903646 216.946289062 315.053710938 c 0
 198.982096354 297.089518229 190 275.404947917 190 250 c 0
 190 224.595052083 198.982096354 202.910481771 216.946289062 184.946289062 c 0
 234.910481771 166.982096354 256.595052083 158 282 158 c 0
 307.404947917 158 329.089518229 166.982096354 347.053710938 184.946289062 c 0
 365.017903646 202.910481771 374 224.595052083 374 250 c 0
 374 275.404947917 365.017903646 297.089518229 347.053710938 315.053710938 c 0
 329.089518229 333.017903646 307.404947917 342 282 342 c 0
282 512 m 0
 354.348958333 512 416.102864583 486.420572917 467.26171875 435.26171875 c 0
 518.420572917 384.102864583 544 322.348958333 544 250 c 0
 544 177.651041667 518.420572917 115.897135417 467.26171875 64.73828125 c 0
 416.102864583 13.5794270833 354.348958333 -12 282 -12 c 0
 209.651041667 -12 147.897135417 13.5794270833 96.73828125 64.73828125 c 0
 45.5794270833 115.897135417 20 177.651041667 20 250 c 0
 20 322.348958333 45.5794270833 384.102864583 96.73828125 435.26171875 c 0
 147.897135417 486.420572917 209.651041667 512 282 512 c 0
EndSplineSet
Validated: 1
EndChar

StartChar: oacute
Encoding: 243 243 176
GlifName: oacute
Width: 564
Flags: W
HStem: -12 170<223.222 340.778> 342 170<223.222 340.778> 553.5 147<295.5 365.5>
VStem: 20 170<191.222 308.778> 374 170<191.222 308.778>
LayerCount: 2
Fore
SplineSet
189.5 553.5 m 5
 295.5 700.5 l 5
 491.5 700.5 l 5
 365.5 553.5 l 5
 189.5 553.5 l 5
282 342 m 0
 256.595052083 342 234.910481771 333.017903646 216.946289062 315.053710938 c 0
 198.982096354 297.089518229 190 275.404947917 190 250 c 0
 190 224.595052083 198.982096354 202.910481771 216.946289062 184.946289062 c 0
 234.910481771 166.982096354 256.595052083 158 282 158 c 0
 307.404947917 158 329.089518229 166.982096354 347.053710938 184.946289062 c 0
 365.017903646 202.910481771 374 224.595052083 374 250 c 0
 374 275.404947917 365.017903646 297.089518229 347.053710938 315.053710938 c 0
 329.089518229 333.017903646 307.404947917 342 282 342 c 0
282 512 m 0
 354.348958333 512 416.102864583 486.420572917 467.26171875 435.26171875 c 0
 518.420572917 384.102864583 544 322.348958333 544 250 c 0
 544 177.651041667 518.420572917 115.897135417 467.26171875 64.73828125 c 0
 416.102864583 13.5794270833 354.348958333 -12 282 -12 c 0
 209.651041667 -12 147.897135417 13.5794270833 96.73828125 64.73828125 c 0
 45.5794270833 115.897135417 20 177.651041667 20 250 c 0
 20 322.348958333 45.5794270833 384.102864583 96.73828125 435.26171875 c 0
 147.897135417 486.420572917 209.651041667 512 282 512 c 0
EndSplineSet
Validated: 1
EndChar

StartChar: ocircumflex
Encoding: 244 244 177
GlifName: ocircumflex
Width: 564
Flags: W
HStem: -12 170<223.222 340.778> 342 170<223.222 340.778> 554 146<198.054 232.502 330.498 364.946>
VStem: 20 170<191.222 308.778> 374 170<191.222 308.778>
LayerCount: 2
Fore
SplineSet
67.74609375 554 m 1
 198.053710938 700 l 1
 364.946289062 700 l 1
 495.25390625 554 l 1
 330.498046875 554 l 1
 281.5 606.009765625 l 1
 232.501953125 554 l 1
 67.74609375 554 l 1
282 342 m 0
 256.595052083 342 234.910481771 333.017903646 216.946289062 315.053710938 c 0
 198.982096354 297.089518229 190 275.404947917 190 250 c 0
 190 224.595052083 198.982096354 202.910481771 216.946289062 184.946289062 c 0
 234.910481771 166.982096354 256.595052083 158 282 158 c 0
 307.404947917 158 329.089518229 166.982096354 347.053710938 184.946289062 c 0
 365.017903646 202.910481771 374 224.595052083 374 250 c 0
 374 275.404947917 365.017903646 297.089518229 347.053710938 315.053710938 c 0
 329.089518229 333.017903646 307.404947917 342 282 342 c 0
282 512 m 0
 354.348958333 512 416.102864583 486.420572917 467.26171875 435.26171875 c 0
 518.420572917 384.102864583 544 322.348958333 544 250 c 0
 544 177.651041667 518.420572917 115.897135417 467.26171875 64.73828125 c 0
 416.102864583 13.5794270833 354.348958333 -12 282 -12 c 0
 209.651041667 -12 147.897135417 13.5794270833 96.73828125 64.73828125 c 0
 45.5794270833 115.897135417 20 177.651041667 20 250 c 0
 20 322.348958333 45.5794270833 384.102864583 96.73828125 435.26171875 c 0
 147.897135417 486.420572917 209.651041667 512 282 512 c 0
EndSplineSet
Validated: 1
EndChar

StartChar: otilde
Encoding: 245 245 178
GlifName: otilde
Width: 564
Flags: W
HStem: -12 170<223.222 340.778> 342 170<223.222 340.778> 534 106<326.544 381.46> 606 106<197.552 258.702>
VStem: 20 170<191.222 308.778> 374 170<191.222 308.778>
LayerCount: 2
Fore
SplineSet
360.5 534 m 0xec
 319.166666667 534 289.166666667 546 270.5 570 c 0
 263.166666667 579.333333333 256.166666667 587.666666667 249.5 595 c 0
 242.833333333 602.333333333 233.833333333 606 222.5 606 c 0
 207.833333333 606 197.5 593 191.5 567 c 1
 74.5 567 l 1
 77.1666666667 609 92.5 643.666666667 120.5 671 c 0
 148.5 698.333333333 180.5 712 216.5 712 c 0xdc
 261.166666667 712 293.833333333 700 314.5 676 c 0
 322.5 666.666666667 329.5 658.333333333 335.5 651 c 0
 341.5 643.666666667 349.5 640 359.5 640 c 0
 373.5 640 382.166666667 653 385.5 679 c 1
 502.5 679 l 5
 497.833333333 636.333333333 482.333333333 601.5 456 574.5 c 0
 429.666666667 547.5 397.833333333 534 360.5 534 c 0xec
282 342 m 0
 256.595052083 342 234.910481771 333.017903646 216.946289062 315.053710938 c 0
 198.982096354 297.089518229 190 275.404947917 190 250 c 0
 190 224.595052083 198.982096354 202.910481771 216.946289062 184.946289062 c 0
 234.910481771 166.982096354 256.595052083 158 282 158 c 0
 307.404947917 158 329.089518229 166.982096354 347.053710938 184.946289062 c 0
 365.017903646 202.910481771 374 224.595052083 374 250 c 0
 374 275.404947917 365.017903646 297.089518229 347.053710938 315.053710938 c 0
 329.089518229 333.017903646 307.404947917 342 282 342 c 0
282 512 m 0
 354.348958333 512 416.102864583 486.420572917 467.26171875 435.26171875 c 0
 518.420572917 384.102864583 544 322.348958333 544 250 c 0
 544 177.651041667 518.420572917 115.897135417 467.26171875 64.73828125 c 0
 416.102864583 13.5794270833 354.348958333 -12 282 -12 c 0
 209.651041667 -12 147.897135417 13.5794270833 96.73828125 64.73828125 c 0
 45.5794270833 115.897135417 20 177.651041667 20 250 c 0
 20 322.348958333 45.5794270833 384.102864583 96.73828125 435.26171875 c 0
 147.897135417 486.420572917 209.651041667 512 282 512 c 0
EndSplineSet
Validated: 1
EndChar

StartChar: odieresis
Encoding: 246 246 179
GlifName: odieresis
Width: 564
Flags: W
HStem: -12 170<223.222 340.778> 342 170<223.222 340.778> 569 176<91.4629 205.537 361.463 475.537>
VStem: 20 170<191.222 308.778> 60.5 176<599.963 714.037> 330.5 176<599.963 714.037> 374 170<191.222 308.778>
LayerCount: 2
Fore
SplineSet
148.5 745 m 4xe8
 172.5 745 193.166666667 736.333333333 210.5 719 c 4
 227.833333333 701.666666667 236.5 681 236.5 657 c 4
 236.5 633 227.833333333 612.333333333 210.5 595 c 4
 193.166666667 577.666666667 172.5 569 148.5 569 c 4
 124.5 569 103.833333333 577.666666667 86.5 595 c 4
 69.1666666667 612.333333333 60.5 633 60.5 657 c 4
 60.5 681 69.1666666667 701.666666667 86.5 719 c 4
 103.833333333 736.333333333 124.5 745 148.5 745 c 4xe8
418.5 745 m 4
 442.5 745 463.166666667 736.333333333 480.5 719 c 4
 497.833333333 701.666666667 506.5 681 506.5 657 c 4
 506.5 633 497.833333333 612.333333333 480.5 595 c 4
 463.166666667 577.666666667 442.5 569 418.5 569 c 4
 394.5 569 373.833333333 577.666666667 356.5 595 c 4
 339.166666667 612.333333333 330.5 633 330.5 657 c 4xe4
 330.5 681 339.166666667 701.666666667 356.5 719 c 4
 373.833333333 736.333333333 394.5 745 418.5 745 c 4
282 342 m 0
 256.595052083 342 234.910481771 333.017903646 216.946289062 315.053710938 c 0
 198.982096354 297.089518229 190 275.404947917 190 250 c 0
 190 224.595052083 198.982096354 202.910481771 216.946289062 184.946289062 c 0
 234.910481771 166.982096354 256.595052083 158 282 158 c 0
 307.404947917 158 329.089518229 166.982096354 347.053710938 184.946289062 c 0
 365.017903646 202.910481771 374 224.595052083 374 250 c 0xf2
 374 275.404947917 365.017903646 297.089518229 347.053710938 315.053710938 c 0
 329.089518229 333.017903646 307.404947917 342 282 342 c 0
282 512 m 0
 354.348958333 512 416.102864583 486.420572917 467.26171875 435.26171875 c 0
 518.420572917 384.102864583 544 322.348958333 544 250 c 0
 544 177.651041667 518.420572917 115.897135417 467.26171875 64.73828125 c 0
 416.102864583 13.5794270833 354.348958333 -12 282 -12 c 0
 209.651041667 -12 147.897135417 13.5794270833 96.73828125 64.73828125 c 0
 45.5794270833 115.897135417 20 177.651041667 20 250 c 0
 20 322.348958333 45.5794270833 384.102864583 96.73828125 435.26171875 c 0
 147.897135417 486.420572917 209.651041667 512 282 512 c 0
EndSplineSet
Validated: 1
EndChar

StartChar: divide
Encoding: 247 247 180
GlifName: divide
Width: 640
Flags: W
HStem: 50 145<269.411 370.589> 213 170<105 535> 400 145<269.411 370.589>
VStem: 247.5 145<71.9109 173.089 421.911 523.089>
LayerCount: 2
Fore
SplineSet
320 545 m 0
 340.006835937 545 357.091878255 537.918375651 371.255126953 523.755126953 c 0
 385.418375651 509.591878255 392.5 492.506835937 392.5 472.5 c 0
 392.5 452.493164063 385.418375651 435.408121745 371.255126953 421.244873047 c 0
 357.091878255 407.081624349 340.006835937 400 320 400 c 0
 299.993164063 400 282.908121745 407.081624349 268.744873047 421.244873047 c 0
 254.581624349 435.408121745 247.5 452.493164063 247.5 472.5 c 0
 247.5 492.506835937 254.581624349 509.591878255 268.744873047 523.755126953 c 0
 282.908121745 537.918375651 299.993164063 545 320 545 c 0
105 383 m 1
 535 383 l 1
 535 213 l 1
 105 213 l 1
 105 383 l 1
320 195 m 0
 340.006835937 195 357.091878255 187.918375651 371.255126953 173.755126953 c 0
 385.418375651 159.591878255 392.5 142.506835937 392.5 122.5 c 0
 392.5 102.493164063 385.418375651 85.4081217448 371.255126953 71.2448730469 c 0
 357.091878255 57.081624349 340.006835937 50 320 50 c 0
 299.993164063 50 282.908121745 57.081624349 268.744873047 71.2448730469 c 0
 254.581624349 85.4081217448 247.5 102.493164063 247.5 122.5 c 0
 247.5 142.506835937 254.581624349 159.591878255 268.744873047 173.755126953 c 0
 282.908121745 187.918375651 299.993164063 195 320 195 c 0
EndSplineSet
Validated: 1
EndChar

StartChar: oslash
Encoding: 248 248 181
GlifName: oslash
Width: 564
Flags: W
HStem: -12 21G<120.958 161.575 245.826 318.174> -12 21G<120.958 161.575 245.826 318.174> 342 170<223.222 299.559>
VStem: 20 170<206.49 308.778> 374 170<191.222 286.853>
LayerCount: 2
Fore
SplineSet
282 342 m 0x38
 256.595052083 342 234.910481771 333.017903646 216.946289062 315.053710938 c 0
 198.982096354 297.089518229 190 275.404947917 190 250 c 0
 190 224.595052083 198.982096354 202.910481771 216.946289062 184.946289062 c 0
 234.910481771 166.982096354 256.595052083 158 282 158 c 0
 307.404947917 158 329.089518229 166.982096354 347.053710938 184.946289062 c 0
 365.017903646 202.910481771 374 224.595052083 374 250 c 0
 374 275.404947917 365.017903646 297.089518229 347.053710938 315.053710938 c 0
 329.089518229 333.017903646 307.404947917 342 282 342 c 0x38
282 512 m 0
 354.348958333 512 416.102864583 486.420572917 467.26171875 435.26171875 c 0
 518.420572917 384.102864583 544 322.348958333 544 250 c 0
 544 177.651041667 518.420572917 115.897135417 467.26171875 64.73828125 c 0
 416.102864583 13.5794270833 354.348958333 -12 282 -12 c 0xb8
 209.651041667 -12 147.897135417 13.5794270833 96.73828125 64.73828125 c 0
 45.5794270833 115.897135417 20 177.651041667 20 250 c 0
 20 322.348958333 45.5794270833 384.102864583 96.73828125 435.26171875 c 0
 147.897135417 486.420572917 209.651041667 512 282 512 c 0
425.201171875 511.982421875 m 1
 518.658203125 433.5625 l 1
 144.79296875 -11.990234375 l 1
 51.3359375 66.4296875 l 1
 425.201171875 511.982421875 l 1
EndSplineSet
Validated: 5
EndChar

StartChar: ugrave
Encoding: 249 249 182
GlifName: ugrave
Width: 573
Flags: W
HStem: -12 170<233.456 339.544> 480 20G<40 210 363 533> 554 147<204 274>
VStem: 40 170<180.346 500> 363 170<180.346 500>
LayerCount: 2
Fore
SplineSet
204 554 m 5
 78 701 l 5
 274 701 l 5
 380 554 l 5
 204 554 l 5
40 500 m 1
 210 500 l 1
 210 236.2890625 l 2
 210 212.983723959 217.340494792 194.109375 232.021484375 179.666015625 c 0
 246.703125 165.222005208 264.862630208 158 286.5 158 c 0
 308.137369792 158 326.296875 165.222005208 340.978515625 179.666015625 c 0
 355.659505208 194.109375 363 212.983723959 363 236.2890625 c 2
 363 500 l 1
 533 500 l 1
 533 244 l 2
 533 172 509 111.333333333 461 62 c 0
 413 12.6666666667 354.833333333 -12 286.5 -12 c 0
 218.166666667 -12 160 12.6666666667 112 62 c 0
 64 111.333333333 40 172 40 244 c 2
 40 500 l 1
EndSplineSet
Validated: 1
EndChar

